<?xml version="1.0" encoding="utf-8"?>
<!-- Generator: Adobe Illustrator 16.0.0, SVG Export Plug-In . SVG Version: 6.00 Build 0)  -->
<!DOCTYPE svg PUBLIC "-//W3C//DTD SVG 1.1//EN" "http://www.w3.org/Graphics/SVG/1.1/DTD/svg11.dtd">
<svg version="1.1" id="Capa_1" xmlns="http://www.w3.org/2000/svg" xmlns:xlink="http://www.w3.org/1999/xlink" x="0px" y="0px"
	 width="94px" height="94px" viewBox="0 0 94 94" enable-background="new 0 0 94 94" xml:space="preserve">
<g>
	<g>
		<g>
			<path fill="#052561" d="M35.878,29.69c1.979-0.446,3.37-2.12,3.503-4.051c1.522,1.738,3.367,4.722,4.722,9.737
				c0.119,0.442,0.556,0.864,1.216,0.699c0.531-0.131,0.854-0.691,0.699-1.216c-2.989-10.111-7.631-14.066-11.07-13.976
				c-3.256,0.089-4.872,2.987-4.356,5.388C31.029,28.311,33.271,30.275,35.878,29.69z M32.529,25.856
				c-0.285-1.33,0.755-2.949,2.416-2.986c1.154-0.027,2.168,0.818,2.41,1.95c0.285,1.329-0.568,2.62-1.896,2.929
				C34.146,28.056,32.773,26.984,32.529,25.856z"/>
			<path fill="#052561" d="M54.982,43.167c-0.031-0.266-0.17-0.506-0.383-0.668c-0.211-0.162-0.479-0.234-0.742-0.196
				c-15.002,2.142-18.342-7.562-18.478-7.978c-0.166-0.521-0.724-0.807-1.241-0.644c-0.523,0.166-0.813,0.724-0.646,1.247
				c0.037,0.121,0.988,3.039,4.049,5.646c2.675,2.276,7.521,4.731,15.592,3.823l0.893,7.437c0.007,0.048,0.484,4.874-1.539,9.562
				c-3.194,7.398-2.77,11.399-2.748,11.693c0.035,0.525,0.38,0.973,1.056,0.926c0.546-0.039,0.959-0.509,0.925-1.057
				c-0.005-0.066-0.406-3.836,2.592-10.775c2.228-5.162,1.713-10.342,1.688-10.572L54.982,43.167z"/>
			<path fill="#052561" d="M48.504,46.582c-0.062-0.544-0.55-0.935-1.096-0.874c-0.545,0.059-0.938,0.55-0.879,1.094l0.67,6.007
				c0.004,0.047,0.482,4.873-1.54,9.564c-3.199,7.406-2.745,10.118-2.725,10.357c0.045,0.518,0.399,0.969,1.074,0.902
				c0.546-0.053,0.95-0.529,0.901-1.072c-0.004-0.056-0.435-2.449,2.568-9.402c2.229-5.163,1.715-10.34,1.69-10.564L48.504,46.582z"
				/>
		</g>
		<path fill="#052561" d="M56.159,36.47c0-2.594-2.11-4.706-4.705-4.706c-2.597,0-4.706,2.112-4.706,4.706
			c0,2.596,2.109,4.707,4.706,4.707C54.049,41.177,56.159,39.065,56.159,36.47z M48.785,36.47c0-1.471,1.197-2.668,2.669-2.668
			c1.47,0,2.667,1.197,2.667,2.668c0,1.471-1.197,2.668-2.667,2.668C49.982,39.138,48.785,37.94,48.785,36.47z"/>
	</g>
	<circle fill="none" stroke="#052561" stroke-miterlimit="10" cx="47" cy="47" r="46.5"/>
</g>
</svg>
