<?xml version="1.0" encoding="utf-8"?>
<!-- Generator: Adobe Illustrator 16.0.0, SVG Export Plug-In . SVG Version: 6.00 Build 0)  -->
<!DOCTYPE svg PUBLIC "-//W3C//DTD SVG 1.1//EN" "http://www.w3.org/Graphics/SVG/1.1/DTD/svg11.dtd">
<svg version="1.1" id="Capa_1" xmlns="http://www.w3.org/2000/svg" xmlns:xlink="http://www.w3.org/1999/xlink" x="0px" y="0px"
	 width="498.115px" height="122.159px" viewBox="0 0 498.115 122.159" enable-background="new 0 0 498.115 122.159"
	 xml:space="preserve">
<g>
	<g>
		<g>
			<path fill="#052561" d="M373.037,98.159v6.68h8.08v4.4h-8.08v7.719h7.08l0.92-3.319h3.68v8h-20.88v-3.479l3-1v-19l-3-1.201
				v-3.319l9.2-0.2h11.199v7.721h-3.72l-1-3H373.037z"/>
			<path fill="#052561" d="M400.396,118.159v3.479h-12.08v-3.479l3-1v-19l-3-1.201v-3.319l9.2-0.2h3.04c3.334,0,5.9,0.688,7.7,2.061
				s2.7,3.406,2.7,6.1c0,3.547-1.508,6.066-4.52,7.561c0.666,0.773,1.226,1.64,1.68,2.6l2.68,5.48l2.72,0.92v3.479h-7.399
				l-3.36-7.399c-0.72-1.601-1.287-2.613-1.7-3.041c-0.414-0.426-1.127-0.64-2.14-0.64h-1.4v6.601L400.396,118.159z M397.517,98.159
				v8.199h2.28c1.573,0,2.8-0.366,3.68-1.1c0.881-0.733,1.32-1.767,1.32-3.1c0-1.201-0.359-2.167-1.08-2.9s-1.693-1.1-2.92-1.1
				H397.517z"/>
			<path fill="#052561" d="M427.597,118.159v3.479h-12.08v-3.479l3-1v-19l-3-1.201v-3.319l9.2-0.2h3.039
				c3.334,0,5.9,0.688,7.701,2.061c1.799,1.373,2.699,3.406,2.699,6.1c0,3.547-1.507,6.066-4.52,7.561
				c0.666,0.773,1.227,1.64,1.68,2.6l2.68,5.48l2.721,0.92v3.479h-7.4l-3.359-7.399c-0.721-1.601-1.287-2.613-1.701-3.041
				c-0.413-0.426-1.127-0.64-2.139-0.64h-1.4v6.601L427.597,118.159z M424.717,98.159v8.199h2.279c1.574,0,2.801-0.366,3.68-1.1
				c0.881-0.733,1.32-1.767,1.32-3.1c0-1.201-0.359-2.167-1.08-2.9c-0.72-0.733-1.693-1.1-2.92-1.1H424.717z"/>
			<path fill="#052561" d="M456.516,92.958c4,0,7.101,1.248,9.301,3.74c2.199,2.494,3.3,5.98,3.3,10.461
				c0,4.506-1.233,8.133-3.7,10.879c-2.467,2.748-5.699,4.121-9.699,4.121s-7.067-1.227-9.201-3.681
				c-2.133-2.453-3.199-6.026-3.199-10.72c0-4.586,1.18-8.2,3.54-10.84C449.217,94.278,452.436,92.958,456.516,92.958z
				 M456.316,97.958c-2.08,0-3.654,0.74-4.721,2.221s-1.6,3.939-1.6,7.38c0,3.28,0.486,5.7,1.46,7.261
				c0.974,1.56,2.46,2.34,4.46,2.34c2.106,0,3.713-0.767,4.82-2.301c1.105-1.533,1.66-4.033,1.66-7.5
				c0-3.253-0.508-5.633-1.521-7.14C459.862,98.712,458.342,97.958,456.316,97.958z"/>
			<path fill="#052561" d="M484.996,118.159v3.479h-12.08v-3.479l3-1v-19l-3-1.201v-3.319l9.199-0.2h3.041
				c3.333,0,5.9,0.688,7.699,2.061c1.801,1.373,2.701,3.406,2.701,6.1c0,3.547-1.508,6.066-4.521,7.561
				c0.666,0.773,1.226,1.64,1.68,2.6l2.681,5.48l2.719,0.92v3.479h-7.399l-3.36-7.399c-0.72-1.601-1.287-2.613-1.699-3.041
				c-0.414-0.426-1.127-0.64-2.141-0.64h-1.4v6.601L484.996,118.159z M482.115,98.159v8.199h2.281c1.572,0,2.799-0.366,3.68-1.1
				c0.88-0.733,1.32-1.767,1.32-3.1c0-1.201-0.36-2.167-1.08-2.9c-0.721-0.733-1.694-1.1-2.92-1.1H482.115z"/>
		</g>
	</g>
	<g>
		<g>
			<path fill="#052561" d="M97.42,77.645v20.66H80.623v23.854H54.755V98.305H2.519L0,78.489
				C31.241,32.461,48.765,6.708,52.573,1.221l28.05,2.518v73.906H97.42z M25.196,77.645h29.896V33.302L25.196,77.645z"/>
			<path fill="#052561" d="M338.079,77.645v20.66h-16.797v23.854h-25.863V98.305h-52.241l-2.521-19.815
				C271.9,32.461,289.424,6.708,293.232,1.221l28.05,2.518v73.906H338.079z M265.853,77.645h29.901V33.302L265.853,77.645z"/>
		</g>
	</g>
	<g>
		<path fill-rule="evenodd" clip-rule="evenodd" fill="#052561" d="M190.154,80.509c3.17,4.465,4.557,11.508,5.071,16.901
			l0.138,1.445l-1.268,0.705c-7.389,4.107-15.611,6.366-24.059,6.631l-5.725,0.18l4.109-3.989
			c6.795-6.593,12.889-13.87,18.066-21.801l1.781-2.728L190.154,80.509z M156.934,104.982c-10.495-2.312-20.027-7.786-27.361-15.631
			l-2.023-2.164c18.125-9.133,37.052-15.227,56.273-11.402l-1.949,2.933c-6.41,9.645-14.242,18.236-23.016,25.78l-0.842,0.723
			L156.934,104.982z M199.428,91.98c-1.021-5.854-3.184-12.745-7.622-16.946l-1.239-1.173l0.815-1.498
			c1.21-2.224,2.341-4.489,3.403-6.786l1.027-2.223l2.111,1.241c5.762,3.39,11.695,7.782,15.955,12.997l0.981,1.202l-0.792,1.334
			c-2.933,4.943-6.658,9.388-11.004,13.147l-2.965,2.564L199.428,91.98z M198.328,57.003c0.867-2.363,1.668-4.752,2.379-7.168
			l0.582-1.981l2.019,0.44c5.044,1.098,10.457,0.994,15.54,0.188l2.446-0.389l0.116,2.475c0.041,0.85,0.064,1.699,0.064,2.55
			c0,5.927-0.993,11.8-2.939,17.397l-1.178,3.387l-2.506-2.566c-4.503-4.611-9.946-8.465-15.535-11.639l-1.637-0.927L198.328,57.003
			z M202.912,41.009c1.396-6.713,2.215-13.591,2.358-20.449l0.124-5.937l3.799,4.564c5.256,6.314,8.975,13.76,10.861,21.757
			l0.545,2.311l-2.344,0.387c-4.443,0.733-9.193,0.904-13.621-0.008l-2.176-0.449L202.912,41.009z M186.749,29.805
			c-3.796-4.706-7.567-9.273-12.05-13.358c-7.428-6.766-13.891-11.831-24.796-13.719l7.417-1.568C160.949,0.392,164.649,0,168.359,0
			c11.131,0,21.879,3.471,30.915,9.963l0.836,0.602l0.082,1.026c0.682,8.627,0.022,17.666-1.567,26.154l-0.711,3.794
			C193.734,37.927,190.229,34.123,186.749,29.805z M117.482,37.88c3.854-12.839,12.48-23.771,24.016-30.562l0.643-0.378
			c9.577-0.708,17.947,4.127,25.525,9.929c5.979,4.578,10.605,10.168,15.298,15.985c4.16,5.153,8.063,9.834,13.761,13.214
			l-0.469,1.644c-0.63,2.208-1.334,4.395-2.1,6.558l-0.809,2.276l-2.201-0.999c-21.769-9.882-47.986-13.633-71.65-14.812
			l-2.827-0.141L117.482,37.88z M123.529,81.551c-5.423-8.521-8.287-18.331-8.287-28.434c0-1.869,0.102-3.738,0.296-5.598
			l0.218-2.082l2.09,0.097c23.555,1.079,49.982,4.713,71.613,14.667l2.01,0.925l-0.918,2.011c-1.088,2.386-2.258,4.731-3.512,7.032
			l-0.822,1.508l-1.664-0.417c-18.674-4.68-41.469,2.25-58.113,11.061l-1.811,0.958L123.529,81.551z"/>
		<ellipse fill-rule="evenodd" clip-rule="evenodd" fill="#DEDEDE" cx="168.717" cy="117.159" rx="43.5" ry="5"/>
	</g>
</g>
</svg>
