<?xml version="1.0" encoding="utf-8"?>
<!-- Generator: Adobe Illustrator 16.0.0, SVG Export Plug-In . SVG Version: 6.00 Build 0)  -->
<!DOCTYPE svg PUBLIC "-//W3C//DTD SVG 1.1//EN" "http://www.w3.org/Graphics/SVG/1.1/DTD/svg11.dtd">
<svg version="1.1" id="Capa_1" xmlns="http://www.w3.org/2000/svg" xmlns:xlink="http://www.w3.org/1999/xlink" x="0px" y="0px"
	 width="94px" height="94px" viewBox="194.334 0 94 94" enable-background="new 194.334 0 94 94" xml:space="preserve">
<circle fill="none" stroke="#052561" stroke-miterlimit="10" cx="241.334" cy="47" r="46.5"/>
<g>
	<g>
		<path fill="#052561" d="M231.758,51.47c0.052,0.02,5.113,1.987,6.707,2.763c3.911,1.902,4.292,3.388,6.773,13.049
			c0.272,1.06,0.569,2.212,0.896,3.471c0.112,0.423,0.617,0.804,1.15,0.673c0.506-0.124,0.807-0.646,0.676-1.15
			c-0.328-1.255-0.623-2.404-0.895-3.462c-2.489-9.69-3.08-11.992-7.775-14.276c-1.435-0.697-5.331-2.231-6.513-2.693
			c-0.255-0.623-0.828-2.596-0.113-6.647c0.849-4.821,6.023-7.564,6.075-7.592c0.461-0.24,0.643-0.808,0.404-1.27
			c-0.239-0.463-0.81-0.645-1.271-0.405c-0.246,0.127-6.052,3.187-7.065,8.938c-1.028,5.837,0.359,8.032,0.521,8.264
			C231.434,51.283,231.584,51.401,231.758,51.47z"/>
		<path fill="#052561" d="M239.848,33.553c1.555,1.252,2.337,2.408,2.443,3.43c0.132,1.283-1.344,2.619-1.455,2.734
			c-1.882,1.947-4.726,4.889-3.698,10.094c0.09,0.449,0.357,0.847,1.107,0.742c0.71-0.099,0.844-0.596,0.742-1.106
			c-0.836-4.239,1.404-6.557,3.205-8.42c0.113-0.117,2.117-1.684,1.979-4.167c-0.088-1.596-1.132-3.156-3.142-4.775
			c-4.988-4.019-8.544-13.289-8.579-13.382c-0.185-0.487-0.729-0.732-1.216-0.548s-0.731,0.729-0.549,1.216
			C230.839,19.77,234.458,29.212,239.848,33.553z"/>
		<path fill="#052561" d="M244.455,32.724c0.063-0.028,6.412-2.794,16.539,0.628c0.1,0.034,0.897,0.322,1.195-0.592
			c0.161-0.495-0.099-1.027-0.592-1.194c-10.887-3.679-17.643-0.687-17.925-0.558c-0.473,0.217-0.68,0.772-0.465,1.246
			C243.423,32.727,243.981,32.938,244.455,32.724z"/>
		<path fill="#052561" d="M236.176,64.847l-0.462,6.045c-0.039,0.52,0.352,0.954,0.868,1.012c0.453,0.051,0.975-0.373,1.013-0.868
			l0.461-6.045c0.039-0.52-0.349-0.972-0.868-1.012C236.671,63.941,236.216,64.327,236.176,64.847z"/>
	</g>
	<path fill="#052561" d="M235.363,63.04c2.401,0,4.355-1.953,4.355-4.354c0-2.402-1.954-4.354-4.355-4.354s-4.355,1.952-4.355,4.354
		C231.008,61.087,232.962,63.04,235.363,63.04z M235.363,56.216c1.361,0,2.47,1.107,2.47,2.47c0,1.361-1.108,2.469-2.47,2.469
		c-1.362,0-2.47-1.107-2.47-2.469C232.894,57.323,234.001,56.216,235.363,56.216z"/>
</g>
</svg>
