<?xml version="1.0" encoding="utf-8"?>
<!-- Generator: Adobe Illustrator 16.0.0, SVG Export Plug-In . SVG Version: 6.00 Build 0)  -->
<!DOCTYPE svg PUBLIC "-//W3C//DTD SVG 1.1//EN" "http://www.w3.org/Graphics/SVG/1.1/DTD/svg11.dtd">
<svg version="1.1" id="Capa_1" xmlns="http://www.w3.org/2000/svg" xmlns:xlink="http://www.w3.org/1999/xlink" x="0px" y="0px"
	 width="94px" height="94px" viewBox="493.834 0 94 94" enable-background="new 493.834 0 94 94" xml:space="preserve">
<circle fill="none" stroke="#052561" stroke-miterlimit="10" cx="540.834" cy="45.81" r="46.5"/>
<g>
	<path fill="#052561" d="M542.381,39.14c2.291,0,4.154-1.862,4.154-4.152c0-2.291-1.863-4.153-4.154-4.153s-4.154,1.862-4.154,4.153
		C538.227,37.277,540.09,39.14,542.381,39.14z M542.381,32.631c1.299,0,2.355,1.058,2.355,2.356s-1.057,2.354-2.355,2.354
		c-1.297,0-2.354-1.056-2.354-2.354S541.084,32.631,542.381,32.631z"/>
	<path fill="#052561" d="M549.712,57.217c1.643-2.673,0.564-6.254,0.466-6.563l-2.137-7.396c-0.139-0.478-0.637-0.752-1.114-0.615
		c-0.478,0.139-0.752,0.638-0.614,1.115l2.141,7.406c0.004,0.009,0.006,0.019,0.009,0.027c0.009,0.031,0.963,3.067-0.285,5.089
		c-0.604,0.979-1.62,1.565-3.107,1.795c-4.047,0.627-6.777,2.225-8.111,4.747c-2.068,3.907,0.065,8.494,0.158,8.689
		c0.154,0.323,0.635,0.626,1.197,0.426c0.468-0.168,0.64-0.75,0.427-1.198c-0.019-0.04-1.845-3.956-0.194-7.075
		c1.056-1.994,3.344-3.275,6.8-3.811C547.359,59.54,548.829,58.653,549.712,57.217z"/>
	<path fill="#052561" d="M547.571,61.175c-0.245-0.433-0.795-0.583-1.225-0.337c-0.432,0.246-0.583,0.795-0.337,1.228
		c0.143,0.249,3.521,6.159,6.088,9.754c0.175,0.246,0.79,0.577,1.254,0.209c0.389-0.31,0.497-0.851,0.208-1.255
		C551.048,67.256,547.605,61.233,547.571,61.175z"/>
	<path fill="#052561" d="M537.93,43.25c0.438-0.031,0.823-0.325,0.887-0.775c0.068-0.49-0.273-0.942-0.764-1.014
		c-0.27-0.04-6.468-0.611-6.265-10.098c0.01-0.496-0.37-0.914-0.864-0.934c-0.491-0.016-0.925,0.368-0.935,0.864
		C529.788,42.519,537.366,43.29,537.93,43.25z"/>
	<path fill="#052561" d="M559.395,22.955c-2.133,0-3.896,1.586-4.191,3.639l-28.738,0.904c-0.29-2.056-2.058-3.645-4.191-3.645
		c-2.338,0-4.24,1.902-4.24,4.24c0,2.336,1.902,4.238,4.24,4.238c1.916,0,3.539-1.281,4.06-3.031l22.575-0.709
		c2.01,3.105,1.954,5.719,0.93,7.732c-2.139,4.211-9.258,5.226-9.328,5.235c-0.255,0.035-0.896,0.351-0.751,1.116l3.383,13.06
		c0.104,0.405,0.523,0.785,1.096,0.646c0.481-0.118,0.769-0.615,0.646-1.097l-3.14-12.119c2.246-0.468,7.639-1.982,9.696-6.021
		c1.246-2.445,1.044-5.343-0.593-8.613l4.485-0.142c0.518,1.757,2.142,3.043,4.062,3.043c2.338,0,4.24-1.903,4.24-4.239
		C563.635,24.856,561.732,22.955,559.395,22.955z M522.273,30.533c-1.346,0-2.441-1.096-2.441-2.439
		c0-1.347,1.096-2.442,2.441-2.442c1.345,0,2.439,1.096,2.439,2.442C524.713,29.438,523.618,30.533,522.273,30.533z M559.395,29.635
		c-1.344,0-2.439-1.094-2.439-2.441c0-1.346,1.096-2.439,2.439-2.439c1.347,0,2.441,1.094,2.441,2.439
		C561.836,28.541,560.741,29.635,559.395,29.635z"/>
</g>
</svg>
