<?xml version="1.0" encoding="utf-8"?>
<!-- Generator: Adobe Illustrator 16.0.0, SVG Export Plug-In . SVG Version: 6.00 Build 0)  -->
<!DOCTYPE svg PUBLIC "-//W3C//DTD SVG 1.1//EN" "http://www.w3.org/Graphics/SVG/1.1/DTD/svg11.dtd">
<svg version="1.1" id="Capa_1" xmlns="http://www.w3.org/2000/svg" xmlns:xlink="http://www.w3.org/1999/xlink" x="0px" y="0px"
	 width="94px" height="94px" viewBox="292.834 0 94 94" enable-background="new 292.834 0 94 94" xml:space="preserve">
<g>
	<g>
		<g>
			<g>
				<path fill="#052561" d="M347.228,28.966c-4.195,7.167-13.805,8.494-13.918,8.51c-0.288,0.035-0.544,0.197-0.701,0.441
					c-0.156,0.242-0.198,0.543-0.112,0.821l4.334,14.061c0.13,0.422,0.635,0.809,1.226,0.647c0.582-0.155,0.81-0.707,0.65-1.226
					l-4.007-13.001c11.997-2.041,16.903-11.74,15.969-15.495c-0.497-2.002-2.243-3.485-4.303-3.48
					c-2.871,0.009-4.776,2.947-4.312,5.331C342.791,29.349,346.462,29.209,347.228,28.966z M345.849,22.263
					c1.501-0.327,2.635,0.762,2.9,1.875c0.143,0.602,0.071,2.442-1.875,2.898c-0.17,0.04-2.434,0.368-2.9-1.874
					C343.699,23.844,344.532,22.551,345.849,22.263z"/>
				<path fill="#052561" d="M332.135,41.386c0.335-0.425,0.263-1.04-0.161-1.375c-0.424-0.337-1.041-0.267-1.378,0.155
					c-0.037,0.046-3.694,4.538-9.935,4.538c-0.543,0-0.982,0.439-0.982,0.981s0.439,0.98,0.982,0.98
					C327.878,46.666,331.964,41.602,332.135,41.386z"/>
				<path fill="#052561" d="M343.948,45.703l-1.402-5.048c-0.146-0.521-0.684-0.829-1.209-0.683
					c-0.522,0.145-0.827,0.685-0.683,1.208l1.401,5.042c0.068,0.256,1.605,6.288-4.686,8.346c-3.592,1.174-6.115,3.2-7.495,6.021
					c-2.362,4.817-0.497,10.16-0.416,10.387c0.144,0.399,0.619,0.837,1.253,0.592c0.506-0.195,0.775-0.742,0.594-1.252
					c-0.015-0.048-1.662-4.812,0.338-8.876c1.143-2.322,3.273-4.006,6.336-5.007C344.45,54.318,344.715,48.491,343.948,45.703z"/>
				<path fill="#052561" d="M352.629,70.528c-9.239-4.975-12.038-12.658-12.065-12.734c-0.18-0.512-0.738-0.78-1.25-0.602
					c-0.512,0.178-0.781,0.738-0.603,1.248c0.119,0.344,3.045,8.463,12.987,13.817c0.148,0.078,0.956,0.28,1.329-0.399
					C353.289,71.382,353.107,70.786,352.629,70.528z"/>
			</g>
			<path fill="#052561" d="M340.022,30.477c0-2.567-2.09-4.656-4.656-4.656c-2.568,0-4.656,2.089-4.656,4.656
				c0,2.568,2.088,4.656,4.656,4.656C337.933,35.133,340.022,33.045,340.022,30.477z M332.725,30.477c0-1.456,1.187-2.64,2.642-2.64
				s2.639,1.184,2.639,2.64c0,1.457-1.184,2.641-2.639,2.641S332.725,31.934,332.725,30.477z"/>
		</g>
	</g>
	<circle fill="none" stroke="#052561" stroke-miterlimit="10" cx="339.834" cy="47" r="46.5"/>
</g>
</svg>
