<?xml version="1.0" encoding="utf-8"?>
<!-- Generator: Adobe Illustrator 16.0.0, SVG Export Plug-In . SVG Version: 6.00 Build 0)  -->
<!DOCTYPE svg PUBLIC "-//W3C//DTD SVG 1.1//EN" "http://www.w3.org/Graphics/SVG/1.1/DTD/svg11.dtd">
<svg version="1.1" id="Capa_1" xmlns="http://www.w3.org/2000/svg" xmlns:xlink="http://www.w3.org/1999/xlink" x="0px" y="0px"
	 width="94px" height="94px" viewBox="0 0 94 94" enable-background="new 0 0 94 94" xml:space="preserve">
<g>
	<g>
		<path fill="#052561" d="M16.294,69.394c-0.35-0.479-0.221-1.156,0.266-1.496c2.408-1.687,8.926-9.753,11.234-12.72
			c0.365-0.47,1.039-0.553,1.508-0.188s0.553,1.04,0.189,1.508c-0.348,0.445-8.535,10.946-11.701,13.16
			C17.604,69.789,16.778,70.058,16.294,69.394z"/>
		<path fill="#052561" d="M38.79,70.019c-0.58-0.132-0.914-0.743-0.76-1.317c2.453-9.065-4.99-12.818-5.307-12.974
			c-2.98-1.548-4.664-3.665-5.029-6.309c-0.877-6.355,6.447-13.307,6.76-13.6c0.434-0.406,1.113-0.384,1.52,0.049
			c0.404,0.432,0.383,1.112-0.049,1.517c-0.068,0.066-6.83,6.489-6.102,11.743c0.27,1.938,1.533,3.47,3.865,4.682
			c0.07,0.034,9.326,4.695,6.418,15.453C39.976,69.741,39.517,70.185,38.79,70.019z"/>
		<path fill="#052561" d="M64.702,39.015c-0.494-0.327-0.553-1.039-0.189-1.508c0.348-0.446,8.535-10.945,11.699-13.161
			c0.486-0.34,1.158-0.223,1.498,0.264s0.221,1.155-0.266,1.497c-2.408,1.685-8.926,9.754-11.234,12.72
			C65.997,39.1,65.425,39.492,64.702,39.015z"/>
		<path fill="#052561" d="M58.03,58.135c-0.439-0.396-0.383-1.111,0.049-1.517c0.068-0.064,6.828-6.487,6.102-11.743
			c-0.27-1.938-1.533-3.469-3.865-4.681c-0.07-0.034-9.326-4.696-6.418-15.454c0.156-0.572,0.744-0.91,1.318-0.757
			c0.572,0.155,0.91,0.745,0.756,1.318c-2.451,9.065,4.99,12.818,5.309,12.974c2.98,1.548,4.664,3.667,5.029,6.31
			c0.877,6.354-6.449,13.307-6.76,13.6C59.341,58.379,58.712,58.752,58.03,58.135z"/>
		<path fill="#052561" d="M52.954,54.252c-0.395-0.037-0.711-0.353-0.832-0.73c-0.004-0.013-0.895-2.474-5.148-5.247l-1.125-0.752
			c-2.785-1.815-4.326-3.565-5.148-4.773l-5.74,7.307c-0.367,0.465-1.041,0.548-1.51,0.18c-0.465-0.366-0.547-1.041-0.18-1.508
			l6.744-8.582c0.244-0.312,0.643-0.463,1.035-0.394c0.391,0.07,0.711,0.351,0.832,0.73c0.004,0.012,0.895,2.473,5.148,5.248
			l1.125,0.751c2.785,1.814,4.326,3.565,5.148,4.772l5.74-7.305c0.367-0.467,1.043-0.548,1.51-0.183
			c0.465,0.367,0.545,1.043,0.18,1.509l-6.744,8.582C53.784,54.12,53.495,54.302,52.954,54.252z"/>
	</g>
	<path fill="#052561" d="M52.104,65.731c2.807,0,5.09-2.283,5.09-5.091c0-2.807-2.283-5.089-5.09-5.089s-5.09,2.282-5.09,5.089
		C47.015,63.448,49.298,65.731,52.104,65.731z M52.104,57.755c1.592,0,2.887,1.296,2.887,2.886c0,1.593-1.295,2.886-2.887,2.886
		s-2.887-1.293-2.887-2.886C49.218,59.051,50.513,57.755,52.104,57.755z"/>
	<path fill="#052561" d="M41.899,38.414c2.807,0,5.09-2.282,5.09-5.089s-2.283-5.091-5.09-5.091s-5.09,2.284-5.09,5.091
		S39.093,38.414,41.899,38.414z M41.899,30.438c1.592,0,2.887,1.295,2.887,2.887c0,1.591-1.295,2.885-2.887,2.885
		s-2.887-1.294-2.887-2.885C39.013,31.733,40.308,30.438,41.899,30.438z"/>
</g>
<circle fill="none" stroke="#052561" stroke-miterlimit="10" cx="47" cy="47" r="46.5"/>
</svg>
