<?xml version="1.0" encoding="utf-8"?>
<!-- Generator: Adobe Illustrator 16.0.0, SVG Export Plug-In . SVG Version: 6.00 Build 0)  -->
<!DOCTYPE svg PUBLIC "-//W3C//DTD SVG 1.1//EN" "http://www.w3.org/Graphics/SVG/1.1/DTD/svg11.dtd">
<svg version="1.1" id="Capa_1" xmlns="http://www.w3.org/2000/svg" xmlns:xlink="http://www.w3.org/1999/xlink" x="0px" y="0px"
	 width="94px" height="94px" viewBox="392.834 0 94 94" enable-background="new 392.834 0 94 94" xml:space="preserve">
<g>
	<circle fill="none" stroke="#052561" stroke-miterlimit="10" cx="439.834" cy="47" r="46.5"/>
	<g>
		<path fill="#052561" d="M467.577,65.554c-3.037-2.124-7.527-9.544-7.718-9.858c-0.288-0.479-0.134-1.102,0.346-1.392
			c0.479-0.288,1.102-0.134,1.391,0.346c1.23,2.044,4.914,7.686,7.144,9.245c0.458,0.321,0.58,0.961,0.249,1.411
			C468.5,65.966,467.753,65.678,467.577,65.554z"/>
		<path fill="#052561" d="M445.29,33.896h-10.133c-0.559,0-1.013-0.453-1.013-1.012c0-0.56,0.454-1.014,1.013-1.014h10.133
			c0.56,0,1.013,0.454,1.013,1.014C446.303,33.442,445.85,33.896,445.29,33.896z"/>
		<path fill="#052561" d="M450.692,66.221c-0.485,0-0.914-0.351-0.998-0.846c-1.411-8.365,5.691-11.848,6.3-12.128
			c2.865-1.436,4.581-3.152,5.099-5.103c0.578-2.172-0.624-4.064-0.643-4.104l-4.053-8.249c-0.247-0.502-0.04-1.109,0.462-1.356
			s1.109-0.04,1.355,0.463l4.029,8.201c0.263,0.424,1.562,2.727,0.808,5.565c-0.675,2.54-2.749,4.694-6.165,6.401
			c-0.018,0.009-0.034,0.017-0.053,0.024c-0.257,0.112-6.34,2.849-5.141,9.948C451.786,65.59,451.529,66.171,450.692,66.221z"/>
		<path fill="#052561" d="M411.654,65.306c-0.286-0.481-0.21-1.09,0.249-1.411c2.229-1.56,5.911-7.201,7.142-9.245
			c0.29-0.479,0.912-0.634,1.392-0.346c0.479,0.29,0.633,0.913,0.344,1.392c-0.188,0.314-4.68,7.734-7.715,9.858
			C412.889,65.678,412.054,65.979,411.654,65.306z"/>
		<path fill="#052561" d="M455.522,49.816l-4.649-9.82c-1.511,0.854-4.686,2.149-10.188,2.294h-0.703
			c-5.521-0.144-8.701-1.44-10.215-2.295l-4.649,9.821c-0.238,0.505-0.843,0.723-1.349,0.481c-0.506-0.238-0.722-0.843-0.482-1.35
			l5.15-10.879c0.139-0.29,0.405-0.499,0.721-0.562c0.314-0.062,0.642,0.029,0.88,0.247c0.018,0.017,2.726,2.319,9.972,2.51h0.649
			c7.218-0.19,9.925-2.493,9.952-2.517c0.239-0.211,0.566-0.298,0.878-0.234c0.312,0.065,0.577,0.268,0.714,0.556l5.151,10.879
			c0.238,0.507,0.022,1.112-0.482,1.35C456.282,50.576,455.695,50.182,455.522,49.816z"/>
		<path fill="#052561" d="M429.949,66.221c-0.056,0-1.167-0.158-1-1.183c1.153-7.106-5.18-9.965-5.195-9.973
			c-3.416-1.707-5.49-3.861-6.164-6.401c-0.755-2.839,0.545-5.142,0.807-5.565l4.028-8.201c0.247-0.502,0.854-0.71,1.356-0.463
			s0.71,0.854,0.463,1.356l-4.053,8.249c-0.02,0.04-0.042,0.078-0.066,0.115c-0.009,0.014-1.165,1.828-0.569,4.016
			c0.526,1.941,2.24,3.647,5.091,5.076c0.609,0.28,7.711,3.763,6.301,12.128C430.863,65.87,430.435,66.221,429.949,66.221z"/>
		<path fill="#052561" d="M451.956,36.027c2.646,0,4.8-2.153,4.8-4.801c0-2.646-2.153-4.8-4.8-4.8c-2.647,0-4.802,2.153-4.802,4.8
			C447.154,33.874,449.309,36.027,451.956,36.027z M451.956,28.506c1.5,0,2.722,1.22,2.722,2.721c0,1.502-1.222,2.722-2.722,2.722
			c-1.501,0-2.723-1.22-2.723-2.722C449.233,29.726,450.455,28.506,451.956,28.506z"/>
		<path fill="#052561" d="M428.654,36.027c2.646,0,4.8-2.153,4.8-4.801c0-2.646-2.153-4.8-4.8-4.8c-2.647,0-4.801,2.153-4.801,4.8
			C423.854,33.874,426.007,36.027,428.654,36.027z M428.654,28.506c1.501,0,2.721,1.22,2.721,2.721c0,1.502-1.22,2.722-2.721,2.722
			c-1.503,0-2.723-1.22-2.723-2.722C425.932,29.726,427.151,28.506,428.654,28.506z"/>
	</g>
</g>
</svg>
