<?xml version="1.0" encoding="utf-8"?>
<!-- Generator: Adobe Illustrator 16.0.0, SVG Export Plug-In . SVG Version: 6.00 Build 0)  -->
<!DOCTYPE svg PUBLIC "-//W3C//DTD SVG 1.1//EN" "http://www.w3.org/Graphics/SVG/1.1/DTD/svg11.dtd">
<svg version="1.1" id="Capa_1" xmlns="http://www.w3.org/2000/svg" xmlns:xlink="http://www.w3.org/1999/xlink" x="0px" y="0px"
	 width="94px" height="94px" viewBox="696.834 0 94 94" enable-background="new 696.834 0 94 94" xml:space="preserve">
<g>
	<g>
		<path fill="#052561" d="M715.363,67.764c-0.324-0.444-0.204-1.072,0.245-1.388c2.233-1.563,8.277-9.043,10.418-11.794
			c0.338-0.436,0.963-0.512,1.397-0.174c0.435,0.337,0.513,0.964,0.176,1.397c-0.323,0.413-7.913,10.149-10.849,12.202
			C716.578,68.13,715.812,68.379,715.363,67.764z"/>
		<path fill="#052561" d="M736.222,68.343c-0.538-0.122-0.848-0.688-0.704-1.222c2.273-8.405-4.627-11.885-4.921-12.029
			c-2.763-1.435-4.325-3.397-4.662-5.849c-0.813-5.894,5.978-12.338,6.268-12.611c0.4-0.376,1.032-0.355,1.408,0.046
			c0.375,0.4,0.355,1.031-0.046,1.406c-0.062,0.062-6.332,6.017-5.656,10.888c0.25,1.798,1.421,3.218,3.584,4.342
			c0.065,0.031,8.647,4.354,5.95,14.328C737.321,68.086,736.895,68.497,736.222,68.343z"/>
		<path fill="#052561" d="M760.248,39.595c-0.459-0.303-0.513-0.963-0.176-1.397c0.322-0.414,7.914-10.149,10.848-12.203
			c0.451-0.315,1.073-0.207,1.388,0.244c0.316,0.451,0.206,1.071-0.245,1.388c-2.232,1.562-8.276,9.044-10.417,11.794
			C761.448,39.674,760.918,40.039,760.248,39.595z"/>
		<path fill="#052561" d="M754.062,57.324c-0.407-0.367-0.355-1.03,0.046-1.406c0.063-0.06,6.33-6.015,5.657-10.889
			c-0.251-1.796-1.422-3.216-3.585-4.34c-0.065-0.031-8.646-4.354-5.95-14.329c0.145-0.53,0.69-0.844,1.223-0.701
			c0.531,0.144,0.844,0.69,0.701,1.222c-2.273,8.406,4.627,11.886,4.922,12.029c2.764,1.436,4.324,3.4,4.662,5.851
			c0.813,5.892-5.979,12.338-6.268,12.61C755.277,57.551,754.692,57.896,754.062,57.324z"/>
		<path fill="#052561" d="M749.355,53.725c-0.367-0.035-0.66-0.327-0.771-0.678c-0.005-0.012-0.831-2.294-4.774-4.865l-1.043-0.698
			c-2.583-1.684-4.011-3.306-4.773-4.426l-5.322,6.775c-0.341,0.432-0.967,0.509-1.4,0.167c-0.432-0.34-0.507-0.965-0.166-1.398
			l6.252-7.958c0.228-0.29,0.597-0.43,0.96-0.365c0.362,0.065,0.66,0.325,0.772,0.678c0.004,0.011,0.829,2.293,4.773,4.866
			l1.043,0.696c2.583,1.682,4.011,3.306,4.774,4.425l5.322-6.773c0.339-0.434,0.966-0.509,1.398-0.17
			c0.433,0.341,0.507,0.967,0.167,1.398l-6.252,7.958C750.125,53.602,749.856,53.771,749.355,53.725z"/>
	</g>
	<path fill="#052561" d="M748.567,64.368c2.602,0,4.719-2.117,4.719-4.721c0-2.603-2.117-4.718-4.719-4.718
		c-2.603,0-4.721,2.115-4.721,4.718C743.847,62.251,745.965,64.368,748.567,64.368z M748.567,56.972
		c1.475,0,2.677,1.202,2.677,2.676c0,1.478-1.202,2.676-2.677,2.676c-1.476,0-2.677-1.198-2.677-2.676
		C745.891,58.174,747.092,56.972,748.567,56.972z"/>
	<path fill="#052561" d="M739.105,39.039c2.601,0,4.719-2.116,4.719-4.719c0-2.602-2.118-4.72-4.719-4.72
		c-2.603,0-4.721,2.118-4.721,4.72C734.385,36.922,736.503,39.039,739.105,39.039z M739.105,31.644c1.475,0,2.675,1.2,2.675,2.676
		s-1.2,2.675-2.675,2.675c-1.477,0-2.677-1.199-2.677-2.675S737.629,31.644,739.105,31.644z"/>
</g>
<circle fill="none" stroke="#052561" stroke-miterlimit="10" cx="743.834" cy="47" r="46.5"/>
</svg>
