<?xml version="1.0" encoding="utf-8"?>
<!-- Generator: Adobe Illustrator 16.0.0, SVG Export Plug-In . SVG Version: 6.00 Build 0)  -->
<!DOCTYPE svg PUBLIC "-//W3C//DTD SVG 1.1//EN" "http://www.w3.org/Graphics/SVG/1.1/DTD/svg11.dtd">
<svg version="1.1" id="Capa_1" xmlns="http://www.w3.org/2000/svg" xmlns:xlink="http://www.w3.org/1999/xlink" x="0px" y="0px"
	 width="144.429px" height="91.29px" viewBox="0 0 144.429 91.29" enable-background="new 0 0 144.429 91.29" xml:space="preserve">
<g>
	<g>
		<g>
			<path fill-rule="evenodd" clip-rule="evenodd" fill="#FFFFFF" d="M121.44,24.346c-1.986,0.974-3.904,1.916-5.826,2.857
				c-13.867,6.797-27.736,13.593-41.6,20.401c-0.373,0.182-0.654,0.184-1.027,0.001C57.269,39.95,41.546,32.305,25.823,24.658
				c-0.191-0.093-0.383-0.187-0.637-0.312c0.186-0.099,0.316-0.171,0.449-0.238c15.98-7.996,31.961-15.99,47.938-23.995
				c0.32-0.161,0.557-0.145,0.865,0.014c15.518,7.999,31.039,15.99,46.561,23.981C121.124,24.174,121.249,24.243,121.44,24.346z
				 M29.206,24.333c0.205,0.105,0.33,0.172,0.457,0.234c14.422,7.062,28.846,14.122,43.262,21.195
				c0.418,0.204,0.727,0.202,1.141-0.002c13.576-6.716,27.158-13.418,40.74-20.122c0.852-0.42,1.703-0.844,2.604-1.291
				c-0.215-0.119-0.375-0.21-0.537-0.295C102.692,16.66,88.513,9.27,74.339,1.869c-0.293-0.153-0.506-0.131-0.783,0.01
				C60.21,8.641,46.86,15.396,33.511,22.153C32.101,22.867,30.69,23.582,29.206,24.333z"/>
			<path fill-rule="evenodd" clip-rule="evenodd" fill="#FFFFFF" d="M114.181,24.343c-0.949,0.47-1.84,0.912-2.73,1.354
				C98.925,31.899,86.397,38.101,73.876,44.31c-0.27,0.134-0.48,0.141-0.754,0.006C59.726,37.72,46.325,31.133,32.925,24.543
				c-0.115-0.056-0.225-0.12-0.385-0.206c0.424-0.218,0.811-0.419,1.199-0.615C46.995,17.065,60.253,10.41,73.505,3.745
				c0.316-0.16,0.553-0.15,0.861,0.011c13.113,6.784,26.229,13.56,39.346,20.337C113.849,24.164,113.985,24.238,114.181,24.343z
				 M45.017,24.336c0.273,0.144,0.486,0.26,0.701,0.369c9.133,4.599,18.266,9.195,27.393,13.802
				c0.293,0.147,0.512,0.126,0.789-0.012c9.391-4.657,18.783-9.306,28.176-13.958c0.107-0.053,0.205-0.121,0.346-0.204
				c-0.17-0.092-0.293-0.162-0.418-0.227c-9.234-4.745-18.471-9.488-27.699-14.242c-0.299-0.153-0.514-0.113-0.789,0.026
				c-7.781,3.95-15.568,7.892-23.354,11.836C48.47,22.584,46.78,23.442,45.017,24.336z"/>
			<path fill-rule="evenodd" clip-rule="evenodd" fill="#FFFFFF" d="M74.823,35.714c0-7.61,0-15.153,0-22.777
				c6.068,3.09,12.086,6.153,18.188,9.259c-0.166,0.026-0.248,0.05-0.33,0.052c-2.283,0.026-4.568,0.057-6.854,0.064
				c-0.27,0.001-0.564-0.078-0.803-0.203c-2.047-1.072-4.084-2.163-6.125-3.248c-0.123-0.065-0.25-0.125-0.451-0.226
				c0,1.278,0,2.495,0,3.8c1.135,0,2.311,0,3.541,0c0,1.419,0,2.751,0,4.116c-1.203,0-2.422,0-3.666,0c0,1.225,0,2.419,0,3.671
				c0.166-0.07,0.318-0.129,0.465-0.199c2.115-0.998,4.232-1.99,6.342-3.002c0.408-0.196,0.809-0.296,1.268-0.288
				c1.842,0.032,3.684,0.031,5.525,0.041c0.191,0.001,0.385,0,0.592,0.094C86.632,29.81,80.749,32.751,74.823,35.714z"/>
			<path fill-rule="evenodd" clip-rule="evenodd" fill="#FFFFFF" d="M58.644,24.345c1.697,0.864,3.336,1.698,4.975,2.53
				c2.506,1.272,5.008,2.547,7.518,3.811c0.262,0.132,0.375,0.278,0.367,0.585c-0.025,1.013-0.016,2.027-0.021,3.041
				c-0.002,0.183-0.02,0.365-0.033,0.613c-7.215-3.534-14.381-7.043-21.609-10.583c7.252-3.582,14.445-7.134,21.705-10.719
				c0.01,0.19,0.023,0.325,0.023,0.458c-0.008,1.199-0.029,2.398-0.02,3.598c0.004,0.302-0.1,0.446-0.367,0.576
				c-4.031,1.947-8.059,3.906-12.084,5.863C58.968,24.178,58.843,24.244,58.644,24.345z"/>
		</g>
	</g>
	<g>
		<path fill="#FFFFFF" d="M5.091,64.081c-0.865,0-1.536,0.325-2.011,0.976c-0.475,0.65-0.712,1.557-0.712,2.72
			c0,2.419,0.908,3.629,2.723,3.629c0.762,0,1.686-0.19,2.77-0.571v1.93c-0.891,0.371-1.886,0.557-2.984,0.557
			c-1.578,0-2.786-0.479-3.622-1.436C0.418,70.928,0,69.554,0,67.762c0-1.128,0.205-2.116,0.616-2.965s1.001-1.5,1.771-1.952
			c0.769-0.453,1.671-0.679,2.705-0.679c1.055,0,2.113,0.255,3.178,0.765l-0.742,1.87c-0.406-0.193-0.814-0.361-1.225-0.504
			C5.89,64.153,5.487,64.081,5.091,64.081z"/>
		<path fill="#FFFFFF" d="M10.168,73.173V62.322h2.301v8.951h4.401v1.9H10.168z"/>
		<path fill="#FFFFFF" d="M27.587,62.322v7.021c0,0.801-0.18,1.504-0.538,2.108c-0.358,0.604-0.877,1.066-1.556,1.388
			c-0.678,0.322-1.479,0.482-2.404,0.482c-1.395,0-2.479-0.357-3.25-1.072c-0.772-0.715-1.158-1.693-1.158-2.936v-6.991h2.293v6.643
			c0,0.836,0.168,1.45,0.505,1.84c0.337,0.391,0.894,0.586,1.67,0.586c0.752,0,1.298-0.197,1.637-0.59
			c0.339-0.394,0.509-1.011,0.509-1.852v-6.627H27.587z"/>
		<path fill="#FFFFFF" d="M30.244,62.322h3.377c1.538,0,2.655,0.219,3.351,0.657s1.043,1.134,1.043,2.089
			c0,0.648-0.152,1.18-0.457,1.596c-0.304,0.416-0.708,0.666-1.213,0.75v0.074c0.688,0.153,1.184,0.44,1.488,0.861
			s0.457,0.979,0.457,1.677c0,0.99-0.358,1.762-1.073,2.316s-1.687,0.831-2.913,0.831h-4.06V62.322z M32.545,66.619h1.336
			c0.624,0,1.075-0.096,1.354-0.289c0.279-0.193,0.42-0.512,0.42-0.958c0-0.416-0.152-0.714-0.457-0.895s-0.785-0.271-1.443-0.271
			h-1.21V66.619z M32.545,68.445v2.828h1.499c0.633,0,1.102-0.121,1.402-0.364c0.303-0.242,0.453-0.613,0.453-1.113
			c0-0.9-0.643-1.351-1.93-1.351H32.545z"/>
		<path fill="#FFFFFF" d="M50.653,73.173h-6.248V62.322h6.248v1.885h-3.947v2.383h3.674v1.885h-3.674v2.798h3.947V73.173z"/>
		<path fill="#FFFFFF" d="M59.322,70.16c0,0.979-0.353,1.751-1.058,2.315s-1.686,0.846-2.942,0.846
			c-1.158,0-2.183-0.218-3.073-0.653v-2.137c0.732,0.327,1.353,0.557,1.859,0.69c0.508,0.134,0.971,0.201,1.392,0.201
			c0.505,0,0.892-0.097,1.161-0.29s0.405-0.48,0.405-0.861c0-0.213-0.06-0.402-0.179-0.568c-0.118-0.166-0.293-0.325-0.523-0.479
			c-0.229-0.153-0.698-0.398-1.406-0.735c-0.662-0.312-1.16-0.611-1.491-0.898c-0.331-0.287-0.597-0.621-0.794-1.002
			c-0.198-0.381-0.297-0.827-0.297-1.336c0-0.96,0.324-1.715,0.976-2.264c0.65-0.549,1.55-0.824,2.698-0.824
			c0.563,0,1.102,0.067,1.613,0.201c0.513,0.133,1.049,0.322,1.607,0.564l-0.742,1.789c-0.579-0.237-1.058-0.403-1.436-0.497
			c-0.379-0.094-0.752-0.141-1.117-0.141c-0.436,0-0.77,0.102-1.002,0.304c-0.232,0.203-0.35,0.468-0.35,0.794
			c0,0.203,0.047,0.379,0.142,0.53c0.094,0.151,0.243,0.297,0.448,0.438c0.206,0.141,0.691,0.395,1.459,0.761
			c1.014,0.485,1.709,0.971,2.086,1.458C59.134,68.854,59.322,69.452,59.322,70.16z"/>
		<path fill="#FFFFFF" d="M65.476,73.173h-2.301v-8.936h-2.947v-1.915h8.194v1.915h-2.946V73.173z"/>
		<path fill="#FFFFFF" d="M78.924,62.322v7.021c0,0.801-0.18,1.504-0.538,2.108c-0.359,0.604-0.877,1.066-1.555,1.388
			s-1.48,0.482-2.404,0.482c-1.396,0-2.479-0.357-3.252-1.072c-0.771-0.715-1.157-1.693-1.157-2.936v-6.991h2.294v6.643
			c0,0.836,0.168,1.45,0.504,1.84c0.336,0.391,0.893,0.586,1.67,0.586c0.752,0,1.298-0.197,1.637-0.59
			c0.339-0.394,0.508-1.011,0.508-1.852v-6.627H78.924z"/>
		<path fill="#FFFFFF" d="M90.583,67.644c0,1.786-0.508,3.154-1.524,4.104c-1.017,0.95-2.485,1.425-4.405,1.425h-3.072V62.322h3.406
			c1.771,0,3.146,0.467,4.127,1.402C90.094,64.66,90.583,65.966,90.583,67.644z M88.194,67.703c0-2.331-1.029-3.496-3.088-3.496
			h-1.225v7.066h0.986C87.085,71.273,88.194,70.083,88.194,67.703z"/>
		<path fill="#FFFFFF" d="M92.833,73.173V62.322h2.301v10.851H92.833z"/>
		<path fill="#FFFFFF" d="M104.507,73.173l-0.786-2.583h-3.956l-0.787,2.583h-2.479l3.83-10.896h2.812l3.845,10.896H104.507z
			 M103.171,68.66c-0.727-2.34-1.137-3.664-1.229-3.971c-0.091-0.307-0.156-0.549-0.196-0.727c-0.163,0.633-0.631,2.199-1.402,4.698
			H103.171z"/>
		<path fill="#FFFFFF" d="M117.978,73.173h-2.924l-4.721-8.208h-0.066c0.094,1.45,0.141,2.484,0.141,3.102v5.106h-2.055V62.322
			h2.901l4.713,8.127h0.052c-0.074-1.41-0.111-2.407-0.111-2.991v-5.136h2.07V73.173z"/>
		<path fill="#FFFFFF" d="M124.896,73.173h-2.301v-8.936h-2.947v-1.915h8.194v1.915h-2.946V73.173z"/>
		<path fill="#FFFFFF" d="M135.761,73.173h-6.249V62.322h6.249v1.885h-3.948v2.383h3.674v1.885h-3.674v2.798h3.948V73.173z"/>
		<path fill="#FFFFFF" d="M144.429,70.16c0,0.979-0.352,1.751-1.057,2.315s-1.687,0.846-2.943,0.846
			c-1.158,0-2.182-0.218-3.072-0.653v-2.137c0.732,0.327,1.352,0.557,1.859,0.69c0.507,0.134,0.971,0.201,1.391,0.201
			c0.506,0,0.893-0.097,1.162-0.29s0.404-0.48,0.404-0.861c0-0.213-0.059-0.402-0.178-0.568c-0.119-0.166-0.293-0.325-0.523-0.479
			s-0.699-0.398-1.406-0.735c-0.663-0.312-1.16-0.611-1.492-0.898c-0.331-0.287-0.596-0.621-0.794-1.002
			c-0.198-0.381-0.297-0.827-0.297-1.336c0-0.96,0.325-1.715,0.976-2.264c0.65-0.549,1.551-0.824,2.698-0.824
			c0.563,0,1.103,0.067,1.614,0.201c0.512,0.133,1.048,0.322,1.607,0.564l-0.742,1.789c-0.58-0.237-1.059-0.403-1.437-0.497
			c-0.378-0.094-0.751-0.141-1.117-0.141c-0.436,0-0.77,0.102-1.002,0.304c-0.232,0.203-0.349,0.468-0.349,0.794
			c0,0.203,0.047,0.379,0.141,0.53c0.094,0.151,0.244,0.297,0.449,0.438s0.691,0.395,1.459,0.761
			c1.014,0.485,1.709,0.971,2.085,1.458S144.429,69.452,144.429,70.16z"/>
		<path fill="#FFFFFF" d="M26.052,86.808c0,1.41-0.402,2.49-1.205,3.24s-1.961,1.125-3.477,1.125h-2.426v-8.566h2.689
			c1.398,0,2.484,0.369,3.258,1.107S26.052,85.483,26.052,86.808z M24.165,86.854c0-1.84-0.812-2.76-2.438-2.76h-0.967v5.578h0.779
			C23.29,89.673,24.165,88.733,24.165,86.854z"/>
		<path fill="#FFFFFF" d="M32.761,91.173h-4.934v-8.566h4.934v1.488h-3.117v1.881h2.9v1.488h-2.9v2.209h3.117V91.173z"/>
		<path fill="#FFFFFF" d="M37.665,82.606h2.666c1.215,0,2.096,0.173,2.645,0.519s0.824,0.896,0.824,1.649
			c0,0.512-0.121,0.932-0.361,1.26s-0.559,0.525-0.957,0.592v0.059c0.543,0.121,0.934,0.348,1.174,0.68s0.361,0.773,0.361,1.324
			c0,0.781-0.283,1.391-0.848,1.828s-1.33,0.656-2.299,0.656h-3.205V82.606z M39.481,85.999h1.055c0.492,0,0.848-0.076,1.068-0.229
			s0.332-0.404,0.332-0.756c0-0.328-0.121-0.563-0.361-0.706s-0.619-0.214-1.139-0.214h-0.955V85.999z M39.481,87.44v2.232h1.184
			c0.5,0,0.869-0.096,1.107-0.287s0.357-0.484,0.357-0.879c0-0.711-0.508-1.066-1.523-1.066H39.481z"/>
		<path fill="#FFFFFF" d="M50.972,91.173l-0.621-2.039h-3.123l-0.621,2.039h-1.957l3.023-8.602h2.221l3.035,8.602H50.972z
			 M49.917,87.61c-0.574-1.848-0.898-2.893-0.971-3.135s-0.123-0.434-0.154-0.574c-0.129,0.5-0.498,1.736-1.107,3.709H49.917z"/>
		<path fill="#FFFFFF" d="M61.026,91.173h-1.811v-3.697h-3.393v3.697h-1.816v-8.566h1.816v3.357h3.393v-3.357h1.811V91.173z"/>
		<path fill="#FFFFFF" d="M63.089,81.921v-0.158c0.672-0.781,1.131-1.369,1.377-1.764h2.004v0.123
			c-0.203,0.203-0.551,0.505-1.041,0.905s-0.873,0.698-1.15,0.894H63.089z M63.188,91.173v-8.566h1.816v8.566H63.188z"/>
		<path fill="#FFFFFF" d="M72.405,91.173l-0.621-2.039h-3.123l-0.621,2.039h-1.957l3.023-8.602h2.221l3.035,8.602H72.405z
			 M71.351,87.61c-0.574-1.848-0.898-2.893-0.971-3.135s-0.123-0.434-0.154-0.574c-0.129,0.5-0.498,1.736-1.107,3.709H71.351z"/>
		<path fill="#FFFFFF" d="M78.558,82.606h2.666c1.215,0,2.096,0.173,2.645,0.519s0.824,0.896,0.824,1.649
			c0,0.512-0.121,0.932-0.361,1.26s-0.559,0.525-0.957,0.592v0.059c0.543,0.121,0.934,0.348,1.174,0.68s0.361,0.773,0.361,1.324
			c0,0.781-0.283,1.391-0.848,1.828s-1.33,0.656-2.299,0.656h-3.205V82.606z M80.374,85.999h1.055c0.492,0,0.848-0.076,1.068-0.229
			s0.332-0.404,0.332-0.756c0-0.328-0.121-0.563-0.361-0.706s-0.619-0.214-1.139-0.214h-0.955V85.999z M80.374,87.44v2.232h1.184
			c0.5,0,0.869-0.096,1.107-0.287s0.357-0.484,0.357-0.879c0-0.711-0.508-1.066-1.523-1.066H80.374z"/>
		<path fill="#FFFFFF" d="M86.62,91.173v-8.566h1.816v7.066h3.475v1.5H86.62z"/>
		<path fill="#FFFFFF" d="M98.644,91.173l-0.621-2.039h-3.123l-0.621,2.039h-1.957l3.023-8.602h2.221l3.035,8.602H98.644z
			 M97.589,87.61c-0.574-1.848-0.898-2.893-0.971-3.135s-0.123-0.434-0.154-0.574c-0.129,0.5-0.498,1.736-1.107,3.709H97.589z"/>
		<path fill="#FFFFFF" d="M109.278,91.173h-2.309l-3.727-6.48h-0.053c0.074,1.145,0.111,1.961,0.111,2.449v4.031h-1.623v-8.566
			h2.291l3.721,6.416h0.041c-0.059-1.113-0.088-1.9-0.088-2.361v-4.055h1.635V91.173z"/>
		<path fill="#FFFFFF" d="M115.073,83.995c-0.684,0-1.213,0.257-1.588,0.771s-0.562,1.229-0.562,2.147
			c0,1.91,0.717,2.865,2.15,2.865c0.602,0,1.33-0.15,2.186-0.451v1.523c-0.703,0.293-1.488,0.439-2.355,0.439
			c-1.246,0-2.199-0.378-2.859-1.134s-0.99-1.841-0.99-3.255c0-0.891,0.162-1.671,0.486-2.341s0.789-1.184,1.396-1.541
			s1.32-0.536,2.137-0.536c0.832,0,1.668,0.201,2.508,0.604l-0.586,1.477c-0.32-0.152-0.643-0.285-0.967-0.398
			S115.386,83.995,115.073,83.995z"/>
		<path fill="#FFFFFF" d="M124.325,91.173l-0.621-2.039h-3.123l-0.621,2.039h-1.957l3.023-8.602h2.221l3.035,8.602H124.325z
			 M123.271,87.61c-0.574-1.848-0.898-2.893-0.971-3.135s-0.123-0.434-0.154-0.574c-0.129,0.5-0.498,1.736-1.107,3.709H123.271z"/>
	</g>
</g>
</svg>
