<?xml version="1.0" encoding="utf-8"?>
<!-- Generator: Adobe Illustrator 16.0.0, SVG Export Plug-In . SVG Version: 6.00 Build 0)  -->
<!DOCTYPE svg PUBLIC "-//W3C//DTD SVG 1.1//EN" "http://www.w3.org/Graphics/SVG/1.1/DTD/svg11.dtd">
<svg version="1.1" id="Capa_1" xmlns="http://www.w3.org/2000/svg" xmlns:xlink="http://www.w3.org/1999/xlink" x="0px" y="0px"
	 width="202.438px" height="218.98px" viewBox="0 0 202.438 218.98" enable-background="new 0 0 202.438 218.98"
	 xml:space="preserve">
<path fill="none" stroke="#5CA9EF" stroke-width="4" stroke-miterlimit="10" d="M3.771,73.275c0,0-0.541-21.334,21.125-33.334
	c0,0,42.541-24.332,51.209-30.332c0,0,23.332-16.667,48-0.667c0,0,30.666,19.333,48,28c0,0,27.334,11.999,27.334,39.333
	c0,0,0.998,55.667,0.998,68.333c0,0,0.334,18.666-14.332,27.667c0,0-37.334,23.333-60,36c0,0-21.332,18.668-48.666,1.334
	c0,0-38.666-22.666-50-28c0,0-26.22-16.608-24.22-34.608C3.219,147,4.104,99.942,3.771,73.275z"/>
<g>
	<path fill="#5CA9EF" d="M57.862,127.464l-0.433-1.821c-0.576-0.216-1.259-0.32-2.048-0.32c-1.088,0-1.92,0.396-2.496,1.185
		c-0.576,0.79-0.863,1.896-0.863,3.312c0,1.431,0.313,2.49,0.938,3.185c0.624,0.693,1.458,1.04,2.504,1.04
		c0.231,0,0.488-0.024,0.76-0.08c0.272-0.053,0.536-0.13,0.792-0.229c0.256-0.103,0.491-0.208,0.704-0.319
		c0.214-0.112,0.39-0.222,0.528-0.328l0.416-0.317l0.64,1.04c-0.234,0.232-0.504,0.451-0.808,0.653
		c-0.307,0.203-0.633,0.383-0.979,0.536c-0.347,0.154-0.706,0.273-1.079,0.359c-0.374,0.085-0.753,0.128-1.137,0.128
		c-1.632,0-2.894-0.473-3.784-1.416c-0.89-0.943-1.336-2.321-1.336-4.136c0-0.907,0.126-1.729,0.376-2.467
		c0.251-0.733,0.611-1.36,1.08-1.88c0.47-0.518,1.032-0.917,1.688-1.197c0.653-0.283,1.395-0.427,2.216-0.427
		c0.245,0,0.515,0.021,0.808,0.059c0.294,0.037,0.582,0.088,0.864,0.149c0.282,0.063,0.55,0.131,0.8,0.2
		c0.251,0.068,0.456,0.136,0.616,0.199l0.512,0.191l-0.08,2.702L57.862,127.464L57.862,127.464z"/>
	<path fill="#5CA9EF" d="M60.501,131.208c0-0.684,0.099-1.305,0.296-1.863c0.197-0.561,0.478-1.036,0.841-1.433
		c0.362-0.396,0.792-0.698,1.288-0.912c0.495-0.213,1.042-0.317,1.64-0.317c1.194,0,2.122,0.378,2.784,1.136
		c0.661,0.759,0.992,1.809,0.992,3.15c0,0.661-0.097,1.269-0.288,1.815c-0.192,0.55-0.462,1.023-0.809,1.424
		c-0.35,0.399-0.771,0.712-1.267,0.938c-0.496,0.225-1.048,0.336-1.653,0.336c-1.219,0-2.157-0.361-2.824-1.088
		C60.835,133.667,60.501,132.605,60.501,131.208z M64.501,127.96c-1.547,0-2.319,1.04-2.319,3.12s0.746,3.12,2.239,3.12
		c0.779,0,1.347-0.268,1.704-0.801c0.354-0.532,0.536-1.333,0.536-2.399C66.661,128.974,65.941,127.96,64.501,127.96z"/>
	<path fill="#5CA9EF" d="M69.621,131.208c0-0.684,0.099-1.305,0.296-1.863c0.194-0.561,0.478-1.036,0.841-1.433
		c0.362-0.396,0.792-0.698,1.288-0.912c0.495-0.213,1.042-0.317,1.64-0.317c1.194,0,2.122,0.378,2.784,1.136
		c0.661,0.759,0.992,1.809,0.992,3.15c0,0.661-0.097,1.269-0.288,1.815c-0.192,0.55-0.462,1.023-0.809,1.424
		c-0.35,0.399-0.771,0.712-1.267,0.938c-0.496,0.225-1.048,0.336-1.656,0.336c-1.216,0-2.154-0.361-2.821-1.088
		C69.955,133.667,69.621,132.605,69.621,131.208z M73.621,127.96c-1.547,0-2.319,1.04-2.319,3.12s0.746,3.12,2.239,3.12
		c0.776,0,1.347-0.268,1.704-0.801c0.354-0.532,0.536-1.333,0.536-2.399C75.781,128.974,75.062,127.96,73.621,127.96z"/>
	<path fill="#5CA9EF" d="M81.382,126.84l0.144,1.169c0.789-0.886,1.598-1.326,2.416-1.326c0.438,0,0.858,0.062,1.267,0.189
		l0.177,0.048l-0.08,2.32h-1.04l-0.24-1.2c-0.917,0-1.688,0.416-2.317,1.248v4.752l1.601,0.399v0.88h-4.561v-0.88l1.357-0.399v-5.92
		l-1.357-0.319v-0.881L81.382,126.84z"/>
	<path fill="#5CA9EF" d="M93.621,123v11.04l1.357,0.319v0.881l-2.721,0.079l-0.128-0.911c-0.715,0.715-1.595,1.071-2.64,1.071
		c-1.035,0-1.832-0.371-2.396-1.111c-0.56-0.741-0.84-1.769-0.84-3.08c0-1.396,0.356-2.516,1.072-3.353
		c0.715-0.838,1.771-1.256,3.168-1.256c0.521,0,1.026,0.085,1.521,0.256v-2.655l-1.357-0.32v-0.88L93.621,123z M92.021,133v-4.72
		c-0.374-0.214-0.934-0.32-1.681-0.32c-1.6,0-2.399,1.066-2.399,3.2c0,0.938,0.162,1.68,0.487,2.225
		c0.325,0.546,0.829,0.815,1.513,0.815c0.522,0,0.967-0.14,1.327-0.416C91.61,133.507,91.861,133.246,92.021,133z"/>
	<path fill="#5CA9EF" d="M98.98,126.84v7.2l1.2,0.399v0.88h-4.16v-0.88l1.36-0.399v-5.92l-1.36-0.319v-0.881L98.98,126.84z
		 M98.101,123.08c0.693,0,1.04,0.399,1.04,1.2c0,0.33-0.117,0.587-0.352,0.768c-0.235,0.184-0.485,0.271-0.752,0.271
		c-0.288,0-0.523-0.099-0.704-0.296c-0.185-0.196-0.272-0.474-0.272-0.823c0-0.353,0.102-0.626,0.296-0.824
		C97.554,123.179,97.802,123.08,98.101,123.08z"/>
	<path fill="#5CA9EF" d="M104.021,126.84l0.146,1.139c0.104-0.086,0.256-0.203,0.445-0.354c0.192-0.148,0.42-0.293,0.683-0.433
		c0.262-0.141,0.55-0.259,0.864-0.359c0.312-0.102,0.643-0.149,0.981-0.149c0.863,0,1.506,0.253,1.928,0.76
		c0.424,0.508,0.635,1.215,0.635,2.12v4.479l1.197,0.399v0.88h-3.84v-0.88l1.04-0.399v-4.317c0-0.576-0.11-1-0.336-1.271
		c-0.225-0.271-0.562-0.408-1.021-0.408c-0.227,0-0.445,0.028-0.664,0.088c-0.222,0.062-0.425,0.139-0.608,0.231
		c-0.186,0.096-0.352,0.2-0.495,0.312c-0.145,0.112-0.265,0.224-0.358,0.328l-0.271,0.319v4.721l1.04,0.399v0.88h-4v-0.88
		l1.36-0.399v-5.92l-1.36-0.317v-0.883L104.021,126.84z"/>
	<path fill="#5CA9EF" d="M112.58,127.32c1.148-0.427,2.208-0.64,3.168-0.64c0.938,0,1.655,0.188,2.16,0.565
		c0.501,0.379,0.752,1.019,0.752,1.912v4.88l1.276,0.319v0.881l-2.479,0.079l-0.336-1.119c-0.854,0.854-1.696,1.279-2.528,1.279
		s-1.456-0.208-1.872-0.624s-0.624-1.008-0.624-1.775c0-1.653,1.229-2.479,3.684-2.479h1.276v-1.28c0-0.96-0.507-1.439-1.52-1.439
		c-0.576,0-1.054,0.062-1.424,0.179l-0.192,0.062l-0.224,1.199h-1.04L112.58,127.32z M117.06,131.641h-1.12
		c-0.8,0-1.364,0.104-1.703,0.312c-0.337,0.209-0.505,0.53-0.505,0.968c0,0.416,0.102,0.734,0.297,0.952
		c0.197,0.219,0.482,0.328,0.855,0.328c0.182,0,0.365-0.032,0.552-0.097c0.188-0.063,0.368-0.146,0.544-0.239
		c0.18-0.097,0.334-0.2,0.476-0.312c0.139-0.112,0.25-0.219,0.336-0.312l0.271-0.32L117.06,131.641L117.06,131.641z"/>
	<path fill="#5CA9EF" d="M127.86,129.48h-1.04l-0.237-1.359c-0.416-0.104-0.896-0.16-1.44-0.16c-0.768,0-1.357,0.246-1.772,0.735
		c-0.416,0.491-0.624,1.255-0.624,2.288c0,1.035,0.218,1.829,0.652,2.385c0.438,0.555,1.046,0.832,1.824,0.832
		c0.225,0,0.445-0.021,0.664-0.062c0.219-0.045,0.427-0.101,0.624-0.17c0.197-0.067,0.376-0.146,0.536-0.23s0.288-0.171,0.384-0.256
		l0.272-0.239l0.56,0.96l-0.176,0.146c-0.128,0.104-0.307,0.228-0.528,0.357c-0.224,0.134-0.472,0.256-0.744,0.368
		c-0.271,0.111-0.56,0.208-0.86,0.287c-0.308,0.08-0.604,0.12-0.892,0.12c-1.301,0-2.293-0.387-2.976-1.16
		c-0.686-0.772-1.024-1.832-1.024-3.176c0-0.661,0.102-1.269,0.296-1.815c0.197-0.55,0.479-1.02,0.843-1.408
		c0.36-0.388,0.801-0.69,1.312-0.909c0.512-0.221,1.083-0.328,1.712-0.328c0.214,0,0.435,0.017,0.656,0.048
		c0.223,0.032,0.439,0.067,0.656,0.109c0.213,0.043,0.407,0.096,0.592,0.152c0.181,0.061,0.336,0.114,0.464,0.168l0.352,0.159
		L127.86,129.48z"/>
	<path fill="#5CA9EF" d="M132.18,126.84v7.2l1.2,0.399v0.88h-4.16v-0.88l1.36-0.399v-5.92l-1.36-0.319v-0.881L132.18,126.84z
		 M131.3,123.08c0.693,0,1.04,0.399,1.04,1.2c0,0.33-0.117,0.587-0.354,0.768c-0.232,0.184-0.482,0.271-0.752,0.271
		c-0.285,0-0.521-0.099-0.701-0.296c-0.185-0.196-0.272-0.474-0.272-0.823c0-0.353,0.099-0.626,0.296-0.824
		C130.753,123.179,131.001,123.08,131.3,123.08z"/>
	<path fill="#5CA9EF" d="M134.579,131.208c0-0.684,0.099-1.305,0.296-1.863c0.194-0.561,0.478-1.036,0.841-1.433
		c0.362-0.396,0.792-0.698,1.288-0.912c0.495-0.213,1.042-0.317,1.64-0.317c1.194,0,2.122,0.378,2.784,1.136
		c0.661,0.759,0.992,1.809,0.992,3.15c0,0.661-0.097,1.269-0.288,1.815c-0.192,0.55-0.462,1.023-0.809,1.424
		c-0.35,0.399-0.771,0.712-1.267,0.938c-0.496,0.225-1.048,0.336-1.656,0.336c-1.216,0-2.154-0.361-2.821-1.088
		C134.913,133.667,134.579,132.605,134.579,131.208z M138.579,127.96c-1.547,0-2.319,1.04-2.319,3.12s0.746,3.12,2.239,3.12
		c0.776,0,1.347-0.268,1.704-0.801c0.354-0.532,0.533-1.333,0.533-2.399C140.739,128.974,140.02,127.96,138.579,127.96z
		 M140.724,123.704l-3.36,2.08l-0.56-0.801l3.12-2.479L140.724,123.704z"/>
	<path fill="#5CA9EF" d="M146.34,126.84l0.144,1.139c0.106-0.086,0.259-0.203,0.448-0.354c0.192-0.148,0.418-0.293,0.68-0.433
		c0.265-0.141,0.553-0.259,0.864-0.359c0.314-0.102,0.646-0.149,0.984-0.149c0.86,0,1.506,0.253,1.928,0.76
		c0.421,0.508,0.632,1.215,0.632,2.12v4.479l1.2,0.399v0.88h-3.84v-0.88l1.04-0.399v-4.317c0-0.576-0.112-1-0.336-1.271
		c-0.228-0.271-0.565-0.408-1.024-0.408c-0.224,0-0.445,0.028-0.664,0.088c-0.219,0.062-0.422,0.139-0.605,0.231
		c-0.188,0.096-0.354,0.2-0.495,0.312c-0.146,0.112-0.268,0.224-0.36,0.328l-0.271,0.319v4.721l1.04,0.399v0.88h-4v-0.88
		l1.357-0.399v-5.92l-1.357-0.317v-0.883L146.34,126.84z"/>
	<path fill="#5CA9EF" d="M76.686,156.761c-0.47,0-0.87-0.051-1.2-0.146l-0.078,1.504h2.479c1.046,0,1.841,0.196,2.385,0.592
		c0.544,0.396,0.815,0.992,0.815,1.792c0,0.864-0.354,1.552-1.059,2.059c-0.701,0.506-1.736,0.76-3.104,0.76
		c-2.562,0-3.84-0.772-3.84-2.319c0-0.672,0.354-1.242,1.072-1.712c0.171-0.104,0.37-0.202,0.605-0.288
		c-0.288-0.042-0.521-0.145-0.696-0.304c-0.175-0.16-0.264-0.342-0.264-0.545c0-0.354,0.208-0.863,0.624-1.535l0.208-0.336
		c-0.097-0.032-0.228-0.129-0.393-0.288c-0.165-0.16-0.305-0.32-0.408-0.479c-0.288-0.448-0.435-1.021-0.435-1.712
		c0-1.016,0.317-1.787,0.952-2.32c0.638-0.532,1.49-0.8,2.567-0.8c0.598,0,1.072,0.072,1.425,0.225l0.176,0.079l2.803-0.063v0.883
		l-1.555,0.224c0.288,0.385,0.435,0.924,0.435,1.616c0,1.045-0.314,1.826-0.943,2.344C78.632,156.502,77.773,156.761,76.686,156.761
		z M77.485,159.32h-1.76c-0.054,0.021-0.158,0.089-0.312,0.2c-0.154,0.109-0.274,0.216-0.359,0.312
		c-0.246,0.276-0.368,0.587-0.368,0.931c0,0.521,0.205,0.88,0.615,1.069c0.411,0.191,1.032,0.288,1.864,0.288
		c1.601,0,2.397-0.508,2.397-1.521c0-0.491-0.174-0.827-0.521-1.01C78.698,159.411,78.179,159.32,77.485,159.32z M76.846,151.801
		c-1.228,0-1.841,0.642-1.841,1.922c0,0.586,0.146,1.053,0.448,1.397c0.299,0.346,0.729,0.521,1.296,0.521
		c0.647,0,1.123-0.151,1.416-0.456c0.293-0.307,0.438-0.792,0.438-1.464C78.605,152.44,78.019,151.801,76.846,151.801z"/>
	<path fill="#5CA9EF" d="M89.564,155.288l-5.52,0.031c0,0.875,0.21,1.573,0.632,2.097c0.421,0.522,0.983,0.784,1.688,0.784
		c0.231,0,0.47-0.021,0.701-0.062c0.234-0.045,0.456-0.099,0.664-0.16c0.208-0.063,0.397-0.139,0.568-0.217
		c0.17-0.079,0.312-0.156,0.432-0.231l0.32-0.208l0.56,0.832c-0.359,0.288-0.692,0.516-1,0.681
		c-0.304,0.166-0.658,0.314-1.068,0.448c-0.411,0.133-0.856,0.199-1.336,0.199c-1.262,0-2.214-0.382-2.864-1.146
		c-0.651-0.762-0.977-1.805-0.977-3.128c0-0.661,0.097-1.27,0.285-1.823c0.192-0.555,0.465-1.03,0.812-1.433
		c0.346-0.397,0.76-0.712,1.239-0.937c0.479-0.227,1.009-0.336,1.584-0.336c2.237,0,3.357,1.253,3.357,3.76L89.564,155.288z
		 M84.108,154.12h3.843c0-0.648-0.142-1.18-0.416-1.584c-0.277-0.405-0.729-0.605-1.347-0.605c-0.604,0-1.094,0.203-1.456,0.613
		C84.37,152.955,84.162,153.48,84.108,154.12z"/>
	<path fill="#5CA9EF" d="M93.485,150.84l0.146,1.139c0.104-0.086,0.256-0.203,0.448-0.354c0.189-0.148,0.418-0.293,0.68-0.433
		c0.262-0.141,0.55-0.259,0.864-0.359c0.312-0.102,0.643-0.149,0.981-0.149c0.863,0,1.506,0.253,1.931,0.76
		c0.421,0.508,0.632,1.214,0.632,2.12v4.479l1.2,0.399v0.88h-3.843v-0.88l1.04-0.399v-4.317c0-0.576-0.109-1-0.336-1.271
		c-0.225-0.271-0.562-0.408-1.021-0.408c-0.227,0-0.445,0.028-0.664,0.088c-0.222,0.062-0.422,0.139-0.608,0.231
		c-0.186,0.096-0.352,0.2-0.495,0.312c-0.145,0.112-0.265,0.224-0.357,0.328l-0.272,0.319v4.721l1.04,0.399v0.88h-4v-0.88
		l1.36-0.399v-5.92l-1.36-0.317v-0.883L93.485,150.84z"/>
	<path fill="#5CA9EF" d="M108.685,155.288l-5.52,0.031c0,0.875,0.21,1.573,0.632,2.097c0.421,0.522,0.98,0.784,1.688,0.784
		c0.234,0,0.473-0.021,0.704-0.062c0.234-0.045,0.456-0.099,0.664-0.16c0.208-0.063,0.397-0.139,0.568-0.217
		c0.17-0.079,0.312-0.156,0.432-0.231l0.32-0.208l0.56,0.832c-0.359,0.288-0.692,0.516-1,0.681
		c-0.304,0.166-0.661,0.314-1.068,0.448c-0.411,0.133-0.856,0.199-1.336,0.199c-1.262,0-2.217-0.382-2.864-1.146
		c-0.651-0.762-0.979-1.805-0.979-3.128c0-0.661,0.1-1.27,0.288-1.823c0.192-0.555,0.462-1.03,0.812-1.433
		c0.346-0.397,0.76-0.712,1.236-0.937c0.48-0.227,1.012-0.336,1.584-0.336c2.24,0,3.36,1.253,3.36,3.76L108.685,155.288z
		 M103.229,154.12h3.84c0-0.648-0.139-1.18-0.416-1.584c-0.274-0.405-0.726-0.605-1.344-0.605c-0.604,0-1.094,0.203-1.456,0.613
		C103.49,152.955,103.282,153.48,103.229,154.12z"/>
	<path fill="#5CA9EF" d="M112.604,150.84l0.146,1.169c0.789-0.886,1.595-1.326,2.416-1.326c0.438,0,0.855,0.062,1.264,0.189
		l0.177,0.048l-0.08,2.32h-1.04l-0.237-1.2c-0.917,0-1.69,0.416-2.32,1.248v4.752l1.601,0.399v0.88h-4.561v-0.88l1.36-0.399v-5.92
		l-1.36-0.319v-0.881L112.604,150.84z"/>
	<path fill="#5CA9EF" d="M117.964,151.32c1.151-0.427,2.208-0.64,3.168-0.64c0.938,0,1.658,0.188,2.16,0.565
		c0.501,0.379,0.752,1.019,0.752,1.912v4.88l1.279,0.319v0.881l-2.479,0.079l-0.336-1.119c-0.854,0.854-1.696,1.279-2.528,1.279
		s-1.456-0.208-1.872-0.624s-0.624-1.008-0.624-1.775c0-1.653,1.229-2.479,3.684-2.479h1.276v-1.279c0-0.961-0.507-1.44-1.52-1.44
		c-0.576,0-1.051,0.062-1.424,0.179l-0.192,0.062l-0.224,1.2h-1.04L117.964,151.32z M122.443,155.641h-1.117
		c-0.803,0-1.367,0.104-1.703,0.312c-0.337,0.208-0.505,0.53-0.505,0.968c0,0.416,0.099,0.734,0.297,0.952
		c0.194,0.219,0.479,0.328,0.854,0.328c0.185,0,0.365-0.032,0.552-0.097c0.188-0.063,0.368-0.146,0.544-0.239
		c0.18-0.097,0.335-0.2,0.476-0.312c0.139-0.112,0.25-0.219,0.336-0.312l0.271-0.32L122.443,155.641L122.443,155.641z"/>
	<path fill="#5CA9EF" d="M129.195,147v11.04l1.604,0.399v0.88h-4.592v-0.88l1.356-0.399v-9.76l-1.356-0.32v-0.88L129.195,147z"/>
</g>
<g>
	<path fill="#5CA9EF" d="M126.548,98.808c0-7.765-15-14.062-18.779-14.732c-0.205-0.27-0.398-1.186-0.453-2.088
		c0.861-0.945,3.249-3.838,4.077-7.619c0.849-0.341,1.569-1.185,2.017-2.397c0.617-1.684,0.66-4.011-0.579-5.458
		c0.006-0.062,0.014-0.132,0.021-0.202c0.229-2.128,0.834-7.78-2.461-11.448c-1.953-2.173-4.916-3.275-8.809-3.275
		c-3.894,0-6.855,1.104-8.81,3.276c-3.297,3.671-2.688,9.324-2.459,11.452c0.008,0.069,0.017,0.136,0.021,0.198
		c-1.24,1.445-1.199,3.771-0.58,5.454c0.445,1.216,1.168,2.061,2.017,2.4c0.828,3.783,3.216,6.673,4.077,7.621
		c-0.052,0.898-0.247,1.814-0.453,2.086c-3.78,0.672-18.778,6.971-18.778,14.732v1h49.932V98.808z M93.616,73.375l-0.138-0.838
		h-0.85c-0.26,0-0.697-0.439-0.998-1.258c-0.454-1.236-0.435-2.933,0.388-3.629l0.374-0.318l-0.021-0.491
		c-0.01-0.168-0.034-0.42-0.068-0.738c-0.223-2.063-0.743-6.896,1.958-9.901c1.557-1.734,4.02-2.613,7.32-2.613
		c3.3,0,5.764,0.879,7.319,2.612c2.7,3.005,2.183,7.835,1.961,9.897c-0.034,0.321-0.062,0.575-0.068,0.744l-0.022,0.49l0.374,0.317
		c0.821,0.698,0.841,2.395,0.386,3.632c-0.299,0.815-0.735,1.256-0.995,1.256h-0.851l-0.137,0.838
		c-0.694,4.236-3.918,7.488-3.951,7.521l-0.299,0.297l0.004,0.422c0.006,0.75,0.094,2.121,0.572,3.143
		c-3.804,1.216-6.862,0.668-8.619,0.08c0.512-1.028,0.602-2.453,0.606-3.223l0.002-0.422l-0.297-0.297
		C97.534,80.863,94.311,77.611,93.616,73.375z M78.738,97.808C80,92.509,90.781,87.193,95.193,86.16
		c1.015,0.482,3.211,1.33,6.193,1.33c1.896,0,4.106-0.35,6.526-1.346c4.373,1,15.247,6.342,16.515,11.664H78.738z"/>
</g>
</svg>
