<?xml version="1.0" encoding="utf-8"?>
<!-- Generator: Adobe Illustrator 16.0.0, SVG Export Plug-In . SVG Version: 6.00 Build 0)  -->
<!DOCTYPE svg PUBLIC "-//W3C//DTD SVG 1.1//EN" "http://www.w3.org/Graphics/SVG/1.1/DTD/svg11.dtd">
<svg version="1.1" id="Capa_1" xmlns="http://www.w3.org/2000/svg" xmlns:xlink="http://www.w3.org/1999/xlink" x="0px" y="0px"
	 width="202.438px" height="218.98px" viewBox="0 0 202.438 218.98" enable-background="new 0 0 202.438 218.98"
	 xml:space="preserve">
<path fill="none" stroke="#5CA9EF" stroke-width="4" stroke-miterlimit="10" d="M3.771,73.275c0,0-0.541-21.334,21.125-33.334
	c0,0,42.541-24.332,51.209-30.332c0,0,23.332-16.667,48-0.667c0,0,30.666,19.333,48,28c0,0,27.334,11.999,27.334,39.333
	c0,0,0.998,55.667,0.998,68.333c0,0,0.334,18.666-14.332,27.667c0,0-37.334,23.333-60,36c0,0-21.332,18.668-48.666,1.334
	c0,0-38.666-22.666-50-28c0,0-26.22-16.368-24.22-34.368C3.219,147.24,4.104,99.942,3.771,73.275z"/>
<rect x="3.041" y="124.583" fill="none" width="198" height="19"/>
<g>
	<path fill="#5CA9EF" d="M61.675,136.903v-0.96l1.36-0.32v-8.64l-1.36-0.32v-0.88l3.04-0.08h1.68c1.184,0,2.093,0.293,2.728,0.881
		c0.635,0.586,0.952,1.387,0.952,2.399c0,1.227-0.376,2.16-1.128,2.8s-1.816,0.96-3.192,0.96h-1.04v2.88l1.36,0.32v0.96H61.675z
		 M64.715,126.983v4.479h1.04c1.76,0,2.64-0.746,2.64-2.239c0-0.661-0.181-1.2-0.544-1.616s-0.875-0.624-1.536-0.624H64.715z"/>
	<path fill="#5CA9EF" d="M73.754,128.424l0.144,1.168c0.789-0.886,1.595-1.328,2.416-1.328c0.438,0,0.858,0.063,1.264,0.191
		l0.177,0.049l-0.08,2.319h-1.04l-0.24-1.2c-0.917,0-1.69,0.416-2.32,1.248v4.752l1.601,0.4v0.88h-4.561v-0.88l1.36-0.4v-5.92
		l-1.36-0.319v-0.88L73.754,128.424z"/>
	<path fill="#5CA9EF" d="M85.754,132.871l-5.52,0.032c0,0.875,0.21,1.573,0.632,2.096c0.421,0.523,0.983,0.784,1.688,0.784
		c0.234,0,0.47-0.021,0.704-0.063c0.234-0.043,0.456-0.097,0.664-0.16c0.208-0.064,0.397-0.137,0.568-0.216
		c0.17-0.08,0.314-0.157,0.432-0.232l0.32-0.208l0.56,0.832c-0.362,0.288-0.695,0.515-1,0.68c-0.304,0.166-0.661,0.315-1.071,0.448
		c-0.411,0.133-0.856,0.2-1.336,0.2c-1.259,0-2.214-0.382-2.864-1.145c-0.651-0.762-0.977-1.805-0.977-3.128
		c0-0.661,0.097-1.269,0.288-1.823c0.192-0.555,0.462-1.032,0.809-1.433c0.346-0.399,0.76-0.712,1.239-0.936
		c0.48-0.225,1.009-0.336,1.584-0.336c2.24,0,3.36,1.253,3.36,3.76L85.754,132.871z M80.298,131.703h3.84
		c0-0.65-0.139-1.179-0.416-1.584s-0.726-0.607-1.344-0.607c-0.607,0-1.094,0.205-1.456,0.615
		C80.56,130.538,80.352,131.063,80.298,131.703z"/>
	<path fill="#5CA9EF" d="M87.13,134.344h1.12l0.176,1.376c0.106,0.042,0.274,0.077,0.504,0.104s0.456,0.04,0.68,0.04
		c0.693,0,1.197-0.104,1.512-0.312c0.315-0.208,0.473-0.525,0.473-0.952c0-0.288-0.109-0.518-0.328-0.688
		c-0.219-0.17-0.493-0.314-0.824-0.432s-0.69-0.234-1.08-0.353c-0.39-0.117-0.749-0.269-1.08-0.456
		c-0.33-0.187-0.605-0.429-0.823-0.728c-0.219-0.299-0.328-0.693-0.328-1.184c0-0.801,0.267-1.411,0.8-1.832
		c0.533-0.422,1.242-0.643,2.128-0.664c0.373,0.01,0.755,0.039,1.144,0.088c0.39,0.048,0.787,0.136,1.192,0.264l0.4,0.128
		l-0.049,2.16h-1.04l-0.256-1.248c-0.085-0.032-0.25-0.072-0.496-0.12c-0.245-0.048-0.506-0.072-0.783-0.072
		c-0.192,0-0.374,0.017-0.544,0.049c-0.171,0.031-0.323,0.085-0.456,0.159c-0.134,0.075-0.24,0.182-0.32,0.32s-0.12,0.31-0.12,0.512
		c0,0.31,0.109,0.553,0.328,0.729s0.493,0.328,0.824,0.456c0.33,0.128,0.69,0.251,1.08,0.368c0.389,0.117,0.749,0.27,1.08,0.456
		c0.33,0.187,0.604,0.424,0.823,0.712s0.328,0.666,0.328,1.136c0,0.448-0.096,0.843-0.288,1.184
		c-0.191,0.342-0.45,0.627-0.775,0.856c-0.326,0.229-0.704,0.4-1.137,0.512c-0.432,0.112-0.894,0.168-1.384,0.168
		c-0.182,0-0.37-0.008-0.567-0.023c-0.198-0.017-0.393-0.038-0.584-0.064c-0.192-0.026-0.371-0.056-0.536-0.088
		c-0.166-0.032-0.302-0.064-0.408-0.096l-0.368-0.097L87.13,134.344z"/>
	<path fill="#5CA9EF" d="M97.53,128.424v7.199l1.2,0.4v0.88h-4.16v-0.88l1.36-0.4v-5.92l-1.36-0.319v-0.88L97.53,128.424z
		 M96.65,124.663c0.693,0,1.04,0.4,1.04,1.2c0,0.33-0.117,0.587-0.352,0.768c-0.235,0.182-0.485,0.272-0.752,0.272
		c-0.288,0-0.523-0.099-0.704-0.296c-0.182-0.197-0.272-0.473-0.272-0.824s0.099-0.627,0.296-0.824S96.351,124.663,96.65,124.663z"
		/>
	<path fill="#5CA9EF" d="M107.37,124.584v11.039l1.36,0.32v0.88l-2.721,0.08l-0.128-0.912c-0.715,0.715-1.595,1.072-2.64,1.072
		c-1.035,0-1.832-0.371-2.393-1.112c-0.56-0.741-0.84-1.768-0.84-3.08c0-1.397,0.357-2.515,1.072-3.352
		c0.715-0.838,1.771-1.256,3.168-1.256c0.522,0,1.029,0.085,1.521,0.256v-2.656l-1.36-0.32v-0.88L107.37,124.584z M105.771,134.583
		v-4.72c-0.374-0.213-0.934-0.32-1.681-0.32c-1.6,0-2.399,1.067-2.399,3.2c0,0.938,0.162,1.68,0.487,2.225
		c0.325,0.544,0.829,0.815,1.513,0.815c0.522,0,0.965-0.139,1.327-0.416C105.36,135.09,105.611,134.829,105.771,134.583z"/>
	<path fill="#5CA9EF" d="M116.97,132.871l-5.52,0.032c0,0.875,0.21,1.573,0.632,2.096c0.421,0.523,0.983,0.784,1.688,0.784
		c0.234,0,0.47-0.021,0.704-0.063c0.234-0.043,0.456-0.097,0.664-0.16c0.208-0.064,0.397-0.137,0.568-0.216
		c0.17-0.08,0.314-0.157,0.432-0.232l0.32-0.208l0.56,0.832c-0.362,0.288-0.695,0.515-1,0.68c-0.304,0.166-0.661,0.315-1.071,0.448
		c-0.411,0.133-0.856,0.2-1.336,0.2c-1.259,0-2.214-0.382-2.864-1.145c-0.651-0.762-0.977-1.805-0.977-3.128
		c0-0.661,0.097-1.269,0.288-1.823c0.192-0.555,0.462-1.032,0.809-1.433c0.346-0.399,0.76-0.712,1.239-0.936
		c0.48-0.225,1.009-0.336,1.584-0.336c2.24,0,3.36,1.253,3.36,3.76L116.97,132.871z M111.514,131.703h3.84
		c0-0.65-0.139-1.179-0.416-1.584s-0.726-0.607-1.344-0.607c-0.607,0-1.094,0.205-1.456,0.615
		C111.776,130.538,111.568,131.063,111.514,131.703z"/>
	<path fill="#5CA9EF" d="M120.89,128.424l0.144,1.136c0.106-0.086,0.256-0.203,0.448-0.353s0.418-0.293,0.68-0.432
		s0.55-0.259,0.864-0.359c0.314-0.102,0.643-0.152,0.984-0.152c0.863,0,1.506,0.253,1.928,0.76c0.421,0.507,0.632,1.214,0.632,2.12
		v4.479l1.2,0.4v0.88h-3.84v-0.88l1.04-0.4v-4.319c0-0.576-0.112-1-0.336-1.272c-0.225-0.271-0.565-0.408-1.024-0.408
		c-0.224,0-0.445,0.029-0.664,0.088c-0.219,0.06-0.422,0.137-0.608,0.232s-0.352,0.2-0.495,0.312
		c-0.145,0.112-0.265,0.222-0.36,0.328l-0.272,0.32v4.72l1.04,0.4v0.88h-4v-0.88l1.36-0.4v-5.92l-1.36-0.319v-0.88L120.89,128.424z"
		/>
	<path fill="#5CA9EF" d="M131.769,126.168v2.336h2.32v1.199h-2.32v5.136c0,0.651,0.267,0.977,0.801,0.977
		c0.341,0,0.757-0.134,1.248-0.4l0.432,0.849c-0.726,0.533-1.472,0.8-2.24,0.8c-0.544,0-0.986-0.179-1.328-0.536
		c-0.341-0.357-0.512-0.952-0.512-1.784v-5.04h-1.6v-1.04l1.6-0.159v-2.017L131.769,126.168z"/>
	<path fill="#5CA9EF" d="M142.409,132.871l-5.52,0.032c0,0.875,0.21,1.573,0.632,2.096c0.421,0.523,0.983,0.784,1.688,0.784
		c0.234,0,0.47-0.021,0.704-0.063c0.234-0.043,0.456-0.097,0.664-0.16c0.208-0.064,0.397-0.137,0.568-0.216
		c0.17-0.08,0.314-0.157,0.432-0.232l0.32-0.208l0.56,0.832c-0.362,0.288-0.695,0.515-1,0.68c-0.304,0.166-0.661,0.315-1.071,0.448
		c-0.411,0.133-0.856,0.2-1.336,0.2c-1.259,0-2.214-0.382-2.864-1.145c-0.651-0.762-0.977-1.805-0.977-3.128
		c0-0.661,0.097-1.269,0.288-1.823c0.192-0.555,0.462-1.032,0.809-1.433c0.346-0.399,0.76-0.712,1.239-0.936
		c0.48-0.225,1.009-0.336,1.584-0.336c2.24,0,3.36,1.253,3.36,3.76L142.409,132.871z M136.953,131.703h3.84
		c0-0.65-0.139-1.179-0.416-1.584s-0.726-0.607-1.344-0.607c-0.607,0-1.094,0.205-1.456,0.615
		C137.215,130.538,137.007,131.063,136.953,131.703z"/>
</g>
<g>
	<g>
		<g>
			<path fill="#5CA9EF" d="M126.268,99.837H76.334v-1c0-7.767,15-14.064,18.779-14.733c0.205-0.271,0.4-1.187,0.453-2.085
				c-0.86-0.947-3.248-3.837-4.074-7.619c-0.85-0.341-1.571-1.187-2.019-2.401c-0.618-1.682-0.658-4.008,0.582-5.454
				c-0.007-0.062-0.014-0.128-0.021-0.198c-0.229-2.129-0.839-7.782,2.458-11.452c1.952-2.175,4.916-3.276,8.809-3.276
				s6.855,1.102,8.809,3.275c3.297,3.668,2.688,9.32,2.461,11.448c-0.008,0.072-0.016,0.14-0.021,0.203
				c1.24,1.446,1.198,3.773,0.58,5.456c-0.446,1.214-1.168,2.06-2.017,2.399c-0.827,3.781-3.215,6.671-4.076,7.619
				c0.054,0.899,0.249,1.815,0.454,2.085c3.777,0.671,18.777,6.971,18.777,14.733L126.268,99.837L126.268,99.837z M78.455,97.837
				h45.69c-1.326-5.563-13.151-11.152-17.072-11.775c-1.82-0.291-2.041-3.188-2.053-4.419l-0.004-0.42l0.3-0.298
				c0.032-0.032,3.257-3.282,3.949-7.52l0.138-0.838h0.851c0.259,0,0.696-0.44,0.996-1.257c0.455-1.237,0.435-2.934-0.386-3.629
				l-0.374-0.318l0.021-0.49c0.008-0.169,0.034-0.423,0.068-0.745c0.222-2.062,0.739-6.895-1.96-9.898
				c-1.558-1.733-4.021-2.612-7.32-2.612s-5.764,0.879-7.321,2.613c-2.7,3.006-2.18,7.838-1.958,9.9
				c0.035,0.32,0.062,0.572,0.069,0.741l0.022,0.491l-0.375,0.318c-0.819,0.696-0.841,2.392-0.388,3.627
				c0.3,0.817,0.739,1.259,0.999,1.259h0.851l0.137,0.838c0.697,4.257,3.915,7.486,3.947,7.519l0.3,0.298l-0.003,0.421
				c-0.011,1.231-0.229,4.13-2.054,4.419C91.607,86.683,79.781,92.27,78.455,97.837z"/>
		</g>
	</g>
	<path fill="#5CA9EF" d="M96.619,83.783l-1.828,2.103l0.76,5.038l4.475-4.121C100.026,86.803,97.91,85.699,96.619,83.783z"/>
	<path fill="#5CA9EF" d="M106.614,83.783l1.828,2.103l-0.76,5.038l-4.475-4.121C103.207,86.803,105.323,85.699,106.614,83.783z"/>
	<polygon fill="#5CA9EF" points="100.762,88.813 102.11,88.861 102.305,88.372 101.726,87.161 101.176,87.161 100.584,88.324 	"/>
	<polygon fill="#5CA9EF" points="99.061,98.833 101.315,99.591 103.569,98.833 102.143,88.725 100.724,88.679 	"/>
</g>
</svg>
