<?xml version="1.0" encoding="utf-8"?>
<!-- Generator: Adobe Illustrator 16.0.0, SVG Export Plug-In . SVG Version: 6.00 Build 0)  -->
<!DOCTYPE svg PUBLIC "-//W3C//DTD SVG 1.1//EN" "http://www.w3.org/Graphics/SVG/1.1/DTD/svg11.dtd">
<svg version="1.1" id="Capa_1" xmlns="http://www.w3.org/2000/svg" xmlns:xlink="http://www.w3.org/1999/xlink" x="0px" y="0px"
	 width="202.438px" height="218.981px" viewBox="0 0 202.438 218.981" enable-background="new 0 0 202.438 218.981"
	 xml:space="preserve">
<g>
	<g>
		<path fill="none" stroke="#5CA9EF" stroke-width="2" stroke-miterlimit="10" d="M107.55,84.98c-1.182-0.188-1.209-3.44-1.209-3.44
			s3.475-3.441,4.232-8.068c2.037,0,3.295-4.918,1.258-6.649c0.084-1.821,2.619-14.301-10.211-14.301
			c-12.828,0-10.295,12.479-10.209,14.301c-2.039,1.731-0.779,6.649,1.258,6.649c0.758,4.627,4.232,8.068,4.232,8.068
			s-0.027,3.252-1.209,3.44c-3.811,0.605-18.037,6.882-18.037,13.763h47.932C125.587,91.862,111.36,85.586,107.55,84.98
			L107.55,84.98z M107.55,84.98"/>
	</g>
</g>
<path fill="none" stroke="#5CA9EF" stroke-width="4" stroke-miterlimit="10" d="M3.771,73.275c0,0-0.541-21.334,21.125-33.334
	c0,0,42.541-24.332,51.209-30.332c0,0,23.332-16.667,48-0.667c0,0,30.666,19.333,48,28c0,0,27.334,11.999,27.334,39.333
	c0,0,0.998,55.667,0.998,68.333c0,0,0.334,18.666-14.332,27.667c0,0-37.334,23.333-60,36c0,0-21.332,18.668-48.666,1.334
	c0,0-38.666-22.666-50-28c0,0-27.334-16.667-25.334-34.667C2.105,146.942,4.104,99.942,3.771,73.275z"/>
<g>
	<path fill="#626466" d="M57.862,127.464l-0.433-1.823c-0.576-0.214-1.259-0.32-2.048-0.32c-1.088,0-1.92,0.395-2.496,1.184
		c-0.576,0.79-0.863,1.894-0.863,3.312c0,1.43,0.312,2.49,0.936,3.184s1.458,1.04,2.504,1.04c0.234,0,0.488-0.026,0.76-0.08
		c0.272-0.053,0.536-0.13,0.792-0.231s0.491-0.208,0.704-0.32c0.214-0.112,0.39-0.221,0.528-0.328l0.416-0.319l0.64,1.04
		c-0.234,0.234-0.504,0.453-0.808,0.655c-0.304,0.203-0.63,0.382-0.977,0.536c-0.347,0.155-0.706,0.274-1.079,0.36
		c-0.374,0.085-0.753,0.128-1.137,0.128c-1.632,0-2.894-0.472-3.784-1.416s-1.336-2.322-1.336-4.136
		c0-0.907,0.126-1.729,0.376-2.465c0.251-0.735,0.611-1.362,1.08-1.88c0.47-0.517,1.032-0.917,1.688-1.199
		c0.656-0.283,1.395-0.425,2.216-0.425c0.245,0,0.515,0.02,0.808,0.057c0.294,0.037,0.582,0.088,0.864,0.151
		c0.282,0.064,0.55,0.131,0.8,0.2c0.251,0.069,0.456,0.136,0.616,0.2l0.512,0.192l-0.08,2.703H57.862z"/>
	<path fill="#626466" d="M60.501,131.208c0-0.683,0.099-1.304,0.296-1.863c0.197-0.561,0.478-1.038,0.841-1.433
		c0.362-0.395,0.792-0.698,1.288-0.912c0.495-0.213,1.042-0.319,1.64-0.319c1.194,0,2.122,0.378,2.784,1.136
		c0.661,0.758,0.992,1.808,0.992,3.152c0,0.661-0.097,1.267-0.288,1.815c-0.192,0.55-0.462,1.024-0.809,1.424
		c-0.347,0.4-0.768,0.712-1.264,0.937c-0.496,0.224-1.048,0.336-1.656,0.336c-1.216,0-2.157-0.362-2.824-1.088
		C60.835,133.667,60.501,132.605,60.501,131.208z M64.501,127.96c-1.547,0-2.319,1.04-2.319,3.12s0.746,3.12,2.239,3.12
		c0.779,0,1.347-0.267,1.704-0.8s0.536-1.333,0.536-2.4C66.661,128.974,65.941,127.96,64.501,127.96z"/>
	<path fill="#626466" d="M69.621,131.208c0-0.683,0.099-1.304,0.296-1.863c0.197-0.561,0.478-1.038,0.841-1.433
		c0.362-0.395,0.792-0.698,1.288-0.912c0.495-0.213,1.042-0.319,1.64-0.319c1.194,0,2.122,0.378,2.784,1.136
		c0.661,0.758,0.992,1.808,0.992,3.152c0,0.661-0.097,1.267-0.288,1.815c-0.192,0.55-0.462,1.024-0.809,1.424
		c-0.347,0.4-0.768,0.712-1.264,0.937c-0.496,0.224-1.048,0.336-1.656,0.336c-1.216,0-2.157-0.362-2.824-1.088
		C69.955,133.667,69.621,132.605,69.621,131.208z M73.621,127.96c-1.547,0-2.319,1.04-2.319,3.12s0.746,3.12,2.239,3.12
		c0.779,0,1.347-0.267,1.704-0.8s0.536-1.333,0.536-2.4C75.781,128.974,75.062,127.96,73.621,127.96z"/>
	<path fill="#626466" d="M81.382,126.84l0.144,1.169c0.789-0.886,1.595-1.328,2.416-1.328c0.438,0,0.858,0.063,1.264,0.191
		l0.177,0.048l-0.08,2.32h-1.04l-0.24-1.2c-0.917,0-1.69,0.416-2.32,1.248v4.752l1.601,0.4v0.88h-4.561v-0.88l1.36-0.4v-5.92
		l-1.36-0.319v-0.881L81.382,126.84z"/>
	<path fill="#626466" d="M93.621,123v11.04l1.36,0.32v0.88l-2.721,0.08l-0.128-0.912c-0.715,0.715-1.595,1.072-2.64,1.072
		c-1.035,0-1.832-0.371-2.393-1.112c-0.56-0.741-0.84-1.768-0.84-3.08c0-1.397,0.357-2.515,1.072-3.352
		c0.715-0.838,1.771-1.256,3.168-1.256c0.522,0,1.029,0.085,1.521,0.256v-2.656l-1.36-0.32v-0.88L93.621,123z M92.021,133v-4.72
		c-0.374-0.213-0.934-0.32-1.681-0.32c-1.6,0-2.399,1.067-2.399,3.2c0,0.938,0.162,1.68,0.487,2.225
		c0.325,0.544,0.829,0.815,1.513,0.815c0.522,0,0.965-0.139,1.327-0.416C91.61,133.507,91.861,133.246,92.021,133z"/>
	<path fill="#626466" d="M98.98,126.84v7.2l1.2,0.4v0.88h-4.16v-0.88l1.36-0.4v-5.92l-1.36-0.319v-0.881L98.98,126.84z
		 M98.101,123.08c0.693,0,1.04,0.4,1.04,1.2c0,0.331-0.117,0.587-0.352,0.768c-0.235,0.182-0.485,0.272-0.752,0.272
		c-0.288,0-0.523-0.099-0.704-0.296c-0.182-0.197-0.272-0.472-0.272-0.824c0-0.352,0.099-0.626,0.296-0.824
		C97.554,123.179,97.802,123.08,98.101,123.08z"/>
	<path fill="#626466" d="M104.021,126.84l0.144,1.137c0.106-0.086,0.256-0.203,0.448-0.353s0.418-0.293,0.68-0.432
		s0.55-0.259,0.864-0.36c0.314-0.101,0.643-0.151,0.984-0.151c0.863,0,1.506,0.253,1.928,0.76c0.421,0.507,0.632,1.214,0.632,2.12
		v4.479l1.2,0.4v0.88h-3.84v-0.88l1.04-0.4v-4.319c0-0.576-0.112-1-0.336-1.272c-0.225-0.271-0.565-0.408-1.024-0.408
		c-0.224,0-0.445,0.029-0.664,0.088c-0.219,0.06-0.422,0.137-0.608,0.232s-0.352,0.2-0.495,0.312
		c-0.145,0.112-0.265,0.222-0.36,0.328l-0.272,0.32v4.72l1.04,0.4v0.88h-4v-0.88l1.36-0.4v-5.92l-1.36-0.319v-0.881L104.021,126.84z
		"/>
	<path fill="#626466" d="M112.58,127.32c1.151-0.427,2.208-0.64,3.168-0.64c0.938,0,1.658,0.189,2.16,0.567
		c0.501,0.379,0.752,1.017,0.752,1.912v4.88l1.279,0.32v0.88l-2.479,0.08l-0.336-1.12c-0.854,0.854-1.696,1.28-2.528,1.28
		s-1.456-0.208-1.872-0.624s-0.624-1.008-0.624-1.776c0-1.653,1.227-2.479,3.681-2.479h1.279v-1.28c0-0.96-0.507-1.44-1.52-1.44
		c-0.576,0-1.051,0.06-1.424,0.177l-0.192,0.063l-0.224,1.2h-1.04L112.58,127.32z M117.06,131.641h-1.12
		c-0.8,0-1.367,0.104-1.703,0.312c-0.337,0.208-0.505,0.531-0.505,0.968c0,0.416,0.099,0.734,0.297,0.952
		c0.197,0.219,0.482,0.328,0.855,0.328c0.182,0,0.365-0.032,0.552-0.096c0.187-0.064,0.368-0.145,0.544-0.24
		c0.177-0.096,0.334-0.2,0.473-0.312c0.139-0.112,0.25-0.217,0.336-0.312l0.271-0.32V131.641z"/>
	<path fill="#626466" d="M127.86,129.48h-1.04l-0.24-1.36c-0.416-0.106-0.896-0.16-1.44-0.16c-0.768,0-1.359,0.246-1.775,0.736
		c-0.416,0.491-0.624,1.254-0.624,2.288c0,1.035,0.218,1.829,0.655,2.384s1.046,0.832,1.824,0.832c0.225,0,0.445-0.021,0.664-0.063
		c0.219-0.043,0.427-0.099,0.624-0.168s0.376-0.146,0.536-0.232c0.16-0.085,0.288-0.171,0.384-0.256l0.272-0.24l0.56,0.96
		l-0.176,0.145c-0.128,0.106-0.304,0.227-0.528,0.359c-0.224,0.134-0.472,0.256-0.744,0.368c-0.271,0.112-0.56,0.208-0.863,0.288
		c-0.305,0.08-0.601,0.12-0.889,0.12c-1.301,0-2.293-0.387-2.976-1.16s-1.024-1.832-1.024-3.176c0-0.661,0.099-1.267,0.296-1.816
		c0.197-0.549,0.478-1.019,0.841-1.408c0.362-0.389,0.8-0.692,1.312-0.911s1.083-0.328,1.712-0.328c0.214,0,0.433,0.016,0.656,0.048
		s0.442,0.069,0.656,0.111c0.213,0.043,0.41,0.094,0.592,0.152c0.181,0.059,0.336,0.115,0.464,0.168l0.352,0.16L127.86,129.48z"/>
	<path fill="#626466" d="M132.18,126.84v7.2l1.2,0.4v0.88h-4.16v-0.88l1.36-0.4v-5.92l-1.36-0.319v-0.881L132.18,126.84z
		 M131.3,123.08c0.693,0,1.04,0.4,1.04,1.2c0,0.331-0.117,0.587-0.352,0.768c-0.235,0.182-0.485,0.272-0.752,0.272
		c-0.288,0-0.523-0.099-0.704-0.296c-0.182-0.197-0.272-0.472-0.272-0.824c0-0.352,0.099-0.626,0.296-0.824
		C130.753,123.179,131.001,123.08,131.3,123.08z"/>
	<path fill="#626466" d="M134.579,131.208c0-0.683,0.099-1.304,0.296-1.863c0.197-0.561,0.478-1.038,0.841-1.433
		c0.362-0.395,0.792-0.698,1.288-0.912c0.495-0.213,1.042-0.319,1.64-0.319c1.194,0,2.122,0.378,2.784,1.136
		c0.661,0.758,0.992,1.808,0.992,3.152c0,0.661-0.097,1.267-0.288,1.815c-0.192,0.55-0.462,1.024-0.809,1.424
		c-0.347,0.4-0.768,0.712-1.264,0.937c-0.496,0.224-1.048,0.336-1.656,0.336c-1.216,0-2.157-0.362-2.824-1.088
		C134.913,133.667,134.579,132.605,134.579,131.208z M138.579,127.96c-1.547,0-2.319,1.04-2.319,3.12s0.746,3.12,2.239,3.12
		c0.779,0,1.347-0.267,1.704-0.8s0.536-1.333,0.536-2.4C140.739,128.974,140.02,127.96,138.579,127.96z M140.724,123.704l-3.36,2.08
		l-0.56-0.8l3.12-2.48L140.724,123.704z"/>
	<path fill="#626466" d="M146.34,126.84l0.144,1.137c0.106-0.086,0.256-0.203,0.448-0.353s0.418-0.293,0.68-0.432
		s0.55-0.259,0.864-0.36c0.314-0.101,0.643-0.151,0.984-0.151c0.863,0,1.506,0.253,1.928,0.76c0.421,0.507,0.632,1.214,0.632,2.12
		v4.479l1.2,0.4v0.88h-3.84v-0.88l1.04-0.4v-4.319c0-0.576-0.112-1-0.336-1.272c-0.225-0.271-0.565-0.408-1.024-0.408
		c-0.224,0-0.445,0.029-0.664,0.088c-0.219,0.06-0.422,0.137-0.608,0.232s-0.352,0.2-0.495,0.312
		c-0.145,0.112-0.265,0.222-0.36,0.328l-0.272,0.32v4.72l1.04,0.4v0.88h-4v-0.88l1.36-0.4v-5.92l-1.36-0.319v-0.881L146.34,126.84z"
		/>
	<path fill="#626466" d="M76.686,156.761c-0.47,0-0.87-0.049-1.2-0.145l-0.08,1.504h2.479c1.046,0,1.841,0.197,2.385,0.592
		c0.544,0.396,0.815,0.992,0.815,1.792c0,0.864-0.352,1.55-1.056,2.057c-0.704,0.506-1.739,0.76-3.104,0.76
		c-2.56,0-3.84-0.773-3.84-2.32c0-0.672,0.357-1.242,1.072-1.712c0.171-0.106,0.373-0.202,0.608-0.288
		c-0.288-0.042-0.521-0.144-0.696-0.304s-0.264-0.341-0.264-0.544c0-0.352,0.208-0.864,0.624-1.536l0.208-0.336
		c-0.097-0.032-0.228-0.128-0.393-0.288s-0.302-0.32-0.408-0.479c-0.288-0.448-0.432-1.019-0.432-1.712
		c0-1.014,0.317-1.787,0.952-2.32s1.49-0.8,2.567-0.8c0.598,0,1.072,0.074,1.425,0.224l0.176,0.08l2.8-0.064v0.881l-1.552,0.224
		c0.288,0.384,0.432,0.923,0.432,1.616c0,1.045-0.314,1.826-0.943,2.344C78.632,156.502,77.773,156.761,76.686,156.761z
		 M77.485,159.32h-1.76c-0.054,0.021-0.158,0.088-0.312,0.2c-0.154,0.111-0.274,0.216-0.359,0.312
		c-0.246,0.277-0.368,0.587-0.368,0.929c0,0.522,0.205,0.88,0.615,1.071c0.411,0.192,1.032,0.288,1.864,0.288
		c1.601,0,2.4-0.507,2.4-1.52c0-0.491-0.174-0.827-0.521-1.008C78.698,159.411,78.179,159.32,77.485,159.32z M76.846,151.801
		c-1.228,0-1.841,0.64-1.841,1.92c0,0.586,0.149,1.053,0.448,1.399s0.73,0.521,1.296,0.521c0.65,0,1.123-0.152,1.416-0.456
		c0.293-0.305,0.44-0.792,0.44-1.464C78.605,152.44,78.019,151.801,76.846,151.801z"/>
	<path fill="#626466" d="M89.564,155.288l-5.52,0.032c0,0.875,0.21,1.573,0.632,2.096c0.421,0.523,0.983,0.784,1.688,0.784
		c0.234,0,0.47-0.021,0.704-0.063c0.234-0.043,0.456-0.097,0.664-0.16c0.208-0.064,0.397-0.137,0.568-0.216
		c0.17-0.08,0.314-0.157,0.432-0.232l0.32-0.208l0.56,0.832c-0.362,0.288-0.695,0.515-1,0.68c-0.304,0.166-0.661,0.315-1.071,0.448
		c-0.411,0.133-0.856,0.2-1.336,0.2c-1.259,0-2.214-0.382-2.864-1.145c-0.651-0.762-0.977-1.805-0.977-3.128
		c0-0.661,0.097-1.269,0.288-1.823c0.192-0.555,0.462-1.032,0.809-1.433c0.346-0.399,0.76-0.712,1.239-0.936
		c0.48-0.225,1.009-0.336,1.584-0.336c2.24,0,3.36,1.253,3.36,3.76L89.564,155.288z M84.108,154.12h3.84
		c0-0.65-0.139-1.179-0.416-1.584s-0.726-0.607-1.344-0.607c-0.607,0-1.094,0.205-1.456,0.615
		C84.37,152.955,84.162,153.48,84.108,154.12z"/>
	<path fill="#626466" d="M93.485,150.84l0.144,1.137c0.106-0.086,0.256-0.203,0.448-0.353s0.418-0.293,0.68-0.432
		s0.55-0.259,0.864-0.36c0.314-0.101,0.643-0.151,0.984-0.151c0.863,0,1.506,0.253,1.928,0.76c0.421,0.507,0.632,1.214,0.632,2.12
		v4.479l1.2,0.4v0.88h-3.84v-0.88l1.04-0.4v-4.319c0-0.576-0.112-1-0.336-1.272c-0.225-0.271-0.565-0.408-1.024-0.408
		c-0.224,0-0.445,0.029-0.664,0.088c-0.219,0.06-0.422,0.137-0.608,0.232s-0.352,0.2-0.495,0.312
		c-0.145,0.112-0.265,0.222-0.36,0.328l-0.272,0.32v4.72l1.04,0.4v0.88h-4v-0.88l1.36-0.4v-5.92l-1.36-0.319v-0.881L93.485,150.84z"
		/>
	<path fill="#626466" d="M108.685,155.288l-5.52,0.032c0,0.875,0.21,1.573,0.632,2.096c0.421,0.523,0.983,0.784,1.688,0.784
		c0.234,0,0.47-0.021,0.704-0.063c0.234-0.043,0.456-0.097,0.664-0.16c0.208-0.064,0.397-0.137,0.568-0.216
		c0.17-0.08,0.314-0.157,0.432-0.232l0.32-0.208l0.56,0.832c-0.362,0.288-0.695,0.515-1,0.68c-0.304,0.166-0.661,0.315-1.071,0.448
		c-0.411,0.133-0.856,0.2-1.336,0.2c-1.259,0-2.214-0.382-2.864-1.145c-0.651-0.762-0.977-1.805-0.977-3.128
		c0-0.661,0.097-1.269,0.288-1.823c0.192-0.555,0.462-1.032,0.809-1.433c0.346-0.399,0.76-0.712,1.239-0.936
		c0.48-0.225,1.009-0.336,1.584-0.336c2.24,0,3.36,1.253,3.36,3.76L108.685,155.288z M103.229,154.12h3.84
		c0-0.65-0.139-1.179-0.416-1.584s-0.726-0.607-1.344-0.607c-0.607,0-1.094,0.205-1.456,0.615
		C103.49,152.955,103.282,153.48,103.229,154.12z"/>
	<path fill="#626466" d="M112.604,150.84l0.144,1.169c0.789-0.886,1.595-1.328,2.416-1.328c0.438,0,0.858,0.063,1.264,0.191
		l0.177,0.048l-0.08,2.32h-1.04l-0.24-1.2c-0.917,0-1.69,0.416-2.32,1.248v4.752l1.601,0.4v0.88h-4.561v-0.88l1.36-0.4v-5.92
		l-1.36-0.319v-0.881L112.604,150.84z"/>
	<path fill="#626466" d="M117.964,151.32c1.151-0.427,2.208-0.64,3.168-0.64c0.938,0,1.658,0.189,2.16,0.567
		c0.501,0.379,0.752,1.017,0.752,1.912v4.88l1.279,0.32v0.88l-2.479,0.08l-0.336-1.12c-0.854,0.854-1.696,1.28-2.528,1.28
		s-1.456-0.208-1.872-0.624s-0.624-1.008-0.624-1.776c0-1.653,1.227-2.479,3.681-2.479h1.279v-1.28c0-0.96-0.507-1.44-1.52-1.44
		c-0.576,0-1.051,0.06-1.424,0.177l-0.192,0.063l-0.224,1.2h-1.04L117.964,151.32z M122.443,155.641h-1.12
		c-0.8,0-1.367,0.104-1.703,0.312c-0.337,0.208-0.505,0.531-0.505,0.968c0,0.416,0.099,0.734,0.297,0.952
		c0.197,0.219,0.482,0.328,0.855,0.328c0.182,0,0.365-0.032,0.552-0.096c0.187-0.064,0.368-0.145,0.544-0.24
		c0.177-0.096,0.334-0.2,0.473-0.312c0.139-0.112,0.25-0.217,0.336-0.312l0.271-0.32V155.641z"/>
	<path fill="#626466" d="M129.195,147v11.04l1.601,0.4v0.88h-4.592v-0.88l1.359-0.4v-9.76l-1.359-0.32v-0.88L129.195,147z"/>
</g>
</svg>
