<?xml version="1.0" encoding="utf-8"?>
<!-- Generator: Adobe Illustrator 16.0.0, SVG Export Plug-In . SVG Version: 6.00 Build 0)  -->
<!DOCTYPE svg PUBLIC "-//W3C//DTD SVG 1.1//EN" "http://www.w3.org/Graphics/SVG/1.1/DTD/svg11.dtd">
<svg version="1.1" id="Capa_1" xmlns="http://www.w3.org/2000/svg" xmlns:xlink="http://www.w3.org/1999/xlink" x="0px" y="0px"
	 width="202.438px" height="218.98px" viewBox="0 0 202.438 218.98" enable-background="new 0 0 202.438 218.98"
	 xml:space="preserve">
<path fill="none" stroke="#5CA9EF" stroke-width="4" stroke-miterlimit="10" d="M3.771,73.275c0,0-0.541-21.334,21.125-33.334
	c0,0,42.541-24.332,51.209-30.332c0,0,23.332-16.667,48-0.667c0,0,30.666,19.333,48,28c0,0,27.334,11.999,27.334,39.333
	c0,0,0.998,55.667,0.998,68.333c0,0,0.334,18.666-14.332,27.667c0,0-37.334,23.333-60,36c0,0-21.332,18.668-48.666,1.334
	c0,0-38.666-22.666-50-28c0,0-26.22-16.368-24.22-34.368C3.219,147.24,4.104,99.942,3.771,73.275z"/>
<g>
	<path fill="#5CA9EF" d="M60.521,129.073l-0.434-1.823c-0.576-0.214-1.258-0.318-2.047-0.318c-1.088,0-1.92,0.396-2.496,1.185
		s-0.863,1.894-0.863,3.312c0,1.432,0.312,2.49,0.938,3.186c0.623,0.693,1.457,1.04,2.504,1.04c0.231,0,0.485-0.025,0.76-0.08
		c0.271-0.053,0.535-0.13,0.791-0.23c0.256-0.102,0.492-0.208,0.705-0.318c0.213-0.111,0.389-0.223,0.524-0.328l0.416-0.318
		l0.644,1.04c-0.234,0.233-0.504,0.453-0.812,0.654c-0.303,0.203-0.629,0.383-0.977,0.536c-0.346,0.154-0.705,0.272-1.078,0.358
		c-0.375,0.085-0.754,0.128-1.137,0.128c-1.633,0-2.896-0.472-3.785-1.415s-1.336-2.321-1.336-4.137
		c0-0.907,0.127-1.729,0.377-2.465s0.611-1.362,1.08-1.881c0.469-0.517,1.031-0.917,1.688-1.198c0.656-0.283,1.396-0.426,2.22-0.426
		c0.241,0,0.514,0.021,0.807,0.058c0.295,0.037,0.582,0.088,0.865,0.15c0.278,0.062,0.549,0.132,0.799,0.2
		c0.252,0.067,0.457,0.136,0.617,0.2l0.512,0.19l-0.08,2.702L60.521,129.073L60.521,129.073z"/>
	<path fill="#5CA9EF" d="M63.16,132.816c0-0.685,0.098-1.304,0.295-1.862c0.194-0.562,0.479-1.038,0.842-1.434
		c0.361-0.396,0.791-0.697,1.287-0.912c0.496-0.213,1.043-0.318,1.641-0.318c1.193,0,2.121,0.378,2.783,1.136
		c0.662,0.76,0.992,1.808,0.992,3.151c0,0.66-0.099,1.267-0.287,1.814c-0.193,0.55-0.463,1.022-0.812,1.424
		c-0.348,0.398-0.768,0.712-1.264,0.938s-1.049,0.336-1.656,0.336c-1.217,0-2.155-0.36-2.821-1.088
		C63.494,135.275,63.16,134.214,63.16,132.816z M67.16,129.568c-1.55,0-2.32,1.04-2.32,3.12s0.746,3.12,2.24,3.12
		c0.776,0,1.346-0.269,1.703-0.802c0.354-0.531,0.534-1.333,0.534-2.398C69.32,130.582,68.6,129.568,67.16,129.568z"/>
	<path fill="#5CA9EF" d="M72.279,132.816c0-0.685,0.103-1.304,0.3-1.862c0.194-0.562,0.477-1.038,0.84-1.434
		c0.36-0.396,0.793-0.697,1.289-0.912c0.494-0.213,1.041-0.318,1.639-0.318c1.195,0,2.123,0.378,2.785,1.136
		c0.66,0.76,0.992,1.81,0.992,3.152c0,0.66-0.101,1.267-0.289,1.814c-0.191,0.55-0.461,1.022-0.812,1.424
		c-0.346,0.398-0.768,0.712-1.264,0.938s-1.047,0.336-1.656,0.336c-1.215,0-2.156-0.36-2.824-1.088
		C72.613,135.275,72.279,134.214,72.279,132.816z M76.279,129.568c-1.547,0-2.315,1.04-2.315,3.12s0.746,3.12,2.238,3.12
		c0.776,0,1.348-0.269,1.702-0.802c0.357-0.531,0.535-1.333,0.535-2.398C78.439,130.582,77.721,129.568,76.279,129.568z"/>
	<path fill="#5CA9EF" d="M84.041,128.448l0.143,1.169c0.789-0.887,1.596-1.328,2.416-1.328c0.438,0,0.859,0.063,1.264,0.19
		l0.181,0.048l-0.08,2.32H86.92l-0.24-1.2c-0.916,0-1.688,0.416-2.32,1.248v4.752l1.604,0.398v0.88H81.4v-0.88l1.359-0.398v-5.92
		l-1.359-0.318v-0.882L84.041,128.448z"/>
	<path fill="#5CA9EF" d="M96.279,124.608v11.04l1.361,0.318v0.882l-2.721,0.079l-0.129-0.911c-0.715,0.715-1.597,1.07-2.642,1.07
		c-1.032,0-1.832-0.371-2.393-1.11c-0.562-0.741-0.84-1.77-0.84-3.08c0-1.396,0.354-2.517,1.071-3.354
		c0.716-0.838,1.771-1.256,3.169-1.256c0.521,0,1.026,0.085,1.52,0.256v-2.654l-1.359-0.32v-0.88L96.279,124.608z M94.68,134.608
		v-4.72c-0.373-0.215-0.934-0.32-1.68-0.32c-1.603,0-2.4,1.065-2.4,3.2c0,0.938,0.162,1.681,0.488,2.226
		c0.324,0.544,0.828,0.814,1.512,0.814c0.523,0,0.965-0.141,1.328-0.416C94.27,135.115,94.52,134.854,94.68,134.608z"/>
	<path fill="#5CA9EF" d="M101.639,128.448v7.199l1.201,0.398v0.88h-4.16v-0.88l1.359-0.398v-5.92l-1.359-0.318v-0.882
		L101.639,128.448z M100.76,124.688c0.693,0,1.039,0.398,1.039,1.2c0,0.329-0.117,0.587-0.354,0.769
		c-0.231,0.182-0.481,0.271-0.752,0.271c-0.284,0-0.521-0.101-0.7-0.298c-0.185-0.195-0.273-0.472-0.273-0.822
		c0-0.354,0.1-0.626,0.297-0.824C100.213,124.787,100.461,124.688,100.76,124.688z"/>
	<path fill="#5CA9EF" d="M106.68,128.448l0.146,1.137c0.104-0.086,0.256-0.203,0.446-0.354c0.191-0.148,0.418-0.293,0.683-0.434
		c0.262-0.139,0.549-0.259,0.86-0.358c0.314-0.103,0.646-0.15,0.984-0.15c0.863,0,1.506,0.253,1.928,0.76
		c0.422,0.509,0.633,1.216,0.633,2.12v4.479l1.199,0.398v0.88h-3.84v-0.88l1.041-0.398v-4.318c0-0.576-0.113-1-0.336-1.271
		c-0.225-0.271-0.566-0.408-1.025-0.408c-0.223,0-0.442,0.029-0.664,0.088c-0.219,0.061-0.422,0.138-0.604,0.231
		c-0.188,0.097-0.354,0.199-0.496,0.312c-0.146,0.112-0.264,0.223-0.359,0.328l-0.271,0.32v4.72l1.041,0.398v0.882h-4v-0.882
		l1.356-0.398v-5.92l-1.356-0.318v-0.882L106.68,128.448z"/>
	<path fill="#5CA9EF" d="M115.238,128.929c1.152-0.429,2.209-0.642,3.17-0.642c0.938,0,1.656,0.188,2.158,0.566
		c0.502,0.379,0.752,1.018,0.752,1.912v4.88l1.279,0.318v0.882l-2.479,0.078l-0.336-1.118c-0.854,0.854-1.697,1.278-2.529,1.278
		s-1.455-0.208-1.871-0.624s-0.625-1.008-0.625-1.774c0-1.652,1.227-2.479,3.682-2.479h1.279v-1.279c0-0.961-0.508-1.438-1.52-1.438
		c-0.576,0-1.054,0.06-1.427,0.177l-0.19,0.063l-0.226,1.2h-1.041L115.238,128.929z M119.719,133.249h-1.121
		c-0.799,0-1.367,0.104-1.703,0.312s-0.504,0.529-0.504,0.968c0,0.416,0.098,0.734,0.297,0.952c0.197,0.22,0.482,0.328,0.855,0.328
		c0.182,0,0.365-0.032,0.551-0.098c0.188-0.062,0.369-0.146,0.545-0.238c0.176-0.096,0.334-0.2,0.473-0.312
		c0.142-0.112,0.25-0.218,0.339-0.312l0.271-0.32L119.719,133.249L119.719,133.249z"/>
	<path fill="#5CA9EF" d="M131.158,124.608v11.04l1.358,0.318v0.882l-2.721,0.079l-0.129-0.911c-0.715,0.715-1.594,1.07-2.642,1.07
		c-1.032,0-1.83-0.371-2.393-1.11c-0.561-0.741-0.84-1.77-0.84-3.08c0-1.396,0.354-2.517,1.072-3.354
		c0.715-0.838,1.77-1.256,3.168-1.256c0.521,0,1.026,0.085,1.52,0.256v-2.654l-1.357-0.32v-0.88L131.158,124.608z M129.559,134.608
		v-4.72c-0.373-0.215-0.934-0.32-1.68-0.32c-1.603,0-2.4,1.065-2.4,3.2c0,0.938,0.162,1.681,0.488,2.226
		c0.324,0.544,0.828,0.814,1.512,0.814c0.523,0,0.965-0.141,1.328-0.416C129.148,135.115,129.398,134.854,129.559,134.608z"/>
	<path fill="#5CA9EF" d="M133.559,132.816c0-0.685,0.101-1.304,0.295-1.862c0.197-0.562,0.479-1.038,0.842-1.434
		c0.361-0.396,0.791-0.697,1.287-0.912c0.496-0.213,1.043-0.318,1.644-0.318c1.19,0,2.121,0.378,2.783,1.136
		c0.659,0.76,0.989,1.81,0.989,3.152c0,0.66-0.096,1.267-0.287,1.814c-0.19,0.55-0.463,1.022-0.809,1.424
		c-0.348,0.398-0.768,0.712-1.264,0.938s-1.049,0.336-1.656,0.336c-1.217,0-2.158-0.36-2.824-1.088
		C133.893,135.275,133.559,134.214,133.559,132.816z M137.559,129.568c-1.547,0-2.32,1.04-2.32,3.12s0.746,3.12,2.24,3.12
		c0.779,0,1.349-0.269,1.703-0.802c0.357-0.531,0.537-1.333,0.537-2.398C139.719,130.582,138.998,129.568,137.559,129.568z"/>
	<path fill="#5CA9EF" d="M145.318,128.448l0.146,1.169c0.789-0.887,1.594-1.328,2.416-1.328c0.438,0,0.854,0.063,1.264,0.19
		l0.176,0.048l-0.078,2.32h-1.04l-0.24-1.2c-0.918,0-1.691,0.416-2.32,1.248v4.752l1.603,0.398v0.88h-4.562v-0.88l1.361-0.398v-5.92
		l-1.361-0.318v-0.882L145.318,128.448z"/>
	<path fill="#5CA9EF" d="M71.689,148.608v11.04l1.359,0.318v0.882l-2.721,0.08l-0.127-0.912c-0.718,0.715-1.599,1.07-2.644,1.07
		c-1.035,0-1.832-0.371-2.393-1.11c-0.562-0.741-0.84-1.77-0.84-3.08c0-1.396,0.354-2.517,1.069-3.354
		c0.715-0.838,1.771-1.256,3.168-1.256c0.523,0,1.029,0.085,1.521,0.256v-2.654l-1.361-0.32v-0.88L71.689,148.608z M70.09,158.608
		v-4.72c-0.375-0.215-0.937-0.32-1.682-0.32c-1.603,0-2.398,1.065-2.398,3.2c0,0.938,0.162,1.681,0.486,2.226
		c0.323,0.544,0.83,0.814,1.514,0.814c0.521,0,0.965-0.141,1.326-0.416C69.678,159.115,69.93,158.854,70.09,158.608z"/>
	<path fill="#5CA9EF" d="M81.289,156.896l-5.521,0.032c0,0.875,0.209,1.571,0.631,2.096c0.422,0.521,0.984,0.784,1.688,0.784
		c0.231,0,0.471-0.021,0.705-0.063c0.231-0.043,0.455-0.098,0.664-0.16c0.207-0.062,0.396-0.137,0.565-0.216
		c0.17-0.08,0.314-0.157,0.435-0.23l0.317-0.208l0.562,0.83c-0.361,0.288-0.695,0.517-1,0.682c-0.303,0.166-0.66,0.313-1.07,0.448
		c-0.412,0.133-0.854,0.198-1.336,0.198c-1.26,0-2.215-0.382-2.865-1.146c-0.647-0.762-0.977-1.805-0.977-3.128
		c0-0.661,0.098-1.271,0.289-1.822c0.188-0.555,0.461-1.032,0.809-1.434c0.349-0.398,0.76-0.712,1.238-0.938s1.01-0.336,1.584-0.336
		c2.24,0,3.361,1.253,3.361,3.76L81.289,156.896z M75.832,155.729h3.84c0-0.649-0.139-1.181-0.416-1.584
		c-0.277-0.404-0.728-0.606-1.344-0.606c-0.607,0-1.097,0.205-1.455,0.614C76.094,154.563,75.887,155.089,75.832,155.729z"/>
	<path fill="#5CA9EF" d="M85.049,152.448l0.127,0.896c0.746-0.702,1.559-1.056,2.432-1.056c1.131,0,1.986,0.37,2.568,1.11
		c0.582,0.742,0.873,1.795,0.873,3.16c0,0.662-0.088,1.271-0.264,1.822c-0.181,0.557-0.447,1.032-0.812,1.434
		c-0.363,0.398-0.812,0.712-1.352,0.938c-0.539,0.226-1.172,0.336-1.896,0.336c-0.449,0-0.928-0.073-1.438-0.226v2.546l1.68,0.318
		v0.88h-4.561v-0.88l1.276-0.318v-9.682l-1.356-0.318v-0.882L85.049,152.448z M85.289,154.688v4.801
		c0.33,0.214,0.891,0.319,1.68,0.319c1.6,0,2.4-1.065,2.4-3.2c0-0.938-0.175-1.68-0.517-2.226c-0.34-0.544-0.86-0.814-1.563-0.814
		c-0.406,0-0.787,0.095-1.146,0.28C85.786,154.034,85.502,154.315,85.289,154.688z"/>
	<path fill="#5CA9EF" d="M92.408,156.816c0-0.685,0.098-1.304,0.295-1.862c0.194-0.562,0.479-1.038,0.842-1.434
		c0.358-0.396,0.791-0.697,1.287-0.912c0.496-0.213,1.043-0.318,1.641-0.318c1.193,0,2.121,0.378,2.783,1.136
		c0.662,0.76,0.992,1.81,0.992,3.152c0,0.66-0.099,1.269-0.287,1.814c-0.193,0.55-0.463,1.022-0.812,1.424
		c-0.348,0.398-0.768,0.712-1.264,0.938s-1.049,0.336-1.656,0.336c-1.217,0-2.155-0.36-2.821-1.088
		C92.742,159.275,92.408,158.214,92.408,156.816z M96.408,153.568c-1.55,0-2.32,1.04-2.32,3.12s0.746,3.12,2.24,3.12
		c0.776,0,1.346-0.269,1.7-0.802c0.357-0.531,0.537-1.333,0.537-2.398C98.568,154.582,97.848,153.568,96.408,153.568z"/>
	<path fill="#5CA9EF" d="M104.168,152.448l0.145,1.169c0.789-0.887,1.597-1.328,2.416-1.328c0.438,0,0.857,0.063,1.267,0.19
		l0.176,0.048l-0.08,2.32h-1.039l-0.24-1.2c-0.918,0-1.688,0.416-2.317,1.248v4.752l1.6,0.398v0.882h-4.562v-0.882l1.36-0.398v-5.92
		l-1.36-0.318v-0.882L104.168,152.448z"/>
	<path fill="#5CA9EF" d="M111.848,150.192v2.336h2.32v1.2h-2.32v5.137c0,0.65,0.271,0.977,0.801,0.977
		c0.345,0,0.761-0.134,1.248-0.398l0.435,0.85c-0.728,0.533-1.474,0.8-2.24,0.8c-0.543,0-0.986-0.179-1.328-0.534
		c-0.34-0.356-0.512-0.952-0.512-1.784v-5.04h-1.603v-1.04l1.603-0.159v-2.017L111.848,150.192z"/>
	<path fill="#5CA9EF" d="M118.248,152.448v7.199l1.201,0.398v0.88h-4.16v-0.88l1.356-0.398v-5.92l-1.356-0.318v-0.882
		L118.248,152.448z M117.369,148.688c0.69,0,1.039,0.398,1.039,1.2c0,0.329-0.117,0.587-0.354,0.769
		c-0.234,0.182-0.484,0.271-0.752,0.271c-0.287,0-0.521-0.101-0.703-0.298c-0.182-0.195-0.271-0.472-0.271-0.822
		c0-0.354,0.1-0.626,0.297-0.824C116.822,148.787,117.07,148.688,117.369,148.688z"/>
	<path fill="#5CA9EF" d="M123.688,152.448v0.961l-1.119,0.158l1.904,5.92l1.92-5.84l-1.104-0.238v-0.882l3.584-0.079v0.961
		l-0.881,0.158l-2.724,7.358h-1.76l-2.623-7.278l-0.801-0.238v-0.882L123.688,152.448z"/>
	<path fill="#5CA9EF" d="M129.592,156.816c0-0.685,0.098-1.304,0.295-1.862c0.197-0.562,0.479-1.038,0.842-1.434
		c0.361-0.396,0.791-0.697,1.287-0.912c0.496-0.213,1.043-0.318,1.644-0.318c1.19,0,2.118,0.378,2.78,1.136
		c0.662,0.76,0.992,1.81,0.992,3.152c0,0.66-0.096,1.269-0.287,1.814c-0.19,0.55-0.463,1.022-0.809,1.424
		c-0.351,0.398-0.771,0.712-1.267,0.938c-0.493,0.226-1.049,0.336-1.653,0.336c-1.217,0-2.158-0.36-2.824-1.088
		C129.926,159.275,129.592,158.214,129.592,156.816z M133.592,153.568c-1.547,0-2.32,1.04-2.32,3.12s0.746,3.12,2.24,3.12
		c0.779,0,1.346-0.269,1.703-0.802c0.354-0.531,0.537-1.333,0.537-2.398C135.752,154.582,135.031,153.568,133.592,153.568z"/>
</g>
<g>
	<path fill="#5CA9EF" d="M126.115,98.742c0-7.764-15-14.062-18.779-14.733c-0.205-0.27-0.399-1.186-0.453-2.087
		c0.861-0.945,3.249-3.838,4.077-7.619c0.848-0.341,1.568-1.185,2.016-2.397c0.618-1.683,0.661-4.01-0.579-5.458
		c0.006-0.062,0.015-0.131,0.021-0.202c0.229-2.128,0.834-7.78-2.461-11.448c-1.953-2.173-4.916-3.274-8.81-3.274
		c-3.893,0-6.854,1.103-8.809,3.275c-3.297,3.671-2.688,9.324-2.459,11.452c0.008,0.07,0.016,0.136,0.021,0.198
		c-1.239,1.446-1.198,3.771-0.58,5.455c0.445,1.215,1.169,2.06,2.018,2.399c0.828,3.782,3.216,6.675,4.077,7.62
		c-0.053,0.899-0.247,1.815-0.453,2.086c-3.781,0.673-18.779,6.972-18.779,14.733v1h49.933V98.742L126.115,98.742z M93.183,73.309
		l-0.137-0.838h-0.851c-0.26,0-0.696-0.44-0.997-1.259c-0.454-1.235-0.435-2.933,0.388-3.629l0.374-0.317l-0.022-0.491
		c-0.009-0.168-0.034-0.42-0.067-0.739c-0.224-2.062-0.743-6.895,1.958-9.901c1.557-1.733,4.02-2.612,7.319-2.612
		c3.301,0,5.765,0.879,7.32,2.611c2.7,3.006,2.182,7.835,1.961,9.897c-0.035,0.322-0.062,0.576-0.069,0.745l-0.021,0.49l0.374,0.316
		c0.821,0.698,0.841,2.396,0.386,3.632c-0.299,0.815-0.736,1.257-0.996,1.257h-0.85l-0.137,0.838
		c-0.694,4.235-3.919,7.487-3.951,7.521l-0.299,0.298l0.004,0.421c0.006,0.751,0.094,2.121,0.571,3.144
		c-3.803,1.215-6.861,0.669-8.619,0.08c0.513-1.028,0.603-2.452,0.607-3.224l0.002-0.422l-0.297-0.297
		C97.101,80.797,93.877,77.545,93.183,73.309z M78.304,97.742c1.262-5.299,12.043-10.616,16.455-11.649
		c1.014,0.483,3.211,1.331,6.193,1.331c1.895,0,4.105-0.351,6.525-1.346c4.373,1,15.247,6.341,16.516,11.664H78.304z"/>
</g>
</svg>
