<?xml version="1.0" encoding="utf-8"?>
<!-- Generator: Adobe Illustrator 16.0.0, SVG Export Plug-In . SVG Version: 6.00 Build 0)  -->
<!DOCTYPE svg PUBLIC "-//W3C//DTD SVG 1.1//EN" "http://www.w3.org/Graphics/SVG/1.1/DTD/svg11.dtd">
<svg version="1.1" id="Capa_1" xmlns="http://www.w3.org/2000/svg" xmlns:xlink="http://www.w3.org/1999/xlink" x="0px" y="0px"
	 width="202.438px" height="218.981px" viewBox="0 0 202.438 218.981" enable-background="new 0 0 202.438 218.981"
	 xml:space="preserve">
<path fill="none" stroke="#5CA9EF" stroke-width="4" stroke-miterlimit="10" d="M3.771,73.275c0,0-0.541-21.334,21.125-33.334
	c0,0,42.541-24.332,51.209-30.332c0,0,23.332-16.667,48-0.667c0,0,30.666,19.333,48,28c0,0,27.334,11.999,27.334,39.333
	c0,0,0.998,55.667,0.998,68.333c0,0,0.334,18.666-14.332,27.667c0,0-37.334,23.333-60,36c0,0-21.332,18.668-48.666,1.334
	c0,0-38.666-22.666-50-28c0,0-27.334-16.667-25.334-34.667C2.105,146.942,4.104,99.942,3.771,73.275z"/>
<g>
	<path fill="#626466" d="M53.084,129.849c0-0.896,0.119-1.707,0.359-2.433c0.24-0.725,0.59-1.347,1.049-1.863
		c0.457-0.518,1.004-0.912,1.639-1.185c0.635-0.271,1.342-0.408,2.121-0.408c0.777,0,1.477,0.131,2.096,0.393
		s1.145,0.638,1.576,1.128s0.76,1.083,0.984,1.775c0.223,0.694,0.336,1.473,0.336,2.337c0,0.863-0.129,1.655-0.385,2.376
		c-0.256,0.72-0.615,1.338-1.08,1.855c-0.463,0.518-1.021,0.923-1.672,1.216c-0.65,0.294-1.371,0.44-2.16,0.44
		c-1.568,0-2.77-0.485-3.607-1.456S53.084,131.662,53.084,129.849z M58.203,125.32c-2.186,0-3.279,1.467-3.279,4.4
		s1.039,4.399,3.119,4.399c1.066,0,1.895-0.373,2.48-1.12c0.586-0.746,0.881-1.866,0.881-3.359
		C61.404,126.761,60.336,125.32,58.203,125.32z"/>
	<path fill="#626466" d="M67.484,126.84l0.143,1.169c0.789-0.886,1.596-1.328,2.416-1.328c0.438,0,0.859,0.063,1.264,0.191
		l0.178,0.048l-0.08,2.32h-1.041l-0.24-1.2c-0.916,0-1.689,0.416-2.32,1.248v4.752l1.602,0.4v0.88h-4.561v-0.88l1.359-0.4v-5.92
		l-1.359-0.319v-0.881L67.484,126.84z"/>
	<path fill="#626466" d="M75.963,132.761c-0.469,0-0.869-0.049-1.199-0.145l-0.08,1.504h2.479c1.047,0,1.842,0.197,2.385,0.592
		c0.545,0.396,0.816,0.992,0.816,1.792c0,0.864-0.352,1.55-1.057,2.057c-0.703,0.506-1.738,0.76-3.104,0.76
		c-2.561,0-3.84-0.773-3.84-2.32c0-0.672,0.357-1.242,1.072-1.712c0.17-0.106,0.373-0.202,0.607-0.288
		c-0.287-0.042-0.52-0.144-0.695-0.304s-0.264-0.341-0.264-0.544c0-0.352,0.207-0.864,0.623-1.536l0.209-0.336
		c-0.098-0.032-0.229-0.128-0.393-0.288c-0.166-0.16-0.303-0.32-0.408-0.479c-0.289-0.448-0.432-1.019-0.432-1.712
		c0-1.014,0.316-1.787,0.951-2.32s1.49-0.8,2.568-0.8c0.598,0,1.072,0.074,1.424,0.224l0.176,0.08l2.801-0.064v0.881l-1.553,0.224
		c0.289,0.384,0.432,0.923,0.432,1.616c0,1.045-0.314,1.826-0.943,2.344S77.051,132.761,75.963,132.761z M76.764,135.32h-1.76
		c-0.055,0.021-0.158,0.088-0.312,0.2c-0.154,0.111-0.275,0.216-0.359,0.312c-0.246,0.277-0.369,0.587-0.369,0.929
		c0,0.522,0.205,0.88,0.615,1.071c0.412,0.192,1.033,0.288,1.865,0.288c1.6,0,2.4-0.507,2.4-1.52c0-0.491-0.174-0.827-0.521-1.008
		C77.977,135.411,77.457,135.32,76.764,135.32z M76.123,127.801c-1.227,0-1.84,0.64-1.84,1.92c0,0.586,0.148,1.053,0.447,1.399
		s0.73,0.521,1.297,0.521c0.65,0,1.123-0.152,1.416-0.456c0.293-0.305,0.439-0.792,0.439-1.464
		C77.883,128.44,77.297,127.801,76.123,127.801z"/>
	<path fill="#626466" d="M82.203,127.32c1.15-0.427,2.207-0.64,3.168-0.64c0.938,0,1.658,0.189,2.16,0.567
		c0.5,0.379,0.752,1.017,0.752,1.912v4.88l1.279,0.32v0.88l-2.48,0.08l-0.336-1.12c-0.854,0.854-1.695,1.28-2.527,1.28
		s-1.457-0.208-1.873-0.624s-0.623-1.008-0.623-1.776c0-1.653,1.227-2.479,3.68-2.479h1.279v-1.28c0-0.96-0.506-1.44-1.52-1.44
		c-0.576,0-1.051,0.06-1.424,0.177l-0.191,0.063l-0.225,1.2h-1.039L82.203,127.32z M86.682,131.641h-1.119
		c-0.801,0-1.367,0.104-1.703,0.312c-0.338,0.208-0.506,0.531-0.506,0.968c0,0.416,0.1,0.734,0.297,0.952
		c0.197,0.219,0.482,0.328,0.855,0.328c0.182,0,0.365-0.032,0.553-0.096c0.186-0.064,0.367-0.145,0.543-0.24
		c0.178-0.096,0.334-0.2,0.473-0.312c0.139-0.112,0.25-0.217,0.336-0.312l0.271-0.32V131.641z"/>
	<path fill="#626466" d="M93.322,126.84l0.145,1.137c0.105-0.086,0.256-0.203,0.447-0.353c0.193-0.149,0.418-0.293,0.68-0.432
		s0.551-0.259,0.865-0.36c0.314-0.101,0.643-0.151,0.984-0.151c0.863,0,1.506,0.253,1.928,0.76c0.42,0.507,0.631,1.214,0.631,2.12
		v4.479l1.201,0.4v0.88h-3.84v-0.88l1.039-0.4v-4.319c0-0.576-0.111-1-0.336-1.272c-0.225-0.271-0.564-0.408-1.023-0.408
		c-0.225,0-0.445,0.029-0.664,0.088c-0.219,0.06-0.422,0.137-0.609,0.232c-0.186,0.096-0.352,0.2-0.494,0.312
		c-0.145,0.112-0.266,0.222-0.361,0.328l-0.271,0.32v4.72l1.039,0.4v0.88h-4v-0.88l1.361-0.4v-5.92l-1.361-0.319v-0.881
		L93.322,126.84z"/>
	<path fill="#626466" d="M104.281,126.84v7.2l1.201,0.4v0.88h-4.16v-0.88l1.359-0.4v-5.92l-1.359-0.319v-0.881L104.281,126.84z
		 M103.402,123.08c0.693,0,1.039,0.4,1.039,1.2c0,0.331-0.117,0.587-0.352,0.768c-0.234,0.182-0.484,0.272-0.752,0.272
		c-0.287,0-0.523-0.099-0.703-0.296c-0.182-0.197-0.273-0.472-0.273-0.824c0-0.352,0.1-0.626,0.297-0.824
		C102.855,123.179,103.104,123.08,103.402,123.08z"/>
	<path fill="#626466" d="M113.561,126.84v1.2l-4.688,6.08h3.264l0.225-1.28h1.121v2.48h-6.4v-1.2l4.672-6.08h-3.008l-0.225,1.2
		h-1.119v-2.4H113.561z"/>
	<path fill="#626466" d="M115.322,127.32c1.15-0.427,2.207-0.64,3.168-0.64c0.938,0,1.658,0.189,2.16,0.567
		c0.5,0.379,0.752,1.017,0.752,1.912v4.88l1.279,0.32v0.88l-2.48,0.08l-0.336-1.12c-0.854,0.854-1.695,1.28-2.527,1.28
		s-1.457-0.208-1.873-0.624s-0.623-1.008-0.623-1.776c0-1.653,1.227-2.479,3.68-2.479h1.279v-1.28c0-0.96-0.506-1.44-1.52-1.44
		c-0.576,0-1.051,0.06-1.424,0.177l-0.191,0.063l-0.225,1.2h-1.039L115.322,127.32z M119.801,131.641h-1.119
		c-0.801,0-1.367,0.104-1.703,0.312c-0.338,0.208-0.506,0.531-0.506,0.968c0,0.416,0.1,0.734,0.297,0.952
		c0.197,0.219,0.482,0.328,0.855,0.328c0.182,0,0.365-0.032,0.553-0.096c0.186-0.064,0.367-0.145,0.543-0.24
		c0.178-0.096,0.334-0.2,0.473-0.312c0.139-0.112,0.25-0.217,0.336-0.312l0.271-0.32V131.641z"/>
	<path fill="#626466" d="M131.242,123v11.04l1.359,0.32v0.88l-2.721,0.08l-0.127-0.912c-0.715,0.715-1.596,1.072-2.641,1.072
		c-1.035,0-1.832-0.371-2.393-1.112c-0.559-0.741-0.84-1.768-0.84-3.08c0-1.397,0.357-2.515,1.072-3.352
		c0.715-0.838,1.771-1.256,3.168-1.256c0.523,0,1.029,0.085,1.521,0.256v-2.656l-1.361-0.32v-0.88L131.242,123z M129.643,133v-4.72
		c-0.375-0.213-0.934-0.32-1.682-0.32c-1.6,0-2.398,1.067-2.398,3.2c0,0.938,0.162,1.68,0.486,2.225
		c0.326,0.544,0.83,0.815,1.514,0.815c0.521,0,0.965-0.139,1.326-0.416C129.23,133.507,129.482,133.246,129.643,133z"/>
	<path fill="#626466" d="M133.641,131.208c0-0.683,0.1-1.304,0.297-1.863c0.197-0.561,0.477-1.038,0.84-1.433
		s0.793-0.698,1.289-0.912c0.494-0.213,1.041-0.319,1.639-0.319c1.195,0,2.123,0.378,2.785,1.136
		c0.66,0.758,0.992,1.808,0.992,3.152c0,0.661-0.098,1.267-0.289,1.815c-0.191,0.55-0.461,1.024-0.809,1.424
		c-0.346,0.4-0.768,0.712-1.264,0.937c-0.496,0.224-1.047,0.336-1.656,0.336c-1.215,0-2.156-0.362-2.824-1.088
		C133.975,133.667,133.641,132.605,133.641,131.208z M137.641,127.96c-1.547,0-2.318,1.04-2.318,3.12s0.746,3.12,2.238,3.12
		c0.779,0,1.348-0.267,1.705-0.8s0.535-1.333,0.535-2.4C139.801,128.974,139.082,127.96,137.641,127.96z"/>
	<path fill="#626466" d="M145.402,126.84l0.143,1.169c0.789-0.886,1.596-1.328,2.416-1.328c0.438,0,0.859,0.063,1.264,0.191
		l0.178,0.048l-0.08,2.32h-1.041l-0.24-1.2c-0.916,0-1.689,0.416-2.32,1.248v4.752l1.602,0.4v0.88h-4.561v-0.88l1.359-0.4v-5.92
		l-1.359-0.319v-0.881L145.402,126.84z"/>
</g>
<g>
	
		<path fill-rule="evenodd" clip-rule="evenodd" fill="none" stroke="#5CA9EF" stroke-width="2" stroke-linecap="round" stroke-linejoin="round" stroke-miterlimit="10" d="
		M82.35,56.726v13.66l18.297-4.637V50.333L82.35,56.726z M81.699,70.825l-5.074,1.088l-0.44,19.141l24.462,9.279V66.188
		L81.699,70.825L81.699,70.825z M100.6,100.271l9.027-3.967V79.771l10.361-0.211l-0.211,13.207l5.723-1.986V71.64l-5.951-1.316l0,0
		l0,0h-0.23l0,0L100.6,65.915 M100.791,65.749l18.719,4.408l-0.438-13.432l-18.281-6.393"/>
</g>
</svg>
