<?xml version="1.0" encoding="utf-8"?>
<!-- Generator: Adobe Illustrator 16.0.0, SVG Export Plug-In . SVG Version: 6.00 Build 0)  -->
<!DOCTYPE svg PUBLIC "-//W3C//DTD SVG 1.1//EN" "http://www.w3.org/Graphics/SVG/1.1/DTD/svg11.dtd">
<svg version="1.1" id="Capa_1" xmlns="http://www.w3.org/2000/svg" xmlns:xlink="http://www.w3.org/1999/xlink" x="0px" y="0px"
	 width="202.438px" height="218.981px" viewBox="0 0 202.438 218.981" enable-background="new 0 0 202.438 218.981"
	 xml:space="preserve">
<path fill="none" stroke="#5CA9EF" stroke-width="4" stroke-miterlimit="10" d="M3.771,73.275c0,0-0.541-21.334,21.125-33.334
	c0,0,42.541-24.332,51.209-30.332c0,0,23.332-16.667,48-0.667c0,0,30.666,19.333,48,28c0,0,27.334,11.999,27.334,39.333
	c0,0,0.998,55.667,0.998,68.333c0,0,0.334,18.666-14.332,27.667c0,0-37.334,23.333-60,36c0,0-21.332,18.668-48.666,1.334
	c0,0-38.666-22.666-50-28c0,0-27.334-16.667-25.334-34.667C2.105,146.942,4.104,99.942,3.771,73.275z"/>
<g>
	<g>
		<path fill="none" stroke="#5CA9EF" stroke-width="2" stroke-miterlimit="10" d="M107.008,84.98
			c-1.182-0.188-1.209-3.44-1.209-3.44s3.475-3.441,4.232-8.068c2.037,0,3.295-4.918,1.258-6.649
			c0.084-1.821,2.619-14.301-10.211-14.301c-12.828,0-10.295,12.479-10.209,14.301c-2.039,1.731-0.779,6.649,1.258,6.649
			c0.758,4.627,4.232,8.068,4.232,8.068s-0.027,3.252-1.209,3.44c-3.811,0.605-18.037,6.882-18.037,13.763h47.932
			C125.045,91.862,110.818,85.586,107.008,84.98L107.008,84.98z M107.008,84.98"/>
	</g>
</g>
<g>
	<path fill="#626466" d="M60.521,129.072l-0.434-1.823c-0.576-0.214-1.258-0.32-2.047-0.32c-1.088,0-1.92,0.395-2.496,1.184
		c-0.576,0.79-0.863,1.894-0.863,3.312c0,1.43,0.311,2.49,0.936,3.184c0.623,0.693,1.457,1.04,2.504,1.04
		c0.234,0,0.488-0.026,0.76-0.08c0.271-0.053,0.535-0.13,0.791-0.231s0.492-0.208,0.705-0.32s0.389-0.221,0.527-0.328l0.416-0.319
		l0.641,1.04c-0.234,0.234-0.504,0.453-0.809,0.655c-0.303,0.203-0.629,0.382-0.977,0.536c-0.346,0.155-0.705,0.274-1.078,0.36
		c-0.375,0.085-0.754,0.128-1.137,0.128c-1.633,0-2.895-0.472-3.785-1.416s-1.336-2.322-1.336-4.136
		c0-0.907,0.127-1.729,0.377-2.465c0.25-0.735,0.611-1.362,1.08-1.88c0.469-0.517,1.031-0.917,1.688-1.199
		c0.656-0.283,1.395-0.425,2.217-0.425c0.244,0,0.514,0.02,0.807,0.057c0.295,0.037,0.582,0.088,0.865,0.151
		c0.281,0.064,0.549,0.131,0.799,0.2c0.252,0.069,0.457,0.136,0.617,0.2l0.512,0.192l-0.08,2.703H60.521z"/>
	<path fill="#626466" d="M63.16,132.816c0-0.683,0.098-1.304,0.295-1.863c0.197-0.561,0.479-1.038,0.842-1.433
		c0.361-0.395,0.791-0.698,1.287-0.912c0.496-0.213,1.043-0.319,1.641-0.319c1.193,0,2.121,0.378,2.783,1.136S71,131.232,71,132.577
		c0,0.661-0.096,1.267-0.287,1.815c-0.193,0.55-0.463,1.024-0.809,1.424c-0.348,0.4-0.768,0.712-1.264,0.937
		c-0.496,0.224-1.049,0.336-1.656,0.336c-1.217,0-2.158-0.362-2.824-1.088S63.16,134.214,63.16,132.816z M67.16,129.568
		c-1.547,0-2.32,1.04-2.32,3.12s0.746,3.12,2.24,3.12c0.779,0,1.346-0.267,1.703-0.8s0.537-1.333,0.537-2.4
		C69.32,130.582,68.6,129.568,67.16,129.568z"/>
	<path fill="#626466" d="M72.279,132.816c0-0.683,0.1-1.304,0.297-1.863c0.197-0.561,0.477-1.038,0.84-1.433
		s0.793-0.698,1.289-0.912c0.494-0.213,1.041-0.319,1.639-0.319c1.195,0,2.123,0.378,2.785,1.136
		c0.66,0.758,0.992,1.808,0.992,3.152c0,0.661-0.098,1.267-0.289,1.815c-0.191,0.55-0.461,1.024-0.809,1.424
		c-0.346,0.4-0.768,0.712-1.264,0.937c-0.496,0.224-1.047,0.336-1.656,0.336c-1.215,0-2.156-0.362-2.824-1.088
		C72.613,135.275,72.279,134.214,72.279,132.816z M76.279,129.568c-1.547,0-2.318,1.04-2.318,3.12s0.746,3.12,2.238,3.12
		c0.779,0,1.348-0.267,1.705-0.8s0.535-1.333,0.535-2.4C78.439,130.582,77.721,129.568,76.279,129.568z"/>
	<path fill="#626466" d="M84.041,128.448l0.143,1.169c0.789-0.886,1.596-1.328,2.416-1.328c0.438,0,0.859,0.063,1.264,0.191
		l0.178,0.048l-0.08,2.32H86.92l-0.24-1.2c-0.916,0-1.689,0.416-2.32,1.248v4.752l1.602,0.4v0.88H81.4v-0.88l1.359-0.4v-5.92
		l-1.359-0.319v-0.881L84.041,128.448z"/>
	<path fill="#626466" d="M96.279,124.608v11.04l1.361,0.32v0.88l-2.721,0.08l-0.129-0.912c-0.715,0.715-1.594,1.072-2.639,1.072
		c-1.035,0-1.832-0.371-2.393-1.112s-0.84-1.768-0.84-3.08c0-1.397,0.357-2.515,1.072-3.352c0.715-0.838,1.77-1.256,3.168-1.256
		c0.521,0,1.029,0.085,1.52,0.256v-2.656l-1.359-0.32v-0.88L96.279,124.608z M94.68,134.608v-4.72
		c-0.373-0.213-0.934-0.32-1.68-0.32c-1.6,0-2.4,1.067-2.4,3.2c0,0.938,0.162,1.68,0.488,2.225c0.324,0.544,0.828,0.815,1.512,0.815
		c0.523,0,0.965-0.139,1.328-0.416C94.27,135.115,94.52,134.854,94.68,134.608z"/>
	<path fill="#626466" d="M101.639,128.448v7.2l1.201,0.4v0.88h-4.16v-0.88l1.359-0.4v-5.92l-1.359-0.319v-0.881L101.639,128.448z
		 M100.76,124.688c0.693,0,1.039,0.4,1.039,1.2c0,0.331-0.117,0.587-0.352,0.768c-0.234,0.182-0.484,0.272-0.752,0.272
		c-0.287,0-0.523-0.099-0.703-0.296c-0.182-0.197-0.273-0.472-0.273-0.824c0-0.352,0.1-0.626,0.297-0.824
		C100.213,124.787,100.461,124.688,100.76,124.688z"/>
	<path fill="#626466" d="M106.68,128.448l0.143,1.137c0.107-0.086,0.256-0.203,0.449-0.353c0.191-0.149,0.418-0.293,0.68-0.432
		s0.549-0.259,0.863-0.36c0.314-0.101,0.643-0.151,0.984-0.151c0.863,0,1.506,0.253,1.928,0.76s0.633,1.214,0.633,2.12v4.479
		l1.199,0.4v0.88h-3.84v-0.88l1.041-0.4v-4.319c0-0.576-0.113-1-0.336-1.272c-0.225-0.271-0.566-0.408-1.025-0.408
		c-0.223,0-0.445,0.029-0.664,0.088c-0.219,0.06-0.422,0.137-0.607,0.232c-0.188,0.096-0.352,0.2-0.496,0.312
		c-0.145,0.112-0.264,0.222-0.359,0.328l-0.273,0.32v4.72l1.041,0.4v0.88h-4v-0.88l1.359-0.4v-5.92l-1.359-0.319v-0.881
		L106.68,128.448z"/>
	<path fill="#626466" d="M115.238,128.929c1.152-0.427,2.209-0.64,3.168-0.64c0.939,0,1.658,0.189,2.16,0.567
		c0.502,0.379,0.752,1.017,0.752,1.912v4.88l1.279,0.32v0.88l-2.479,0.08l-0.336-1.12c-0.854,0.854-1.697,1.28-2.529,1.28
		s-1.455-0.208-1.871-0.624s-0.625-1.008-0.625-1.776c0-1.653,1.227-2.479,3.682-2.479h1.279v-1.28c0-0.96-0.508-1.44-1.52-1.44
		c-0.576,0-1.051,0.06-1.424,0.177l-0.193,0.063l-0.223,1.2h-1.041L115.238,128.929z M119.719,133.249h-1.121
		c-0.799,0-1.367,0.104-1.703,0.312s-0.504,0.531-0.504,0.968c0,0.416,0.098,0.734,0.297,0.952c0.197,0.219,0.482,0.328,0.855,0.328
		c0.182,0,0.365-0.032,0.551-0.096c0.188-0.064,0.369-0.145,0.545-0.24s0.334-0.2,0.473-0.312c0.139-0.112,0.25-0.217,0.336-0.312
		l0.271-0.32V133.249z"/>
	<path fill="#626466" d="M131.158,124.608v11.04l1.361,0.32v0.88l-2.721,0.08l-0.129-0.912c-0.715,0.715-1.594,1.072-2.639,1.072
		c-1.035,0-1.832-0.371-2.393-1.112s-0.84-1.768-0.84-3.08c0-1.397,0.357-2.515,1.072-3.352c0.715-0.838,1.77-1.256,3.168-1.256
		c0.521,0,1.029,0.085,1.52,0.256v-2.656l-1.359-0.32v-0.88L131.158,124.608z M129.559,134.608v-4.72
		c-0.373-0.213-0.934-0.32-1.68-0.32c-1.6,0-2.4,1.067-2.4,3.2c0,0.938,0.162,1.68,0.488,2.225c0.324,0.544,0.828,0.815,1.512,0.815
		c0.523,0,0.965-0.139,1.328-0.416C129.148,135.115,129.398,134.854,129.559,134.608z"/>
	<path fill="#626466" d="M133.559,132.816c0-0.683,0.098-1.304,0.295-1.863c0.197-0.561,0.479-1.038,0.842-1.433
		c0.361-0.395,0.791-0.698,1.287-0.912c0.496-0.213,1.043-0.319,1.641-0.319c1.193,0,2.121,0.378,2.783,1.136
		s0.992,1.808,0.992,3.152c0,0.661-0.096,1.267-0.287,1.815c-0.193,0.55-0.463,1.024-0.809,1.424
		c-0.348,0.4-0.768,0.712-1.264,0.937c-0.496,0.224-1.049,0.336-1.656,0.336c-1.217,0-2.158-0.362-2.824-1.088
		S133.559,134.214,133.559,132.816z M137.559,129.568c-1.547,0-2.32,1.04-2.32,3.12s0.746,3.12,2.24,3.12
		c0.779,0,1.346-0.267,1.703-0.8s0.537-1.333,0.537-2.4C139.719,130.582,138.998,129.568,137.559,129.568z"/>
	<path fill="#626466" d="M145.318,128.448l0.145,1.169c0.789-0.886,1.594-1.328,2.416-1.328c0.438,0,0.857,0.063,1.264,0.191
		l0.176,0.048l-0.08,2.32h-1.039l-0.24-1.2c-0.918,0-1.691,0.416-2.32,1.248v4.752l1.6,0.4v0.88h-4.561v-0.88l1.361-0.4v-5.92
		l-1.361-0.319v-0.881L145.318,128.448z"/>
	<path fill="#626466" d="M71.689,148.608v11.04l1.359,0.32v0.88l-2.721,0.08l-0.127-0.912c-0.715,0.715-1.596,1.072-2.641,1.072
		c-1.035,0-1.832-0.371-2.393-1.112c-0.559-0.741-0.84-1.768-0.84-3.08c0-1.397,0.357-2.515,1.072-3.352
		c0.715-0.838,1.771-1.256,3.168-1.256c0.523,0,1.029,0.085,1.521,0.256v-2.656l-1.361-0.32v-0.88L71.689,148.608z M70.09,158.608
		v-4.72c-0.375-0.213-0.934-0.32-1.682-0.32c-1.6,0-2.398,1.067-2.398,3.2c0,0.938,0.162,1.68,0.486,2.225
		c0.326,0.544,0.83,0.815,1.514,0.815c0.521,0,0.965-0.139,1.326-0.416C69.678,159.115,69.93,158.854,70.09,158.608z"/>
	<path fill="#626466" d="M81.289,156.896l-5.52,0.032c0,0.875,0.209,1.573,0.631,2.096c0.422,0.523,0.984,0.784,1.688,0.784
		c0.234,0,0.471-0.021,0.705-0.063c0.234-0.043,0.455-0.097,0.664-0.16c0.207-0.064,0.396-0.137,0.568-0.216
		c0.17-0.08,0.314-0.157,0.432-0.232l0.32-0.208l0.559,0.832c-0.361,0.288-0.695,0.515-1,0.68c-0.303,0.166-0.66,0.315-1.07,0.448
		c-0.412,0.133-0.857,0.2-1.336,0.2c-1.26,0-2.215-0.382-2.865-1.145c-0.65-0.762-0.977-1.805-0.977-3.128
		c0-0.661,0.098-1.269,0.289-1.823s0.461-1.032,0.809-1.433c0.346-0.399,0.76-0.712,1.238-0.936c0.48-0.225,1.01-0.336,1.584-0.336
		c2.24,0,3.361,1.253,3.361,3.76L81.289,156.896z M75.832,155.729h3.84c0-0.65-0.139-1.179-0.416-1.584s-0.725-0.607-1.344-0.607
		c-0.607,0-1.094,0.205-1.455,0.615C76.094,154.563,75.887,155.089,75.832,155.729z"/>
	<path fill="#626466" d="M85.049,152.448l0.127,0.896c0.746-0.704,1.559-1.056,2.432-1.056c1.131,0,1.986,0.37,2.568,1.111
		c0.582,0.742,0.873,1.795,0.873,3.16c0,0.662-0.088,1.27-0.264,1.824c-0.178,0.555-0.447,1.032-0.809,1.432
		c-0.363,0.4-0.814,0.712-1.352,0.937c-0.539,0.224-1.172,0.336-1.896,0.336c-0.449,0-0.928-0.075-1.439-0.225v2.545l1.68,0.319
		v0.88h-4.561v-0.88l1.279-0.319v-9.681l-1.359-0.319v-0.881L85.049,152.448z M85.289,154.688v4.8c0.33,0.214,0.891,0.32,1.68,0.32
		c1.6,0,2.4-1.066,2.4-3.2c0-0.938-0.172-1.68-0.514-2.224c-0.34-0.544-0.863-0.816-1.566-0.816c-0.406,0-0.787,0.094-1.145,0.28
		S85.502,154.315,85.289,154.688z"/>
	<path fill="#626466" d="M92.408,156.816c0-0.683,0.098-1.304,0.295-1.863c0.197-0.561,0.479-1.038,0.842-1.433
		c0.361-0.395,0.791-0.698,1.287-0.912c0.496-0.213,1.043-0.319,1.641-0.319c1.193,0,2.121,0.378,2.783,1.136
		s0.992,1.808,0.992,3.152c0,0.661-0.096,1.267-0.287,1.815c-0.193,0.55-0.463,1.024-0.809,1.424
		c-0.348,0.4-0.768,0.712-1.264,0.937c-0.496,0.224-1.049,0.336-1.656,0.336c-1.217,0-2.158-0.362-2.824-1.088
		S92.408,158.214,92.408,156.816z M96.408,153.568c-1.547,0-2.32,1.04-2.32,3.12s0.746,3.12,2.24,3.12
		c0.779,0,1.346-0.267,1.703-0.8s0.537-1.333,0.537-2.4C98.568,154.582,97.848,153.568,96.408,153.568z"/>
	<path fill="#626466" d="M104.168,152.448l0.145,1.169c0.789-0.886,1.594-1.328,2.416-1.328c0.438,0,0.857,0.063,1.264,0.191
		l0.176,0.048l-0.08,2.32h-1.039l-0.24-1.2c-0.918,0-1.691,0.416-2.32,1.248v4.752l1.6,0.4v0.88h-4.561v-0.88l1.361-0.4v-5.92
		l-1.361-0.319v-0.881L104.168,152.448z"/>
	<path fill="#626466" d="M111.848,150.192v2.336h2.32v1.2h-2.32v5.136c0,0.651,0.268,0.977,0.801,0.977
		c0.342,0,0.758-0.134,1.248-0.4l0.432,0.849c-0.725,0.533-1.471,0.8-2.24,0.8c-0.543,0-0.986-0.179-1.328-0.536
		c-0.34-0.357-0.512-0.952-0.512-1.784v-5.04h-1.6v-1.04l1.6-0.16v-2.016L111.848,150.192z"/>
	<path fill="#626466" d="M118.248,152.448v7.2l1.201,0.4v0.88h-4.16v-0.88l1.359-0.4v-5.92l-1.359-0.319v-0.881L118.248,152.448z
		 M117.369,148.688c0.693,0,1.039,0.4,1.039,1.2c0,0.331-0.117,0.587-0.352,0.768c-0.234,0.182-0.484,0.272-0.752,0.272
		c-0.287,0-0.523-0.099-0.703-0.296c-0.182-0.197-0.273-0.472-0.273-0.824c0-0.352,0.1-0.626,0.297-0.824
		C116.822,148.787,117.07,148.688,117.369,148.688z"/>
	<path fill="#626466" d="M123.688,152.448v0.961l-1.119,0.159l1.904,5.92l1.92-5.84l-1.104-0.239v-0.881l3.584-0.08v0.961
		l-0.881,0.159l-2.721,7.36h-1.76l-2.623-7.28l-0.801-0.239v-0.881L123.688,152.448z"/>
	<path fill="#626466" d="M129.592,156.816c0-0.683,0.098-1.304,0.295-1.863c0.197-0.561,0.479-1.038,0.842-1.433
		c0.361-0.395,0.791-0.698,1.287-0.912c0.496-0.213,1.043-0.319,1.641-0.319c1.193,0,2.121,0.378,2.783,1.136
		s0.992,1.808,0.992,3.152c0,0.661-0.096,1.267-0.287,1.815c-0.193,0.55-0.463,1.024-0.809,1.424
		c-0.348,0.4-0.768,0.712-1.264,0.937c-0.496,0.224-1.049,0.336-1.656,0.336c-1.217,0-2.158-0.362-2.824-1.088
		S129.592,158.214,129.592,156.816z M133.592,153.568c-1.547,0-2.32,1.04-2.32,3.12s0.746,3.12,2.24,3.12
		c0.779,0,1.346-0.267,1.703-0.8s0.537-1.333,0.537-2.4C135.752,154.582,135.031,153.568,133.592,153.568z"/>
</g>
</svg>
