<?xml version="1.0" encoding="utf-8"?>
<!-- Generator: Adobe Illustrator 16.0.0, SVG Export Plug-In . SVG Version: 6.00 Build 0)  -->
<!DOCTYPE svg PUBLIC "-//W3C//DTD SVG 1.1//EN" "http://www.w3.org/Graphics/SVG/1.1/DTD/svg11.dtd">
<svg version="1.1" id="Capa_1" xmlns="http://www.w3.org/2000/svg" xmlns:xlink="http://www.w3.org/1999/xlink" x="0px" y="0px"
	 width="202.438px" height="218.98px" viewBox="0 0 202.438 218.98" enable-background="new 0 0 202.438 218.98"
	 xml:space="preserve">
<path fill="none" stroke="#5CA9EF" stroke-width="4" stroke-miterlimit="10" d="M3.771,73.275c0,0-0.541-21.334,21.125-33.334
	c0,0,42.541-24.332,51.209-30.332c0,0,23.332-16.667,48-0.667c0,0,30.666,19.333,48,28c0,0,27.334,11.999,27.334,39.333
	c0,0,0.998,55.667,0.998,68.333c0,0,0.334,18.666-14.332,27.667c0,0-37.334,23.333-60,36c0,0-21.332,18.668-48.666,1.334
	c0,0-38.666-22.666-50-28c0,0-26.22-16.368-24.22-34.368C3.219,147.24,4.104,99.942,3.771,73.275z"/>
<g>
	<g>
		<g>
			<path fill="#5CA9EF" d="M126.268,99.837H76.334v-1c0-7.767,15-14.064,18.779-14.733c0.205-0.271,0.4-1.187,0.453-2.085
				c-0.86-0.947-3.248-3.837-4.074-7.619c-0.85-0.341-1.571-1.187-2.019-2.401c-0.618-1.682-0.658-4.008,0.582-5.454
				c-0.007-0.062-0.014-0.128-0.021-0.198c-0.229-2.129-0.839-7.782,2.458-11.452c1.952-2.175,4.916-3.276,8.809-3.276
				s6.855,1.102,8.809,3.275c3.297,3.668,2.688,9.32,2.461,11.448c-0.008,0.072-0.016,0.14-0.021,0.203
				c1.24,1.446,1.198,3.773,0.58,5.456c-0.446,1.214-1.168,2.06-2.017,2.399c-0.827,3.781-3.215,6.671-4.076,7.619
				c0.054,0.899,0.249,1.815,0.454,2.085c3.777,0.671,18.777,6.971,18.777,14.733L126.268,99.837L126.268,99.837z M78.455,97.837
				h45.69c-1.326-5.563-13.151-11.152-17.072-11.775c-1.82-0.291-2.041-3.188-2.053-4.419l-0.004-0.42l0.3-0.298
				c0.032-0.032,3.257-3.282,3.949-7.52l0.138-0.838h0.851c0.259,0,0.696-0.44,0.996-1.257c0.455-1.237,0.435-2.934-0.386-3.629
				l-0.374-0.318l0.021-0.49c0.008-0.169,0.034-0.423,0.068-0.745c0.222-2.062,0.739-6.895-1.96-9.898
				c-1.558-1.733-4.021-2.612-7.32-2.612s-5.764,0.879-7.321,2.613c-2.7,3.006-2.18,7.838-1.958,9.9
				c0.035,0.32,0.062,0.572,0.069,0.741l0.022,0.491l-0.375,0.318c-0.819,0.696-0.841,2.392-0.388,3.627
				c0.3,0.817,0.739,1.259,0.999,1.259h0.851l0.137,0.838c0.697,4.257,3.915,7.486,3.947,7.519l0.3,0.298l-0.003,0.421
				c-0.011,1.231-0.229,4.13-2.054,4.419C91.607,86.683,79.781,92.27,78.455,97.837z"/>
		</g>
	</g>
	<path fill="#5CA9EF" d="M96.619,83.783l-1.828,2.103l0.76,5.038l4.475-4.121C100.026,86.803,97.91,85.699,96.619,83.783z"/>
	<path fill="#5CA9EF" d="M106.614,83.783l1.828,2.103l-0.76,5.038l-4.475-4.121C103.207,86.803,105.323,85.699,106.614,83.783z"/>
	<polygon fill="#5CA9EF" points="100.762,88.813 102.11,88.861 102.305,88.372 101.726,87.161 101.176,87.161 100.584,88.324 	"/>
	<polygon fill="#5CA9EF" points="99.061,98.833 101.315,99.591 103.569,98.833 102.143,88.725 100.724,88.679 	"/>
</g>
<g>
	<path fill="#5CA9EF" d="M48.871,137.32l-3.408-9.92l-1.231-0.32v-0.88l4.479-0.08v0.96l-1.456,0.305l2.513,7.775l2.672-7.76
		l-1.488-0.32v-0.88l4.32-0.08v0.96l-1.248,0.32l-3.552,9.92H48.871z"/>
	<path fill="#5CA9EF" d="M58.951,128.84v7.2l1.2,0.4v0.88h-4.16v-0.88l1.36-0.4v-5.92l-1.36-0.319v-0.881L58.951,128.84z
		 M58.071,125.08c0.693,0,1.04,0.4,1.04,1.2c0,0.331-0.117,0.587-0.352,0.768c-0.235,0.182-0.485,0.272-0.752,0.272
		c-0.288,0-0.523-0.099-0.704-0.296c-0.182-0.197-0.272-0.472-0.272-0.824c0-0.352,0.099-0.626,0.296-0.824
		C57.524,125.178,57.772,125.08,58.071,125.08z"/>
	<path fill="#5CA9EF" d="M68.151,131.48h-1.04l-0.24-1.36c-0.416-0.106-0.896-0.16-1.44-0.16c-0.768,0-1.359,0.246-1.775,0.736
		c-0.416,0.491-0.624,1.254-0.624,2.288c0,1.035,0.218,1.829,0.655,2.384s1.046,0.832,1.824,0.832c0.225,0,0.445-0.021,0.664-0.063
		c0.219-0.043,0.427-0.099,0.624-0.168s0.376-0.146,0.536-0.232c0.16-0.085,0.288-0.171,0.384-0.256l0.272-0.24l0.56,0.96
		l-0.176,0.145c-0.128,0.106-0.304,0.227-0.528,0.359c-0.224,0.134-0.472,0.256-0.744,0.368c-0.271,0.112-0.56,0.208-0.863,0.288
		c-0.305,0.08-0.601,0.12-0.889,0.12c-1.301,0-2.293-0.387-2.976-1.16s-1.024-1.832-1.024-3.176c0-0.661,0.099-1.267,0.296-1.816
		c0.197-0.549,0.478-1.019,0.841-1.408c0.362-0.389,0.8-0.692,1.312-0.911s1.083-0.328,1.712-0.328c0.214,0,0.433,0.016,0.656,0.048
		s0.442,0.069,0.656,0.111c0.213,0.043,0.41,0.094,0.592,0.152c0.181,0.059,0.336,0.115,0.464,0.168l0.352,0.16L68.151,131.48z"/>
	<path fill="#5CA9EF" d="M76.711,133.288l-5.52,0.032c0,0.875,0.21,1.573,0.632,2.096c0.421,0.523,0.983,0.784,1.688,0.784
		c0.234,0,0.47-0.021,0.704-0.063c0.234-0.043,0.456-0.097,0.664-0.16c0.208-0.064,0.397-0.137,0.568-0.216
		c0.17-0.08,0.314-0.157,0.432-0.232l0.32-0.208l0.56,0.832c-0.362,0.288-0.695,0.515-1,0.68c-0.304,0.166-0.661,0.315-1.071,0.448
		c-0.411,0.133-0.856,0.2-1.336,0.2c-1.259,0-2.214-0.382-2.864-1.145c-0.651-0.762-0.977-1.805-0.977-3.128
		c0-0.661,0.097-1.269,0.288-1.823c0.192-0.555,0.462-1.032,0.809-1.433c0.346-0.399,0.76-0.712,1.239-0.936
		c0.48-0.225,1.009-0.336,1.584-0.336c2.24,0,3.36,1.253,3.36,3.76L76.711,133.288z M71.255,132.12h3.84
		c0-0.65-0.139-1.179-0.416-1.584s-0.726-0.607-1.344-0.607c-0.607,0-1.094,0.205-1.456,0.615
		C71.516,130.955,71.308,131.48,71.255,132.12z"/>
	<path fill="#5CA9EF" d="M80.471,128.84l0.128,0.896c0.746-0.704,1.558-1.056,2.432-1.056c1.131,0,1.986,0.37,2.568,1.111
		c0.581,0.742,0.872,1.795,0.872,3.16c0,0.662-0.088,1.27-0.264,1.824c-0.177,0.555-0.446,1.032-0.809,1.432
		c-0.362,0.4-0.813,0.712-1.352,0.937c-0.539,0.224-1.171,0.336-1.896,0.336c-0.448,0-0.928-0.075-1.439-0.225v2.545l1.68,0.319V141
		h-4.56v-0.88l1.279-0.319v-9.681l-1.359-0.319v-0.881L80.471,128.84z M80.712,131.08v4.8c0.33,0.214,0.891,0.32,1.68,0.32
		c1.6,0,2.4-1.066,2.4-3.2c0-0.938-0.171-1.68-0.513-2.224c-0.341-0.544-0.863-0.816-1.567-0.816c-0.406,0-0.787,0.094-1.145,0.28
		S80.925,130.707,80.712,131.08z"/>
	<path fill="#5CA9EF" d="M90.471,128.84l0.144,1.169c0.789-0.886,1.595-1.328,2.416-1.328c0.438,0,0.858,0.063,1.264,0.191
		l0.177,0.048l-0.08,2.32h-1.04l-0.24-1.2c-0.917,0-1.69,0.416-2.32,1.248v4.752l1.601,0.4v0.88h-4.561v-0.88l1.36-0.4v-5.92
		l-1.36-0.319v-0.881L90.471,128.84z"/>
	<path fill="#5CA9EF" d="M102.471,133.288l-5.52,0.032c0,0.875,0.21,1.573,0.632,2.096c0.421,0.523,0.983,0.784,1.688,0.784
		c0.234,0,0.47-0.021,0.704-0.063c0.234-0.043,0.456-0.097,0.664-0.16c0.208-0.064,0.397-0.137,0.568-0.216
		c0.17-0.08,0.314-0.157,0.432-0.232l0.321-0.208l0.559,0.832c-0.361,0.288-0.695,0.515-1,0.68
		c-0.304,0.166-0.661,0.315-1.071,0.448c-0.411,0.133-0.856,0.2-1.336,0.2c-1.259,0-2.214-0.382-2.864-1.145
		c-0.651-0.762-0.977-1.805-0.977-3.128c0-0.661,0.097-1.269,0.288-1.823c0.192-0.555,0.462-1.032,0.809-1.433
		c0.346-0.399,0.76-0.712,1.239-0.936c0.48-0.225,1.009-0.336,1.584-0.336c2.24,0,3.361,1.253,3.361,3.76L102.471,133.288z
		 M97.014,132.12h3.84c0-0.65-0.139-1.179-0.416-1.584s-0.726-0.607-1.344-0.607c-0.607,0-1.094,0.205-1.456,0.615
		C97.276,130.955,97.068,131.48,97.014,132.12z"/>
	<path fill="#5CA9EF" d="M103.848,134.76h1.119l0.176,1.376c0.107,0.042,0.275,0.077,0.504,0.104c0.23,0.026,0.457,0.04,0.68,0.04
		c0.693,0,1.197-0.104,1.512-0.312c0.316-0.208,0.473-0.525,0.473-0.952c0-0.288-0.109-0.518-0.328-0.688
		c-0.219-0.17-0.492-0.314-0.824-0.432c-0.33-0.117-0.689-0.234-1.08-0.353c-0.389-0.117-0.748-0.269-1.08-0.456
		c-0.33-0.187-0.605-0.429-0.822-0.728c-0.219-0.299-0.328-0.693-0.328-1.184c0-0.801,0.266-1.411,0.799-1.832
		c0.533-0.422,1.242-0.643,2.129-0.664c0.373,0.011,0.754,0.04,1.143,0.088c0.391,0.048,0.787,0.136,1.193,0.264l0.4,0.128
		l-0.049,2.16h-1.041l-0.256-1.248c-0.084-0.032-0.25-0.072-0.496-0.12c-0.244-0.048-0.506-0.072-0.783-0.072
		c-0.191,0-0.373,0.017-0.543,0.049c-0.172,0.031-0.324,0.085-0.457,0.159c-0.133,0.075-0.24,0.182-0.32,0.32
		s-0.119,0.31-0.119,0.512c0,0.31,0.109,0.553,0.328,0.729s0.492,0.328,0.824,0.456c0.33,0.128,0.689,0.251,1.08,0.368
		c0.389,0.117,0.748,0.27,1.08,0.456c0.33,0.187,0.604,0.424,0.822,0.712s0.328,0.666,0.328,1.136c0,0.448-0.096,0.843-0.287,1.184
		c-0.191,0.342-0.451,0.627-0.775,0.856c-0.326,0.229-0.705,0.4-1.137,0.512c-0.432,0.112-0.895,0.168-1.385,0.168
		c-0.182,0-0.369-0.008-0.566-0.023c-0.199-0.017-0.393-0.038-0.584-0.064c-0.193-0.026-0.371-0.056-0.537-0.088
		s-0.301-0.064-0.408-0.096l-0.367-0.097L103.848,134.76z"/>
	<path fill="#5CA9EF" d="M114.246,128.84v7.2l1.201,0.4v0.88h-4.16v-0.88l1.359-0.4v-5.92l-1.359-0.319v-0.881L114.246,128.84z
		 M113.367,125.08c0.693,0,1.039,0.4,1.039,1.2c0,0.331-0.117,0.587-0.352,0.768c-0.234,0.182-0.484,0.272-0.752,0.272
		c-0.287,0-0.523-0.099-0.703-0.296c-0.182-0.197-0.273-0.472-0.273-0.824c0-0.352,0.1-0.626,0.297-0.824
		C112.821,125.178,113.069,125.08,113.367,125.08z"/>
	<path fill="#5CA9EF" d="M124.088,125v11.04l1.359,0.32v0.88l-2.721,0.08l-0.127-0.912c-0.715,0.715-1.596,1.072-2.641,1.072
		c-1.035,0-1.832-0.371-2.393-1.112c-0.559-0.741-0.84-1.768-0.84-3.08c0-1.397,0.357-2.515,1.072-3.352
		c0.715-0.838,1.771-1.256,3.168-1.256c0.523,0,1.029,0.085,1.521,0.256v-2.656l-1.361-0.32v-0.88L124.088,125z M122.489,135v-4.72
		c-0.375-0.213-0.934-0.32-1.682-0.32c-1.6,0-2.398,1.067-2.398,3.2c0,0.938,0.162,1.68,0.486,2.225
		c0.326,0.544,0.83,0.815,1.514,0.815c0.521,0,0.965-0.139,1.326-0.416C122.076,135.507,122.328,135.246,122.489,135z"/>
	<path fill="#5CA9EF" d="M133.688,133.288l-5.52,0.032c0,0.875,0.209,1.573,0.631,2.096c0.422,0.523,0.984,0.784,1.688,0.784
		c0.234,0,0.471-0.021,0.705-0.063c0.234-0.043,0.455-0.097,0.664-0.16c0.207-0.064,0.396-0.137,0.568-0.216
		c0.17-0.08,0.314-0.157,0.432-0.232l0.32-0.208l0.559,0.832c-0.361,0.288-0.695,0.515-1,0.68c-0.303,0.166-0.66,0.315-1.07,0.448
		c-0.412,0.133-0.857,0.2-1.336,0.2c-1.26,0-2.215-0.382-2.865-1.145c-0.65-0.762-0.977-1.805-0.977-3.128
		c0-0.661,0.098-1.269,0.289-1.823s0.461-1.032,0.809-1.433c0.346-0.399,0.76-0.712,1.238-0.936c0.48-0.225,1.01-0.336,1.584-0.336
		c2.24,0,3.361,1.253,3.361,3.76L133.688,133.288z M128.231,132.12h3.84c0-0.65-0.139-1.179-0.416-1.584s-0.725-0.607-1.344-0.607
		c-0.607,0-1.094,0.205-1.455,0.615C128.492,130.955,128.285,131.48,128.231,132.12z"/>
	<path fill="#5CA9EF" d="M137.608,128.84l0.145,1.137c0.105-0.086,0.256-0.203,0.447-0.353c0.193-0.149,0.418-0.293,0.68-0.432
		s0.551-0.259,0.865-0.36c0.314-0.101,0.643-0.151,0.984-0.151c0.863,0,1.506,0.253,1.928,0.76c0.42,0.507,0.631,1.214,0.631,2.12
		v4.479l1.201,0.4v0.88h-3.84v-0.88l1.039-0.4v-4.319c0-0.576-0.111-1-0.336-1.272c-0.225-0.271-0.564-0.408-1.023-0.408
		c-0.225,0-0.445,0.029-0.664,0.088c-0.219,0.06-0.422,0.137-0.609,0.232c-0.186,0.096-0.352,0.2-0.494,0.312
		c-0.145,0.112-0.266,0.222-0.361,0.328l-0.271,0.32v4.72l1.039,0.4v0.88h-4v-0.88l1.361-0.4v-5.92l-1.361-0.319v-0.881
		L137.608,128.84z"/>
	<path fill="#5CA9EF" d="M148.487,126.584v2.336h2.32v1.2h-2.32v5.136c0,0.651,0.268,0.977,0.801,0.977
		c0.342,0,0.758-0.134,1.248-0.4l0.432,0.849c-0.725,0.533-1.471,0.8-2.24,0.8c-0.543,0-0.986-0.179-1.328-0.536
		c-0.34-0.357-0.512-0.952-0.512-1.784v-5.04h-1.6v-1.04l1.6-0.16v-2.016L148.487,126.584z"/>
	<path fill="#5CA9EF" d="M159.127,133.288l-5.52,0.032c0,0.875,0.209,1.573,0.631,2.096c0.422,0.523,0.984,0.784,1.688,0.784
		c0.234,0,0.471-0.021,0.705-0.063c0.234-0.043,0.455-0.097,0.664-0.16c0.207-0.064,0.396-0.137,0.568-0.216
		c0.17-0.08,0.314-0.157,0.432-0.232l0.32-0.208l0.559,0.832c-0.361,0.288-0.695,0.515-1,0.68c-0.303,0.166-0.66,0.315-1.07,0.448
		c-0.412,0.133-0.857,0.2-1.336,0.2c-1.26,0-2.215-0.382-2.865-1.145c-0.65-0.762-0.977-1.805-0.977-3.128
		c0-0.661,0.098-1.269,0.289-1.823s0.461-1.032,0.809-1.433c0.346-0.399,0.76-0.712,1.238-0.936c0.48-0.225,1.01-0.336,1.584-0.336
		c2.24,0,3.361,1.253,3.361,3.76L159.127,133.288z M153.67,132.12h3.84c0-0.65-0.139-1.179-0.416-1.584s-0.725-0.607-1.344-0.607
		c-0.607,0-1.094,0.205-1.455,0.615C153.932,130.955,153.725,131.48,153.67,132.12z"/>
</g>
</svg>
