<?xml version="1.0" encoding="utf-8"?>
<!-- Generator: Adobe Illustrator 16.0.0, SVG Export Plug-In . SVG Version: 6.00 Build 0)  -->
<!DOCTYPE svg PUBLIC "-//W3C//DTD SVG 1.1//EN" "http://www.w3.org/Graphics/SVG/1.1/DTD/svg11.dtd">
<svg version="1.1" id="Capa_1" xmlns="http://www.w3.org/2000/svg" xmlns:xlink="http://www.w3.org/1999/xlink" x="0px" y="0px"
	 width="94px" height="94px" viewBox="0 0 94 94" enable-background="new 0 0 94 94" xml:space="preserve">
<circle fill="none" stroke="#052561" stroke-miterlimit="10" cx="47" cy="47" r="46.5"/>
<circle fill="#052561" cx="56.184" cy="27.125" r="0.533"/>
<circle fill="#052561" cx="54.746" cy="24.688" r="0.533"/>
<circle fill="#052561" cx="57.059" cy="25.25" r="0.533"/>
<circle fill="#052561" cx="47" cy="26.769" r="0.643"/>
<g>
	<rect x="28.461" y="43.167" fill="none" stroke="#082561" stroke-miterlimit="10" width="36.832" height="11.375"/>
	
		<line fill="none" stroke="#052561" stroke-linecap="round" stroke-miterlimit="10" x1="65.646" y1="42.75" x2="65.646" y2="55.083"/>
	
		<line fill="none" stroke="#052561" stroke-linecap="round" stroke-miterlimit="10" x1="28.312" y1="42.75" x2="28.312" y2="55.083"/>
	<g>
		<line fill="none" stroke="#052561" stroke-miterlimit="10" x1="28.291" y1="47.001" x2="65.709" y2="47.001"/>
		<line fill="none" stroke="#052561" stroke-miterlimit="10" x1="28.291" y1="50.917" x2="65.709" y2="50.917"/>
	</g>
	<g>
		<line fill="none" stroke="#052561" stroke-miterlimit="10" x1="33.209" y1="43.167" x2="33.209" y2="54.584"/>
		<line fill="none" stroke="#052561" stroke-miterlimit="10" x1="37.863" y1="43.167" x2="37.863" y2="54.584"/>
		<line fill="none" stroke="#052561" stroke-miterlimit="10" x1="42.52" y1="42.917" x2="42.52" y2="54.334"/>
		<line fill="none" stroke="#052561" stroke-miterlimit="10" x1="47.174" y1="43.334" x2="47.174" y2="54.334"/>
		<line fill="none" stroke="#052561" stroke-miterlimit="10" x1="51.83" y1="42.917" x2="51.83" y2="54.334"/>
		<line fill="none" stroke="#052561" stroke-miterlimit="10" x1="56.484" y1="43.251" x2="56.484" y2="54.5"/>
		<line fill="none" stroke="#052561" stroke-miterlimit="10" x1="61.141" y1="43.251" x2="61.141" y2="54.5"/>
	</g>
</g>
<g>
	<path fill="none" d="M44.386,32.348c1.455,0,2.641-1.184,2.641-2.64s-1.186-2.643-2.641-2.643c-1.459,0-2.645,1.187-2.645,2.643
		S42.927,32.348,44.386,32.348z"/>
	<path fill="#052561" d="M44.386,34.367c2.568,0,4.658-2.091,4.658-4.659c0-2.569-2.09-4.661-4.658-4.661
		c-2.57,0-4.662,2.092-4.662,4.661C39.724,32.276,41.815,34.367,44.386,34.367z M44.386,27.065c1.455,0,2.641,1.187,2.641,2.643
		s-1.186,2.64-2.641,2.64c-1.459,0-2.645-1.184-2.645-2.64S42.927,27.065,44.386,27.065z"/>
	<path fill="#052561" d="M42.444,56.488c5.25,1.004,11.199,2.142,12.271,12.421c0.055,0.518,0.555,0.951,1.107,0.898
		c0.557-0.051,0.957-0.555,0.9-1.107c-1.138-10.881-7.478-12.899-12.654-13.951h-6.903C38.456,55.717,40.335,56.086,42.444,56.488z"
		/>
	<path fill="#052561" d="M40.364,36.928c2.613,0.62,8.635,1.377,14.732-1.373c0.508-0.23,0.732-0.826,0.504-1.335
		c-0.229-0.508-0.826-0.732-1.334-0.504c-7.184,3.24-14.506,0.95-14.592,0.941c-0.518-0.047-0.986,0.307-1.084,0.817
		c-0.009,0.044-0.594,3.096-1.475,7.4h2.06C39.712,40.249,40.131,38.126,40.364,36.928z"/>
	<path fill="#052561" d="M41.884,57.721c-0.553-0.077-1.061,0.306-1.141,0.855c-0.01,0.073-1.107,7.304-7.01,8.97
		c-0.535,0.15-0.846,0.707-0.693,1.244c0.123,0.445,0.688,0.854,1.242,0.697c7.182-2.029,8.41-10.28,8.459-10.631
		C42.817,58.307,42.435,57.798,41.884,57.721z"/>
	<path fill="#052561" d="M58.897,21.554c-1.332-1.547-3.6-2.708-5.967-1.33c-2.18,1.271-2.453,4.062-1.785,6.119
		c0.955,2.934,3.699,5.055,4.557,5.657l2.082,4.527c-3.811,2.713-11.834,2.842-11.889,2.836c-0.508-0.038-0.961,0.312-1.059,0.812
		l-0.536,2.7h2.057l0.292-1.473c9.486-0.553,12.584-3.26,13.152-4.041c0.207-0.284,0.25-0.655,0.115-0.979l-2.5-5.478
		c-0.369-0.98-2.746-1.029-4.352-5.186c-0.414-1.073-0.414-2.996,0.881-3.751c1.533-0.895,2.803,0.183,3.424,0.901
		c1.686,1.961,1.869,4.988,1.352,6.422c-0.188,0.524,0.082,1.101,0.607,1.291c0.523,0.188,1.102-0.083,1.289-0.606
		C61.423,27.749,60.997,23.992,58.897,21.554z"/>
</g>
</svg>
