<?xml version="1.0" encoding="utf-8"?>
<!-- Generator: Adobe Illustrator 16.0.0, SVG Export Plug-In . SVG Version: 6.00 Build 0)  -->
<!DOCTYPE svg PUBLIC "-//W3C//DTD SVG 1.1//EN" "http://www.w3.org/Graphics/SVG/1.1/DTD/svg11.dtd">
<svg version="1.1" id="Capa_1" xmlns="http://www.w3.org/2000/svg" xmlns:xlink="http://www.w3.org/1999/xlink" x="0px" y="0px"
	 width="94px" height="94px" viewBox="0 0 94 94" enable-background="new 0 0 94 94" xml:space="preserve">
<g>
	<g>
		<path fill="#052561" d="M44.385,36.656c2.568,0,4.658-2.091,4.658-4.659c0-2.569-2.09-4.661-4.658-4.661
			c-2.57,0-4.66,2.092-4.66,4.661C39.725,34.565,41.814,36.656,44.385,36.656z M44.385,29.354c1.457,0,2.643,1.187,2.643,2.643
			s-1.186,2.64-2.643,2.64s-2.643-1.184-2.643-2.64S42.928,29.354,44.385,29.354z"/>
		<path fill="#052561" d="M42.824,56.795c-2.275-0.432-4.24-0.809-4.949-1.876c-0.385-0.581-0.445-1.442-0.189-2.634
			c1.232-5.727,2.256-10.903,2.678-13.068c2.613,0.62,8.635,1.377,14.734-1.373c0.508-0.23,0.73-0.826,0.504-1.335
			c-0.229-0.508-0.826-0.732-1.334-0.504c-7.186,3.24-14.508,0.95-14.592,0.941c-0.518-0.047-0.988,0.307-1.086,0.817
			c-0.012,0.065-1.266,6.608-2.877,14.097c-0.375,1.752-0.219,3.115,0.48,4.174c1.178,1.772,3.529,2.224,6.252,2.743
			c5.248,1.004,11.199,2.142,12.271,12.421c0.055,0.518,0.555,0.951,1.107,0.898c0.557-0.051,0.957-0.554,0.898-1.107
			C55.492,59.217,48.17,57.818,42.824,56.795z"/>
		<path fill="#052561" d="M41.883,60.01c-0.551-0.077-1.059,0.306-1.139,0.855c-0.01,0.073-1.109,7.304-7.01,8.971
			c-0.535,0.15-0.846,0.707-0.695,1.244c0.125,0.444,0.689,0.854,1.244,0.696c7.18-2.029,8.41-10.279,8.459-10.631
			C42.818,60.596,42.434,60.087,41.883,60.01z"/>
		<path fill="#052561" d="M58.896,23.843c-1.33-1.547-3.598-2.708-5.965-1.33c-2.18,1.271-2.453,4.062-1.785,6.119
			c0.953,2.934,3.699,5.055,4.557,5.657l2.08,4.527c-3.809,2.713-11.832,2.842-11.889,2.836c-0.506-0.038-0.961,0.312-1.059,0.812
			l-2.307,11.624c-0.107,0.545,0.248,1.075,0.795,1.185c0.066,0.012,0.947,0.054,1.186-0.792l2.139-10.789
			c9.488-0.553,12.586-3.26,13.154-4.041c0.205-0.284,0.25-0.655,0.115-0.979l-2.502-5.478c-0.367-0.98-2.746-1.029-4.35-5.186
			c-0.416-1.073-0.416-2.996,0.879-3.751c1.533-0.895,2.805,0.183,3.426,0.901c1.686,1.961,1.867,4.988,1.352,6.422
			c-0.189,0.524,0.082,1.101,0.605,1.291c0.523,0.188,1.104-0.083,1.291-0.606C61.422,30.038,60.998,26.281,58.896,23.843z"/>
	</g>
</g>
<circle fill="none" stroke="#052561" stroke-miterlimit="10" cx="47" cy="47" r="46.5"/>
</svg>
