<?xml version="1.0" encoding="utf-8"?>
<!-- Generator: Adobe Illustrator 16.0.0, SVG Export Plug-In . SVG Version: 6.00 Build 0)  -->
<!DOCTYPE svg PUBLIC "-//W3C//DTD SVG 1.1//EN" "http://www.w3.org/Graphics/SVG/1.1/DTD/svg11.dtd">
<svg version="1.1" id="Capa_1" xmlns="http://www.w3.org/2000/svg" xmlns:xlink="http://www.w3.org/1999/xlink" x="0px" y="0px"
	 width="94px" height="94px" viewBox="0 0 94 94" enable-background="new 0 0 94 94" xml:space="preserve">
<g>
	<g>
		<g>
			<path fill="#052561" d="M58.313,48.648c0.442-2.686-0.959-4.811-1.251-5.219l-4.926-8.88c-0.133-0.238-0.358-0.409-0.623-0.475
				c-0.265-0.064-0.543-0.016-0.771,0.136c-0.108,0.071-9.279,6.118-16.582,7.717c0.462-0.877,0.634-1.913,0.409-2.955
				c-0.431-2.003-2.547-3.978-5.198-3.358c-2.35,0.548-3.867,2.837-3.36,5.197c0.433,2.003,2.229,3.456,4.276,3.456l0,0
				c7.83-0.217,17.563-5.921,20.646-7.86l4.452,8.021c0.022,0.042,0.05,0.085,0.079,0.122c0.013,0.016,1.265,1.71,0.924,3.779
				c-0.259,1.563-1.351,2.995-3.263,4.267c-0.074,0.052-7.419,5.277-4.069,15.328c0.136,0.41,0.553,0.818,1.234,0.617
				c0.515-0.152,0.786-0.723,0.615-1.232c-2.876-8.631,3.077-12.931,3.313-13.098C56.587,52.636,57.965,50.766,58.313,48.648z
				 M27.92,40.401c-0.281-1.308,0.55-2.618,1.862-2.881c1.475-0.297,2.643,0.751,2.881,1.861c0.282,1.308-0.566,2.548-1.861,2.881
				C29.272,42.657,28.158,41.512,27.92,40.401z"/>
			<path fill="#052561" d="M67.683,66.67c-0.078-0.061-7.868-6.363-11.539-11.163c-0.327-0.429-0.938-0.51-1.367-0.183
				c-0.426,0.328-0.509,0.938-0.182,1.367c3.812,4.986,11.53,11.246,11.864,11.498c0.41,0.309,1.065,0.451,1.454-0.109
				C68.22,67.639,68.102,67.01,67.683,66.67z"/>
			<path fill="#052561" d="M51.711,51.775c0.49-0.225,0.685-0.82,0.448-1.305l-4.272-8.729c-0.122-0.251-0.349-0.438-0.619-0.512
				s-0.559-0.028-0.792,0.125c-7.27,4.787-16.094,4.855-16.182,4.855c-0.539,0-0.975,0.437-0.975,0.975s0.436,0.975,0.975,0.975
				c0.368,0,8.771-0.054,16.318-4.586l3.795,7.755C50.577,51.673,51.091,52.061,51.711,51.775z"/>
		</g>
		<path fill="#052561" d="M50.365,30.031c0-2.55-2.074-4.625-4.626-4.625c-2.55,0-4.626,2.075-4.626,4.625
			c0,2.552,2.076,4.629,4.626,4.629C48.291,34.66,50.365,32.583,50.365,30.031z M43.117,30.031c0-1.445,1.177-2.622,2.622-2.622
			c1.447,0,2.622,1.177,2.622,2.622c0,1.447-1.175,2.624-2.622,2.624C44.294,32.655,43.117,31.479,43.117,30.031z"/>
	</g>
</g>
<circle fill="none" stroke="#052561" stroke-miterlimit="10" cx="47" cy="47" r="46.5"/>
</svg>
