<?xml version="1.0" encoding="utf-8"?>
<!-- Generator: Adobe Illustrator 16.0.0, SVG Export Plug-In . SVG Version: 6.00 Build 0)  -->
<!DOCTYPE svg PUBLIC "-//W3C//DTD SVG 1.1//EN" "http://www.w3.org/Graphics/SVG/1.1/DTD/svg11.dtd">
<svg version="1.1" id="Capa_1" xmlns="http://www.w3.org/2000/svg" xmlns:xlink="http://www.w3.org/1999/xlink" x="0px" y="0px"
	 width="94px" height="94px" viewBox="97 0 94 94" enable-background="new 97 0 94 94" xml:space="preserve">
<g>
	<g>
		<g>
			<path fill="#052561" d="M156.184,48.774c0.476-2.892-1.033-5.18-1.348-5.62l-5.304-9.562c-0.144-0.257-0.387-0.44-0.672-0.512
				c-0.285-0.069-0.584-0.017-0.829,0.146c-0.117,0.077-9.993,6.589-17.857,8.311c0.498-0.944,0.683-2.061,0.44-3.183
				c-0.463-2.157-2.742-4.283-5.598-3.616c-2.53,0.59-4.164,3.055-3.618,5.597c0.466,2.157,2.4,3.722,4.604,3.722l0,0
				c8.433-0.233,18.914-6.376,22.234-8.465l4.794,8.639c0.024,0.045,0.054,0.091,0.085,0.131c0.014,0.017,1.362,1.842,0.995,4.07
				c-0.278,1.684-1.454,3.225-3.514,4.595c-0.079,0.056-7.989,5.683-4.382,16.506c0.146,0.44,0.596,0.881,1.329,0.665
				c0.555-0.165,0.847-0.779,0.663-1.329c-3.098-9.294,3.313-13.924,3.568-14.104C154.324,53.068,155.808,51.054,156.184,48.774z
				 M123.453,39.893c-0.303-1.407,0.592-2.819,2.005-3.102c1.589-0.32,2.846,0.809,3.103,2.004c0.304,1.408-0.609,2.744-2.004,3.103
				C124.909,42.323,123.71,41.089,123.453,39.893z"/>
			<path fill="#052561" d="M166.272,68.182c-0.084-0.065-8.473-6.852-12.426-12.021c-0.353-0.462-1.011-0.549-1.473-0.197
				c-0.458,0.354-0.548,1.011-0.195,1.473c4.104,5.368,12.417,12.109,12.776,12.382c0.441,0.331,1.147,0.485,1.565-0.117
				C166.851,69.225,166.724,68.546,166.272,68.182z"/>
			<path fill="#052561" d="M149.073,52.142c0.527-0.242,0.737-0.884,0.482-1.405l-4.601-9.4c-0.132-0.271-0.376-0.471-0.667-0.551
				s-0.602-0.031-0.853,0.135c-7.829,5.154-17.331,5.229-17.426,5.229c-0.581,0-1.05,0.47-1.05,1.049c0,0.58,0.469,1.049,1.05,1.049
				c0.396,0,9.445-0.058,17.573-4.938l4.086,8.351C147.853,52.031,148.405,52.448,149.073,52.142z"/>
		</g>
		<path fill="#052561" d="M147.624,28.726c0-2.746-2.233-4.98-4.981-4.98c-2.746,0-4.981,2.234-4.981,4.98
			c0,2.748,2.235,4.985,4.981,4.985C145.391,33.711,147.624,31.474,147.624,28.726z M139.818,28.726
			c0-1.557,1.268-2.823,2.824-2.823c1.559,0,2.823,1.267,2.823,2.823c0,1.559-1.265,2.826-2.823,2.826
			C141.086,31.552,139.818,30.285,139.818,28.726z"/>
	</g>
</g>
<circle fill="none" stroke="#052561" stroke-miterlimit="10" cx="144" cy="47" r="46.5"/>
</svg>
