<?xml version="1.0" encoding="utf-8"?>
<!-- Generator: Adobe Illustrator 16.0.0, SVG Export Plug-In . SVG Version: 6.00 Build 0)  -->
<!DOCTYPE svg PUBLIC "-//W3C//DTD SVG 1.1//EN" "http://www.w3.org/Graphics/SVG/1.1/DTD/svg11.dtd">
<svg version="1.1" id="Capa_1" xmlns="http://www.w3.org/2000/svg" xmlns:xlink="http://www.w3.org/1999/xlink" x="0px" y="0px"
	 width="94px" height="94px" viewBox="595.834 0 94 94" enable-background="new 595.834 0 94 94" xml:space="preserve">
<circle fill="none" stroke="#052561" stroke-miterlimit="10" cx="642.834" cy="47" r="46.5"/>
<g>
	<g>
		<path fill="#052561" d="M646.903,38.958c-0.059,0.003-5.815,0.393-7.697,0.367c-4.619-0.065-5.656-1.321-12.4-9.494
			c-0.739-0.897-1.545-1.873-2.428-2.934c-0.297-0.359-0.954-0.497-1.409-0.13c-0.431,0.347-0.482,0.985-0.13,1.412
			c0.881,1.058,1.684,2.031,2.422,2.928c6.765,8.194,8.371,10.143,13.917,10.222c1.693,0.023,6.133-0.258,7.478-0.345
			c0.528,0.484,1.968,2.124,3.109,6.342c1.356,5.019-2.383,9.991-2.42,10.042c-0.336,0.438-0.254,1.066,0.185,1.402
			c0.438,0.337,1.067,0.256,1.403-0.184c0.181-0.233,4.384-5.794,2.766-11.783c-1.643-6.078-3.969-7.565-4.228-7.713
			C647.297,38.99,647.1,38.945,646.903,38.958z"/>
		<path fill="#052561" d="M647.203,59.839c-2.059-0.503-3.333-1.263-3.896-2.196c-0.706-1.174,0.111-3.126,0.166-3.286
			c0.932-2.722,2.34-6.832-0.996-11.376c-0.287-0.392-0.726-0.655-1.399-0.215c-0.639,0.415-0.543,0.955-0.214,1.401
			c2.716,3.699,1.605,6.938,0.714,9.542c-0.056,0.164-1.276,2.574-0.024,4.9c0.804,1.494,2.513,2.526,5.176,3.178
			c6.611,1.612,14.21,8.927,14.286,9.001c0.397,0.384,1.033,0.375,1.417-0.022c0.386-0.397,0.376-1.03-0.021-1.415
			C662.084,69.032,654.346,61.582,647.203,59.839z"/>
		<path fill="#052561" d="M643.146,62.715c-0.048,0.056-4.907,5.58-16.19,6.854c-0.112,0.012-1.009,0.095-0.882,1.108
			c0.067,0.549,0.557,0.944,1.107,0.882c12.129-1.371,17.278-7.297,17.491-7.548c0.356-0.422,0.305-1.05-0.117-1.409
			C644.137,62.245,643.506,62.294,643.146,62.715z"/>
		<path fill="#052561" d="M636.62,28.084l-2.282-6.022c-0.196-0.518-0.768-0.76-1.291-0.583c-0.458,0.156-0.769,0.799-0.582,1.292
			l2.284,6.022c0.194,0.518,0.772,0.778,1.29,0.582C636.555,29.18,636.816,28.603,636.62,28.084z"/>
	</g>
	<path fill="#052561" d="M638.216,29.455c-2.31,1.082-3.307,3.843-2.224,6.151c1.084,2.312,3.843,3.311,6.152,2.227
		c2.311-1.083,3.309-3.842,2.225-6.154C643.287,29.37,640.527,28.371,638.216,29.455z M641.295,36.019
		c-1.311,0.614-2.875,0.048-3.488-1.262c-0.615-1.309-0.049-2.875,1.26-3.487c1.31-0.613,2.876-0.048,3.49,1.26
		C643.17,33.839,642.604,35.405,641.295,36.019z"/>
</g>
</svg>
